<?xml version="1.0" encoding="utf-8"?>
<!-- Generator: Adobe Illustrator 16.0.0, SVG Export Plug-In . SVG Version: 6.00 Build 0)  -->
<!DOCTYPE svg PUBLIC "-//W3C//DTD SVG 1.1//EN" "http://www.w3.org/Graphics/SVG/1.1/DTD/svg11.dtd">
<svg version="1.1" id="Layer_1" xmlns="http://www.w3.org/2000/svg" xmlns:xlink="http://www.w3.org/1999/xlink" x="0px" y="0px"
	 width="24px" height="24px" viewBox="0 0 24 24" enable-background="new 0 0 24 24" xml:space="preserve">
<title>icon-bold</title>
<desc>Created with Sketch.</desc>
<g>
	<rect x="19.054" y="11.347" width="1.291" height="1.291"/>
	<polygon points="19.134,15.221 17.843,15.221 17.843,13.898 16.552,13.898 16.552,11.347 19.054,11.347 19.054,10.056 
		16.552,10.056 16.552,8.725 17.843,8.725 17.843,4.851 16.451,4.851 16.451,3.625 16.451,3.592 16.451,2.333 7.448,2.333 
		7.448,2.298 4.865,2.298 4.865,19.15 3.574,19.15 3.574,20.41 2.283,20.41 2.283,21.701 10.03,21.701 10.03,20.41 8.739,20.41 
		8.739,19.15 7.448,19.15 7.448,3.625 15.16,3.625 15.16,4.851 13.97,4.851 13.97,8.725 15.261,8.725 15.261,10.056 12.598,10.056 
		12.598,11.347 15.261,11.347 15.261,15.18 16.552,15.18 16.552,16.481 17.843,16.481 17.843,17.803 19.114,17.803 19.114,19.033 
		20.405,19.033 20.405,16.451 19.134,16.451 	"/>
	<rect x="20.425" y="17.742" width="1.292" height="1.291"/>
	<rect x="11.307" y="11.347" width="1.291" height="1.291"/>
	<polygon points="13.949,15.221 12.658,15.221 12.658,16.451 11.387,16.451 11.387,19.033 12.679,19.033 12.679,17.803 
		13.949,17.803 13.949,16.481 15.24,16.481 15.24,13.898 13.949,13.898 	"/>
	<rect x="10.075" y="17.742" width="1.291" height="1.291"/>
</g>
</svg>
