<?xml version="1.0" encoding="UTF-8"?>
<svg id="uuid-50b5be9b-f70a-48ea-bd63-282aa0087b77" data-name="Capa 1" xmlns="http://www.w3.org/2000/svg" width="250" height="250" viewBox="0 0 250 250">
  <path d="M196.45,198.8l9.45,40.34c.59,2.51,4,2.9,5.14.59l5.18-10.45,14.02,14.02c1.08,1.08,2.84,1.07,3.91-.02l9.52-9.76c1.05-1.07,1.04-2.79-.01-3.85l-13.76-13.91,12.02-5.4c2.4-1.08,2.06-4.59-.5-5.18l-41.66-9.68c-1.98-.46-3.76,1.32-3.3,3.3Z" style="fill: #a324aa;"/>
  <g>
    <path d="M12.94,12.89s-.01,0-.01,0l-.03,17.8.03-17.8h.01Z" style="fill: none;"/>
    <path d="M199.28,105.37h0s0,0,0,0c.11,0,.22.01.33.01-.11,0-.22-.01-.33-.01Z" style="fill: none;"/>
    <polygon points="96.21 116.45 96.2 116.45 96.21 116.45 96.21 116.45" style="fill: #3cc0f8;"/>
    <path d="M107.85,53.47l.09,6.85h-11.78s0,38.65,0,38.65h57.85v-21.18h6.76l.08,21.18c12.32,0,21.14,0,21.14,0v-62.72l-85.84-.03v17.3l11.69-.05ZM160.35,53.53l.25,14.45-6.35-.08v-8.16l-8.1-.03-.06-6.15,14.25-.02ZM117.49,53.55l20.28-.08.09,6.85h-20.37v-6.76Z" style="fill: #ef7f18;"/>
    <path d="M85.46,98.96c1.06,0,5,0,10.7,0v-38.65h-8.59v-6.76l8.59-.04v-17.3l-83.57-.03s0,.08,0,.12c.09,11.24-.32,136.69-.31,136.94l.62.62c7.5.02,51.24.53,52.46-.62-.04-5.76.04-48.65,0-50.61-.14-5.88-.41-12.28,1.23-17.9,3.21-7.32,12.14-5.88,18.87-5.79ZM34.5,53.53l14.25.02-.06,6.15-8.1.03v8.16l-6.35.08.25-14.45ZM33.88,77.6l6.96.11-.17,22.73-6.79-.31v-22.53ZM33.59,109.77l7.75-.33-.02,22.73-7.48.46-.25-22.85ZM33.95,157.14l-.09-16.28h7.39l.05,9.56,8.54-.06c-.05,1.56.04,5.16.03,6.74l-15.91.05ZM58.31,60.31v-6.76l20.28-.08.09,6.85h-20.37Z" style="fill: #f9a450;"/>
    <path d="M182.06,12.79s-43.18.03-85.9.05v17.85h85.9s0-17.9,0-17.9ZM148.91,24.05h-7.48c-1.35,0-2.45-1.1-2.45-2.45v-.61c0-1.35,1.09-2.44,2.43-2.45l7.48-.04c1.35,0,2.45,1.08,2.46,2.42v.65c.02,1.36-1.08,2.47-2.44,2.47ZM168.25,24.05h-7.48c-1.35,0-2.45-1.1-2.45-2.45v-.61c0-1.35,1.09-2.44,2.43-2.45l7.48-.04c1.35,0,2.45,1.08,2.46,2.42v.65c.02,1.36-1.08,2.47-2.44,2.47Z" style="fill: #a324aa;"/>
    <path d="M12.94,12.89h-.01l-.03,17.8h83.26V12.84c-41.57.02-82.71.05-83.22.05Z" style="fill: #c552ce;"/>
    <path d="M12.6,36.19s0,.08,0,.12c0-.04,0-.08,0-.12h0Z" style="fill: #a324aa;"/>
    <path d="M49.83,150.36l-8.54.06-.05-9.56h-7.39l.09,16.28,15.91-.05c.01-1.57-.08-5.18-.03-6.74Z" style="fill: #fff;"/>
    <polygon points="40.84 77.7 33.88 77.6 33.88 100.12 40.67 100.43 40.84 77.7" style="fill: #fff;"/>
    <polygon points="40.59 59.74 48.7 59.7 48.75 53.55 34.5 53.53 34.25 67.98 40.59 67.9 40.59 59.74" style="fill: #fff;"/>
    <polygon points="154.26 59.74 154.26 67.9 160.6 67.98 160.35 53.53 146.1 53.55 146.15 59.7 154.26 59.74" style="fill: #fff;"/>
    <polygon points="41.34 109.44 33.59 109.77 33.83 132.62 41.31 132.16 41.34 109.44" style="fill: #fff;"/>
    <polygon points="107.85 53.47 96.16 53.52 96.16 60.31 107.94 60.32 107.85 53.47" style="fill: #fff;"/>
    <polygon points="87.58 53.55 87.58 60.31 96.16 60.31 96.16 53.52 87.58 53.55" style="fill: #fff;"/>
    <polygon points="137.77 53.47 117.49 53.55 117.49 60.31 137.86 60.32 137.77 53.47" style="fill: #fff;"/>
    <path d="M148.89,18.51l-7.48.04c-1.35,0-2.43,1.1-2.43,2.45v.61c0,1.35,1.09,2.45,2.45,2.45h7.48c1.36,0,2.46-1.11,2.45-2.47v-.65c-.02-1.35-1.12-2.43-2.47-2.42Z" style="fill: #fff;"/>
    <path d="M168.23,18.51l-7.48.04c-1.35,0-2.43,1.1-2.43,2.45v.61c0,1.35,1.09,2.45,2.45,2.45h7.48c1.36,0,2.46-1.11,2.45-2.47v-.65c-.02-1.35-1.12-2.43-2.47-2.42Z" style="fill: #fff;"/>
    <path d="M154.01,97.96c2.36,0,4.65,0,6.85,0v1c-2.18,0-4.48,0-6.85,0v-1Z" style="fill: #a324aa;"/>
    <path d="M154.02,77.79v21.18c2.37,0,4.66,0,6.84,0l-.08-21.18h-6.76Z" style="fill: #fff;"/>
    <path d="M154.01,98.15l6.85-.09v-.1c-2.19,0-4.49,0-6.85,0v.19Z" style="fill: #a324aa;"/>
    <polygon points="58.31 53.55 58.31 60.31 78.68 60.32 78.59 53.47 58.31 53.55" style="fill: #fff;"/>
    <polygon points="56.71 150.16 56.71 157.02 65.42 157.03 65.38 150.18 56.71 150.16" style="fill: #fff;"/>
  </g>
  <g>
    <path d="M94.71,141.84c.17.02.34.03.51.05.32.02.65.04.98.05.33,0,.66-.02.98-.05.17-.01.35-.03.52-.05,4.5-.5,7.62-2.9,9.38-6.03,1.18-1.93,1.87-4.19,1.87-6.61s-.69-4.68-1.87-6.61c-1.75-3.13-4.88-5.53-9.38-6.03-.17-.02-.34-.03-.52-.05-.32-.02-.64-.04-.97-.05,0,0,0,0,0,0h0c-.33,0-.66.02-.98.05-.17.01-.35.03-.52.05-4.5.5-7.63,2.9-9.38,6.03-1.18,1.93-1.86,4.19-1.86,6.61s.69,4.68,1.86,6.61c1.75,3.14,4.88,5.54,9.38,6.04Z" style="fill: none;"/>
    <path d="M203.48,108.27c-.04-1.99-2.3-2.78-3.87-2.89-.11,0-.22,0-.33-.01,0,0,0,0,0,0-5.22-.05-11.04-.1-17.28-.14-13.47-.1-28.96-.18-44.97-.26v99.37c19.68-.15,42.45-.32,55.62-.36l-.95-4.06c-.53-2.28,0-4.64,1.45-6.47,1.46-1.84,3.64-2.9,5.97-2.9.58,0,1.17.07,1.74.2l2.84.66c.09-21.32.2-63.96-.21-83.13Z" style="fill: #0f9fd1;"/>
    <path d="M137.03,104.97c-20.45-.1-41.73-.2-60.66-.31-2.17-.01-4.52,1.64-4.53,4.7-.06,21.81.25,43.58.22,65.69-.01,8.14-.07,16.32-.22,24.57-.03,1.43.46,4.02,1.81,4.7.21.55,10.94.28,26.26.33,0,0,16.94-.15,37.12-.31v-99.37Z" style="fill: #54c3ea;"/>
  </g>
  <g>
    <path d="M96.11,134.76c2.23.03,3.82-.97,4.75-2.39-1.08,1.45-2.81,2.39-4.75,2.39Z" style="fill: none;"/>
    <path d="M91.36,132.37c.94,1.43,2.51,2.42,4.74,2.39h0c-1.94,0-3.66-.95-4.74-2.39Z" style="fill: none;"/>
    <polygon points="96.1 134.76 96.11 134.76 96.11 134.76 96.1 134.76 96.1 134.76" style="fill: none;"/>
  </g>
  <g>
    <path d="M96.11,134.76s0,0-.01,0c-1.94,0-3.66-.95-4.74-2.39.94,1.43,2.51,2.42,4.74,2.39,0,0,0,0,.01,0h0Z" style="fill: none;"/>
    <path d="M96.11,134.76c2.23.03,3.82-.97,4.75-2.39-1.08,1.45-2.81,2.39-4.75,2.39Z" style="fill: none;"/>
    <path d="M119.52,157.11c.18.08.43.36.75.63-.32-.27-.57-.56-.75-.63Z" style="fill: none;"/>
    <path d="M118.29,157.99h0c.09-.08.09-.09,0,0Z" style="fill: none;"/>
    <path d="M96.22,186.22c-.32-.21-1.12-.09-1.59-.23.47.14,1.27.02,1.59.23,5.78.01,13.56.02,22.07.02v-.05c-12.6.01-22.07.03-22.07.03Z" style="fill: none;"/>
    <path d="M118.29,157.99s-.02.02,0,0h0Z" style="fill: none;"/>
    <path d="M118.29,186.19v.05c6.03,0,12.43,0,18.74,0v-.07c-6.5,0-12.95.01-18.74.02Z" style="fill: none;"/>
    <path d="M119.52,157.11c-.06-.03-.11-.04-.15-.04-.04,0-.09.02-.15.05.06-.03.11-.05.15-.05.04,0,.09.01.15.04Z" style="fill: none;"/>
    <path d="M120.27,157.74c.32.27.7.63,1.13,1.06-.43-.43-.81-.79-1.13-1.06Z" style="fill: none;"/>
    <path d="M118.29,186.19c5.79,0,12.24-.01,18.74-.02v-9.9l-.03.04-3.27,4.83c-6.89,1.07-6.25-1.86-4.56-4.98,1-1.85,2.37-3.78,2.76-4.98-.01-.07-.13-.26-.32-.53-.19-.27-.46-.63-.79-1.06-.66-.85-7.84-9.22-9.42-10.79-.43-.43-.81-.79-1.13-1.06-.32-.27-.57-.56-.75-.63-.06-.03-.11-.04-.15-.04-.04,0-.09.02-.15.05-.02,0-.03.02-.05.03-.05.03-.79.75-.88.83v28.2Z" style="fill: #39b54a;"/>
    <path d="M118.29,186.19v-28.2s-21.93,24.68-22.07,24.83c-2.24,2.34-2.2,2.97-1.59,3.16.47.14,1.27.02,1.59.23,0,0,9.47-.01,22.07-.03Z" style="fill: #63ce6d;"/>
    <path d="M137.38,163.45c.1-.15.2-.3.3-.47-.1.16-.2.32-.3.47Z" style="fill: #a324aa;"/>
    <path d="M130.82,169.59c.33.43.6.79.79,1.06-.19-.27-.46-.63-.79-1.06Z" style="fill: #a324aa;"/>
    <path d="M119.17,157.16s.04-.02.05-.03c-.02,0-.03.02-.05.03Z" style="fill: #a324aa;"/>
    <path d="M137.32,163.56s.04-.07.07-.1c-.02.03-.04.07-.07.1Z" style="fill: none;"/>
    <path d="M137.69,162.99s.06-.1.09-.14c-.03.05-.06.1-.09.14Z" style="fill: none;"/>
    <polygon points="194.15 192.03 137.03 192.21 137.03 192.21 194.15 192.03" style="fill: none;"/>
    <path d="M182.39,185.96c0-.16-.1-.38-.37-.69,0-.01-.01-.02-.02-.03,0,.01.01.02.02.03.19.3.3.52.37.69Z" style="fill: none;"/>
    <path d="M180.76,186.22c-.25-.05-11.13-.06-24.99-.06v.07c14.25,0,24.99-.01,24.99-.01,0,0,.6.14,1.07.1-.34-.08-.75-.19-1.07-.1Z" style="fill: none;"/>
    <path d="M137.03,186.17v.07c6.5,0,12.91,0,18.74,0v-.07c-5.9,0-12.34,0-18.74,0Z" style="fill: none;"/>
    <path d="M155.78,148.56h0v37.6c13.87,0,24.74.01,24.99.06.32-.09.73.02,1.07.1.31-.02.55-.11.55-.36-.07-.17-.18-.39-.37-.69,0-.01-.01-.02-.02-.03-1.72-2.7-3.56-5.43-5.46-8.16-6.81-9.77-14.46-19.59-20.77-28.52Z" style="fill: #39b54a;"/>
    <path d="M155.77,186.16v-37.59l-18.74,27.7v9.9c6.4,0,12.84,0,18.74,0Z" style="fill: #63ce6d;"/>
    <path d="M182,174.14c-7.4-10.89-16.41-24.16-21.71-31.94-1.66-2.09-2.83-3.76-4.52-3.33-.7.18-1.48.7-2.43,1.71-.13.13-16,22.94-16.02,22.97-.1.16-.2.31-.29.45-.71,1.1-1.13,1.76-1.13,1.76l-14.42-16.84c-.85-.7-2.11-1.24-3.19-.89-.16.05-.32.12-.47.22-5.57,6.86-15.02,17.91-23.07,27.24-8.03,9.31-14.67,16.9-14.67,16.9l56.96-.18,57.12-.18s-5.4-7.95-12.15-17.89ZM181.83,186.32c-.47.03-1.07-.1-1.07-.1,0,0-10.75,0-24.99.01-5.83,0-12.24,0-18.74,0-6.31,0-12.71,0-18.74,0-8.51,0-16.3,0-22.07-.02-.32-.21-1.12-.09-1.59-.23-.6-.19-.65-.81,1.59-3.16.14-.15,22.05-24.82,22.07-24.83.09-.09.83-.8.88-.83.02-.01.04-.02.05-.03.06-.03.11-.05.15-.05.04,0,.09.01.15.04.18.08.43.36.75.63.32.27.7.63,1.13,1.06,1.58,1.57,8.76,9.93,9.42,10.79.33.43.6.79.79,1.06.19.27.3.45.32.53-.39,1.2-1.76,3.13-2.76,4.98-1.69,3.13-2.32,6.05,4.56,4.98l3.27-4.83.03-.04,18.74-27.7h0c6.31,8.93,13.96,18.74,20.77,28.51,1.9,2.73,3.74,5.45,5.46,8.16,0,.01.01.02.02.03.26.31.36.53.37.69.21.53-.1.47-.55.36Z" style="fill: #fff;"/>
    <path d="M181.83,186.32c.45.11.76.16.55-.36,0,.25-.25.34-.55.36Z" style="fill: #a324aa;"/>
  </g>
  <path d="M107.08,122.58c-1.99-3.27-5.4-5.57-9.38-6.03-.17-.02-.34-.03-.52-.05-.32-.02-.64-.05-.97-.05,0,0,0,0,0,0h0s-.07,0-.11,0c-.29,0-.58.02-.87.04-.17.01-.35.03-.52.05-3.98.47-7.39,2.77-9.38,6.03-2.24,4.01-2.24,9.22,0,13.22,1.99,3.27,5.4,5.57,9.38,6.04.17.02.34.03.51.05.29.02.58.04.87.04.04,0,.07,0,.11,0,.33,0,.65-.02.98-.05.17-.01.35-.03.52-.05,3.98-.47,7.39-2.77,9.38-6.03,2.24-4.01,2.24-9.22,0-13.23ZM100.86,132.37c-.94,1.43-2.52,2.43-4.75,2.39h0s0,0-.01,0c-2.23.03-3.81-.97-4.74-2.39-.74-.99-1.18-2.21-1.18-3.54s.44-2.55,1.18-3.54c.94-1.43,2.51-2.42,4.74-2.4,0,0,0,0,.01,0,2.23-.03,3.82.97,4.75,2.39.74.99,1.18,2.21,1.18,3.54s-.44,2.55-1.18,3.54Z" style="fill: #fff;"/>
  <path d="M96.1,134.76s0,0,.01,0h0c1.95,0,3.67-.94,4.75-2.39,1.35-2.06,1.35-5.02,0-7.08-1.08-1.45-2.81-2.39-4.75-2.39,0,0,0,0-.01,0v11.87Z" style="fill: #ef7f18;"/>
  <path d="M96.1,134.76v-11.87c-1.94,0-3.67.95-4.74,2.4-1.35,2.06-1.35,5.02,0,7.08,1.08,1.45,2.8,2.39,4.74,2.39Z" style="fill: #f9a450;"/>
</svg>