<?xml version="1.0" encoding="UTF-8"?>
<svg id="uuid-212d66de-0fc9-45d3-88a0-9ed131c6c462" data-name="Capa 1" xmlns="http://www.w3.org/2000/svg" width="250" height="250" viewBox="0 0 250 250">
  <path d="M123.87,172.66c1.47,0,2.9.07,4.3.2v-12.27c-.92.07-1.85.11-2.8.11-1.21,0-2.38-.05-3.54-.13v12.13c.67-.03,1.35-.05,2.04-.05Z" style="fill: none;"/>
  <path d="M122.38,74c-.19,0-.36.01-.55.02v27.74c2.2-1.31,4.34-2.54,6.34-3.73v-23.49c-1.75-.34-3.67-.54-5.79-.54Z" style="fill: none;"/>
  <path d="M161.25,136.79c-5.66,11.32-16.69,22.64-33.08,23.81v12.27c18.45,1.72,30.09,14.51,30.09,31.19,0,14.97-9.38,26.82-24.65,30.32,3.33,3.31,7.91,5.35,12.97,5.35h74.75c10.17,0,18.41-8.24,18.41-18.41v-74.75c0-10.17-8.24-18.41-18.41-18.41h-52.14c-3.44,2.49-6.25,5.23-7.95,8.62Z" style="fill: #39b54a;"/>
  <path d="M121.83,101.76v-27.74c-18.94.4-22.11,20.91-45.8,20.91-22.42,0-32.89-10.46-32.89-26.91,0-23.22,25.36-49.25,74.71-50.75-3.37-4.26-8.57-7-14.43-7H28.67c-10.17,0-18.41,8.24-18.41,18.41v74.75c0,10.17,8.24,18.41,18.41,18.41h70.34c5.24-8.99,14.43-15.08,22.82-20.07Z" style="fill: #0f9fd1;"/>
  <path d="M121.83,103.42v-1.66c-8.39,4.99-17.58,11.08-22.82,20.07h4.41c10.17,0,18.41-8.24,18.41-18.41Z" style="fill: #54c3ea;"/>
  <path d="M43.15,68.02c0,16.44,10.46,26.91,32.89,26.91,23.69,0,26.86-20.52,45.8-20.91V28.67c0-4.31-1.49-8.27-3.98-11.41-49.35,1.5-74.71,27.54-74.71,50.75Z" style="fill: #54c3ea;"/>
  <path d="M128.17,146.58v14.02c16.39-1.17,27.41-12.49,33.08-23.81,1.69-3.38,4.5-6.13,7.95-8.62h-22.62c-10.17,0-18.41,8.24-18.41,18.41Z" style="fill: #63ce6d;"/>
  <path d="M128.17,172.87v48.46c0,5.1,2.08,9.72,5.44,13.06,15.27-3.51,24.65-15.35,24.65-30.32,0-16.68-11.63-29.47-30.09-31.19Z" style="fill: #63ce6d;"/>
  <path d="M146.58,121.83h33.05c14.29-7.95,30.96-16.88,30.96-41.85,0-31.03-26.63-59.38-78.6-62.49-2.38,3.1-3.81,6.97-3.81,11.19v45.87c8.09,1.59,12.15,6.5,12.15,11.42,0,4.39-5.23,7.97-12.15,12.07v5.39c0,10.17,8.24,18.41,18.41,18.41Z" style="fill: #f9a450;"/>
  <path d="M121.83,160.58v-14c0-10.17-8.24-18.41-18.41-18.41h-7.24c-.27.86-.52,1.73-.72,2.64-3.66,16.62,7.55,28.46,26.36,29.77Z" style="fill: #d35464;"/>
  <path d="M115.98,234.76c3.59-3.36,5.85-8.13,5.85-13.43v-48.62c-19.76.85-32.34,14-32.34,31.35,0,15.57,10.14,27.75,26.49,30.7Z" style="fill: #d35464;"/>
  <path d="M128.17,74.54v23.49c6.91-4.1,12.15-7.69,12.15-12.07,0-4.92-4.06-9.83-12.15-11.42Z" style="fill: #ef7f18;"/>
  <path d="M221.33,10.27h-74.75c-5.95,0-11.23,2.84-14.59,7.22,51.97,3.11,78.6,31.46,78.6,62.49,0,24.98-16.66,33.9-30.96,41.85h41.71c10.17,0,18.41-8.24,18.41-18.41V28.67c0-10.17-8.24-18.41-18.41-18.41Z" style="fill: #ef7f18;"/>
  <path d="M95.47,130.81c.2-.9.44-1.78.72-2.64H28.67c-10.17,0-18.41,8.24-18.41,18.41v74.75c0,10.17,8.24,18.41,18.41,18.41h74.75c4.86,0,9.27-1.9,12.55-4.97-16.35-2.95-26.49-15.14-26.49-30.7,0-17.35,12.58-30.5,32.34-31.35v-12.13c-18.82-1.31-30.02-13.15-26.36-29.77Z" style="fill: #c1272d;"/>
</svg>