<?xml version="1.0" encoding="UTF-8"?>
<svg id="uuid-1f4c1ddb-d8e9-403e-9394-8ee30615e401" data-name="Capa 1" xmlns="http://www.w3.org/2000/svg" width="250" height="250" viewBox="0 0 250 250">
  <rect x="12.62" y="6.27" width="43.02" height="39.82" style="fill: #d35464;"/>
  <rect x="55.64" y="6.27" width="40.89" height="39.82" transform="translate(152.18 52.36) rotate(180)" style="fill: #c1272d;"/>
  <rect x="105.42" y="6.27" width="43.02" height="39.82" style="fill: #54c3ea;"/>
  <rect x="148.44" y="6.27" width="40.89" height="39.82" transform="translate(337.78 52.36) rotate(180)" style="fill: #0f9fd1;"/>
  <rect x="105.42" y="106.53" width="43.02" height="39.82" style="fill: #54c3ea;"/>
  <rect x="148.44" y="106.53" width="40.89" height="39.82" transform="translate(337.78 252.89) rotate(180)" style="fill: #0f9fd1;"/>
  <rect x="12.62" y="106.53" width="43.02" height="39.82" style="fill: #d35464;"/>
  <rect x="55.64" y="106.53" width="40.89" height="39.82" transform="translate(152.18 252.89) rotate(180)" style="fill: #c1272d;"/>
  <rect x="152.36" y="155.53" width="43.02" height="39.82" style="fill: #d35464;"/>
  <rect x="195.38" y="155.53" width="40.89" height="39.82" transform="translate(431.64 350.89) rotate(180)" style="fill: #c1272d;"/>
  <rect x="13.51" y="155.53" width="40.89" height="39.82" transform="translate(67.91 350.89) rotate(180)" style="fill: #c1272d;"/>
  <rect x="13.69" y="204.96" width="45.16" height="39.82" style="fill: #54c3ea;"/>
  <rect x="105.42" y="204.96" width="45.16" height="39.82" style="fill: #54c3ea;"/>
  <rect x="58.71" y="204.96" width="40.89" height="39.82" transform="translate(158.31 449.73) rotate(180)" style="fill: #0f9fd1;"/>
  <rect x="152.36" y="57.47" width="44.3" height="39.82" style="fill: #d35464;"/>
  <rect x="196.65" y="57.47" width="42.1" height="39.82" transform="translate(435.41 154.76) rotate(180)" style="fill: #c1272d;"/>
  <rect x="100.09" y="57.47" width="44.3" height="39.82" style="fill: #d35464;"/>
</svg>