<?xml version="1.0" encoding="UTF-8"?>
<svg id="uuid-4e2d67e9-d0e0-447d-8cb0-8504a1ba845d" data-name="Capa 1" xmlns="http://www.w3.org/2000/svg" width="250" height="250" viewBox="0 0 250 250">
  <g>
    <g>
      <path d="M31.86,12.4c-10.1,0-18.29,8.19-18.29,18.29v188.63c0,10.1,8.19,18.29,18.29,18.29h93.49V12.4H31.86Z" style="fill: #7ea2aa;"/>
      <path d="M235.74,68.59h-52.25c-1.53,0-3-.61-4.08-1.69-1.08-1.08-1.69-2.55-1.69-4.08V12.96c-1.45-.37-2.95-.56-4.47-.56h-47.89v225.2h92.78c10.1,0,18.29-8.19,18.29-18.29V73.53c0-1.69-.24-3.35-.69-4.94Z" style="fill: #5d7f87;"/>
    </g>
    <polygon points="187.41 12.71 189.41 14.59 235.58 58.66 187.41 58.66 187.41 12.71" style="fill: #83a8b2; fill-rule: evenodd;"/>
  </g>
  <g>
    <path d="M48.64,48.41c-2.42,2.42-3.75,5.59-3.75,8.95s1.33,6.53,3.75,8.95l11.89,11.89c1.59,1.59,3.39,2.67,5.38,3.25v-33.59c-2.33-2.05-5.25-3.18-8.33-3.18-3.35,0-6.53,1.33-8.94,3.74Z" style="fill: none;"/>
    <path d="M48.64,183.91c-2.42,2.42-3.75,5.59-3.75,8.95s1.33,6.53,3.75,8.95l11.89,11.89c1.59,1.59,3.39,2.67,5.38,3.25v-33.59c-2.33-2.05-5.25-3.18-8.33-3.18-3.35,0-6.53,1.33-8.94,3.74Z" style="fill: none;"/>
    <path d="M82.61,228.07c5.76,0,10.47-4.71,10.47-10.47v-18.55l-14.65,14.65c-2.49,2.48-5.49,3.74-8.94,3.74-1.25,0-2.44-.17-3.57-.5v11.12h16.69Z" style="fill: #89ddf4;"/>
    <path d="M66.53,183.95l2.95,2.95,13.46-13.46c-.11,0-.22-.02-.33-.02h-16.69v9.97c.21.18.42.36.62.56Z" style="fill: #89ddf4;"/>
    <path d="M37.76,183.86v33.74c0,5.76,4.71,10.47,10.47,10.47h17.68v-11.12c-1.99-.58-3.79-1.66-5.38-3.25l-11.89-11.89c-2.41-2.42-3.75-5.59-3.75-8.95s1.33-6.53,3.75-8.95c2.41-2.41,5.59-3.74,8.94-3.74,3.08,0,6,1.13,8.33,3.18v-9.97h-17.68c-5.76,0-10.47,4.71-10.47,10.47Z" style="fill: #fff;"/>
    <path d="M60.53,78.19l-11.89-11.89c-2.41-2.42-3.75-5.59-3.75-8.95s1.33-6.53,3.75-8.95c2.41-2.41,5.59-3.74,8.94-3.74,3.08,0,6,1.13,8.33,3.18v-9.97h-17.68c-5.76,0-10.47,4.71-10.47,10.47v33.74c0,5.76,4.71,10.47,10.47,10.47h17.68v-11.12c-1.99-.58-3.79-1.66-5.38-3.25Z" style="fill: #fff;"/>
    <path d="M66.53,48.41l2.95,2.95,13.46-13.46c-.11,0-.22-.02-.33-.02h-16.69v9.97c.21.18.42.36.62.56Z" style="fill: #89ddf4;"/>
    <path d="M69.48,81.94c-1.25,0-2.44-.17-3.57-.5v11.12h16.69c5.76,0,10.47-4.71,10.47-10.47v-18.55l-14.65,14.65c-2.49,2.48-5.49,3.74-8.94,3.74Z" style="fill: #89ddf4;"/>
    <polygon points="93.08 133.37 93.08 123.54 88.16 128.45 93.08 133.37" style="fill: #89ddf4;"/>
    <path d="M82.61,161.71c2.63,0,5.04-.99,6.88-2.61-1.44-.54-2.77-1.37-3.9-2.49l-12.79-12.79-6.89,6.89v11.01h16.69Z" style="fill: #89ddf4;"/>
    <path d="M52.32,159.79c-2.9,0-5.63-1.13-7.68-3.18-2.05-2.06-3.18-4.78-3.18-7.68s1.13-5.63,3.18-7.68l12.8-12.79-12.79-12.79c-1.7-1.71-2.76-3.88-3.07-6.22-2.32,1.92-3.81,4.83-3.81,8.06v33.74c0,5.76,4.71,10.47,10.47,10.47h17.68v-11.01l-5.91,5.91c-2.05,2.05-4.78,3.18-7.68,3.18Z" style="fill: #fff;"/>
    <polygon points="78.85 107.03 66.74 107.03 72.8 113.09 78.85 107.03" style="fill: #89ddf4;"/>
    <g>
      <polygon points="72.63 128.26 72.89 128.26 72.76 128.14 72.63 128.26"/>
      <polygon points="72.89 128.01 72.76 128.14 72.89 128.26 72.89 128.26 72.89 128.01"/>
    </g>
    <polygon points="69.48 203.99 69.48 203.93 69.45 203.96 69.48 203.99"/>
    <g>
      <polygon points="69.48 68.79 69.48 68.73 69.45 68.76 69.48 68.79"/>
      <g>
        <path d="M96.02,110.72c1.52-1.52,1.52-3.97,0-5.49-.02-.02-.04-.03-.06-.05-1.52-1.46-3.93-1.45-5.43.05l-17.63,17.63v5.4h0v5.77l17.63,17.63c1.52,1.52,3.98,1.52,5.49,0,.05-.05.08-.1.13-.16,1.37-1.52,1.34-3.87-.13-5.34l-17.73-17.73.19-.19,17.54-17.54Z"/>
        <path d="M103.84,169.6c-1.66-1.52-4.05-1.49-5.66.13l-28.7,28.66v10.12c1.15-.04,1.95-.44,2.74-1.23l31.77-31.73c1.66-1.66,1.66-4.15,0-5.82-.05-.05-.1-.08-.15-.13Z"/>
        <path d="M103.99,40.34c1.66-1.66,1.66-4.15,0-5.82-.05-.05-.1-.08-.15-.13-1.66-1.52-4.05-1.49-5.66.13l-28.7,28.66v10.12c1.15-.04,1.95-.44,2.74-1.23l31.77-31.73Z"/>
      </g>
      <g>
        <path d="M72.89,128.01v-5.14l-.09.09-17.73-17.73c-1.47-1.47-3.81-1.5-5.34-.13-.05.05-.11.08-.16.13-.76.76-1.14,1.75-1.14,2.75s.38,1.99,1.14,2.75l17.54,17.54.19.19-17.73,17.73c-.76.76-1.14,1.75-1.14,2.75,0,.86.3,1.71.87,2.42.09.11.17.23.27.33,1.52,1.52,3.98,1.52,5.49,0l17.73-17.73.09.09v-5.77h0s-.26,0-.26,0l.13-.13.13-.13Z" style="fill: #4d4d4d;"/>
        <path d="M60.25,189.5c-1.57-1.57-3.87-1.64-5.52-.25-.1.08-.2.15-.3.25-1.66,1.66-1.66,4.15,0,5.82l11.97,11.96c.83.83,1.66,1.25,2.91,1.25.06,0,.11-.01.16-.01v-4.52l-.03-.03.03-.03v-5.54l-.16.16-9.07-9.05Z" style="fill: #4d4d4d;"/>
        <path d="M66.41,72.08c.83.83,1.66,1.25,2.91,1.25.06,0,.11-.01.16-.01v-4.52l-.03-.03.03-.03v-5.54l-.16.16-9.07-9.05c-1.57-1.57-3.87-1.64-5.52-.25-.1.08-.2.15-.3.25-1.66,1.66-1.66,4.15,0,5.82l11.97,11.96Z" style="fill: #4d4d4d;"/>
      </g>
    </g>
    <g>
      <g>
        <path d="M175.23,92.56h-49.87v-11.61h49.87c3.31,0,5.63,2.24,5.78,5.48,0,.11.03.21.03.32,0,3.42-2.39,5.8-5.81,5.8Z" style="fill: #54c3ea;"/>
        <path d="M114.61,92.56c-3.42,0-5.8-2.39-5.8-5.8,0-.11.02-.21.03-.32.15-3.24,2.47-5.48,5.78-5.48h10.75v11.61h-10.75Z" style="fill: #fff;"/>
      </g>
      <g>
        <path d="M114.61,215.77h10.68v11.61h-10.68c-3.42,0-5.81-2.39-5.81-5.81,0-.06.01-.12.02-.18.09-3.32,2.43-5.62,5.79-5.62Z" style="fill: #fff;"/>
        <path d="M196.17,215.77c3.36,0,5.7,2.31,5.79,5.62,0,.06.02.12.02.18,0,3.42-2.39,5.81-5.81,5.81h-70.88v-11.61h70.88Z" style="fill: #54c3ea;"/>
      </g>
      <g>
        <path d="M114.61,158.48c-3.42,0-5.81-2.39-5.81-5.8,0-.01,0-.03,0-.04.02-3.4,2.4-5.76,5.8-5.76h10.75v11.61h-10.75Z" style="fill: #fff;"/>
        <path d="M200.36,158.48h-75v-11.61h75c3.4,0,5.78,2.37,5.8,5.76,0,.01,0,.03,0,.04,0,3.42-2.39,5.8-5.81,5.8Z" style="fill: #54c3ea;"/>
      </g>
    </g>
  </g>
</svg>