<?xml version="1.0" encoding="utf-8"?>
<!-- Generator: Adobe Illustrator 16.0.0, SVG Export Plug-In . SVG Version: 6.00 Build 0)  -->
<!DOCTYPE svg PUBLIC "-//W3C//DTD SVG 1.1//EN" "http://www.w3.org/Graphics/SVG/1.1/DTD/svg11.dtd">
<svg version="1.1" id="Layer_1" xmlns="http://www.w3.org/2000/svg" xmlns:xlink="http://www.w3.org/1999/xlink" x="0px" y="0px"
	 width="24px" height="24px" viewBox="0 0 24 24" enable-background="new 0 0 24 24" xml:space="preserve">
<title>icon-bold</title>
<desc>Created with Sketch.</desc>
<g>
	<g>
		<path fill-rule="evenodd" clip-rule="evenodd" d="M4.222,11.49C4.243,11.246,4.259,11,4.286,10.758
			c0.15-1.285,0.488-2.509,1.198-3.609c0.356-0.553,0.8-1.026,1.337-1.407c0.258-0.184,0.52-0.361,0.781-0.538
			c0.044-0.03,0.099-0.044,0.148-0.065C7.76,5.147,7.769,5.155,7.778,5.164c-0.024,0.063-0.041,0.13-0.073,0.19
			C7.456,5.813,7.194,6.266,6.956,6.73c-0.438,0.85-0.77,1.74-0.951,2.682c-0.006,0.03-0.01,0.062-0.016,0.099
			c0.169-0.035,0.33-0.075,0.491-0.099c1.161-0.178,2.361,0.531,2.769,1.629c0.429,1.159,0.062,2.361-0.941,3.083
			c-1.097,0.789-2.723,0.539-3.536-0.543c-0.303-0.402-0.485-0.848-0.534-1.349c-0.002-0.027-0.011-0.055-0.016-0.082
			C4.222,11.93,4.222,11.71,4.222,11.49z"/>
		<path fill-rule="evenodd" clip-rule="evenodd" d="M15.153,12.194c-0.057,0.241-0.094,0.49-0.177,0.72
			c-0.407,1.137-1.649,1.848-2.838,1.639c-1.099-0.193-1.936-0.994-2.136-2.066c-0.047-0.254-0.057-0.517-0.053-0.775
			c0.013-0.875,0.134-1.736,0.378-2.578c0.281-0.973,0.696-1.879,1.385-2.638c0.195-0.216,0.409-0.419,0.636-0.598
			c0.313-0.246,0.648-0.464,0.975-0.691c0.045-0.031,0.1-0.046,0.149-0.069c0.01,0.007,0.02,0.015,0.028,0.022
			c-0.021,0.063-0.037,0.132-0.068,0.19c-0.219,0.402-0.447,0.8-0.662,1.205c-0.444,0.842-0.793,1.722-0.998,2.655
			c-0.021,0.1-0.039,0.199-0.057,0.285c0.253-0.036,0.5-0.092,0.749-0.103c0.771-0.029,1.429,0.244,1.963,0.796
			c0.407,0.42,0.641,0.925,0.708,1.507c0.004,0.023,0.013,0.048,0.018,0.071C15.153,11.91,15.153,12.052,15.153,12.194z"/>
	</g>
	<rect x="10.528" y="16.971" fill-rule="evenodd" clip-rule="evenodd" width="9.25" height="1.891"/>
</g>
</svg>
