<?xml version="1.0" encoding="UTF-8"?>
<svg id="uuid-d7ceb75d-d294-4655-98ae-2bd6f44671b3" data-name="Capa 1" xmlns="http://www.w3.org/2000/svg" width="250" height="250" viewBox="0 0 250 250">
  <path d="M161.71,202.55c-4.08-3.53-6.77-8.41-7.58-13.75l-.78-5.18-4.75,2.23c-13.16,6.19-27.71,9.46-42.07,9.46-.29,0-.58,0-.86,0,1.18,3.08,1.83,6.43,1.83,9.92,0,6.07-1.96,11.7-5.28,16.28,1.51.06,3.01.09,4.52.09,18.59,0,37.3-4.34,54.12-12.55l4.2-2.05c-.72-1.03-1.38-2.1-1.96-3.22l-1.39-1.2Z" style="fill: #f9a450;"/>
  <path d="M56.2,182.26l3.54-2.16-2.36-3.41c-.8-1.16-1.67-2.2-2.5-3.21-.72-.87-1.4-1.69-1.99-2.53-6.23-8.82-9.31-19.49-8.91-30.86l.11-1.02c-7.72-2.04-14.13-7.33-17.68-14.3-.33-.23-.67-.46-.99-.7l-4.97-3.72-1.21,6.09c-5.16,25.97,2.92,52.75,21.09,69.89l4.71,4.44,1.74-6.23c1.4-5.01,4.84-9.49,9.42-12.28Z" style="fill: #f9a450;"/>
  <path d="M223.82,125.75c-8.67,0-16.42-3.99-21.52-10.22l-.26,1.75c-.15,1.01-.27,2.02-.4,3-.19,1.56-.38,3.04-.65,4.5-2.9,15.69-11.49,28.09-18.19,35.74l-.69.78-.21,1.02c-.11.55-.12,1.05-.06,1.48,1.91-.42,3.88-.64,5.91-.64,0,0,.01,0,.02,0,7.79,0,14.84,3.22,19.89,8.4,9.43-12.44,15.86-26.12,18.76-40.03.4-1.93.74-3.93,1.02-6.01-1.15.15-2.32.23-3.51.24-.04,0-.09,0-.13,0Z" style="fill: #f9a450;"/>
  <path d="M156.51,62.69c12.72,2.67,24.07,8.68,32.38,17.36l3.01,3.15,2.8-3.34c3.65-4.34,8.58-7.12,13.53-7.62l1.32-.13.97-.91c1.12-1.05,1.91-3.11.48-5.46-.24-.4-.58-.86-1.01-1.4-.43-.53-.96-1.15-1.58-1.84v-.02c-3.3-3.62-7.79-7.55-12.31-10.78-7.86-5.61-16.84-9.92-26.68-12.81-6.23-1.83-12.7-3.07-19.33-3.69,4.76,4.99,7.69,11.75,7.69,19.17,0,2.89-.44,5.68-1.27,8.31Z" style="fill: #f9a450;"/>
  <path d="M51.2,84.4c6.45,0,12.39,2.21,17.11,5.9,7.86-7.64,17.38-14.22,28.37-19.58.15-.08.57-.23.87-.35.92-.35,1.88-.72,2.65-1.26,1.3-.91,1.68-2.12,1.78-2.76.12-.75.09-1.88-.74-3.07-.43-.72-.9-1.35-1.36-1.97-.44-.59-.85-1.14-1.12-1.64-1.77-3.32-2.66-7.18-2.57-11.18l.04-1.61-1.11-1.17c-.75-.79-1.78-1.23-2.89-1.23-.79,0-1.53,0-7.36,2.77-16.72,7.94-31.62,19.44-43.1,33.26l-4.02,4.84,3.59.85c3.06-1.17,6.37-1.81,9.83-1.81.01,0,.02,0,.04,0Z" style="fill: #f9a450;"/>
  <path d="M105.67,195.29c-4.3-.04-8.61-.37-12.82-.98l-4.78-.7.31,4.82c.31,4.81-.75,9.16-3.24,13.29-.05.06-.11.15-.17.24-.25.34-.59.81-.88,1.28-1.83,3-.18,4.99.37,5.53l.86.84,1.19.21c5.13.91,10.4,1.46,15.7,1.67,3.32-4.58,5.28-10.2,5.28-16.28,0-3.49-.65-6.84-1.83-9.92Z" style="fill: #ef7f18;"/>
  <path d="M163.1,203.75c.58,1.12,1.24,2.2,1.96,3.22l1.13-.55-3.09-2.67Z"/>
  <path d="M187.79,163.16s-.01,0-.02,0c-2.03,0-4.01.22-5.91.64.1.79.42,1.4.72,1.82.3.42.9,1.07,1.89,1.43.33.18.64.33.93.48.4.2.78.39,1.04.56,3.72,2.37,6.6,5.74,8.55,10.02l2.48,5.43,3.99-4.45c2.19-2.45,4.26-4.96,6.21-7.53-5.05-5.18-12.1-8.4-19.89-8.4Z" style="fill: #ef7f18;"/>
  <path d="M44.1,139.08l1.15-10.83-4.66.33c-.54.04-1.09.06-1.63.06-4.47,0-8.78-1.34-12.54-3.87,3.55,6.98,9.97,12.26,17.68,14.3Z" style="fill: #ef7f18;"/>
  <path d="M54.82,93.58c.07.09.23.32.35.48,1.26,1.76,2.46,3.41,4.72,3.41h.35s.33-.06.33-.06c1.45-.25,2.24-1.14,3.07-2.08.44-.49.95-1.09,1.39-1.62.28-.33.66-.78.75-.87.82-.86,1.66-1.71,2.52-2.54-4.72-3.7-10.66-5.9-17.11-5.9-.01,0-.02,0-.04,0-3.46,0-6.78.65-9.83,1.81l2.54.61c4.09.97,7.87,3.31,10.94,6.76Z" style="fill: #ef7f18;"/>
  <path d="M228.63,108.58l-5.75,2.53c-.66.29-1.27.6-1.85.89-.71.36-1.38.7-2.01.94-2.46.93-5.03,1.39-7.86,1.39-1.46,0-3-.12-4.7-.36l-3.85-.54-.31,2.1c5.1,6.24,12.85,10.22,21.52,10.22.04,0,.09,0,.13,0,1.19,0,2.36-.09,3.51-.24.45-3.31.75-6.84.91-10.66l.26-6.27Z" style="fill: #ef7f18;"/>
  <path d="M134.15,34.7l2.47,5.53c2.23,4.98,2.62,10.36,1.15,15.99l-1.27,4.88,5.04.02c5.12.02,10.14.55,14.96,1.57.82-2.62,1.27-5.41,1.27-8.31,0-7.43-2.93-14.18-7.69-19.17-3.26-.31-6.56-.47-9.88-.48l-6.06-.02Z" style="fill: #ef7f18;"/>
  <path d="M67.18,172.61c-.06,0-.11,0-.17,0v7.82c.06,0,.11,0,.17,0,11.02,0,19.98,8.97,19.98,19.98s-8.97,19.98-19.98,19.98c-.06,0-.11,0-.17,0v7.82c.06,0,.11,0,.17,0,15.33,0,27.81-12.47,27.81-27.81s-12.47-27.81-27.81-27.81Z" style="fill: #026984;"/>
  <path d="M47.2,200.41c0-10.96,8.87-19.89,19.82-19.98v-7.82c-15.26.09-27.64,12.53-27.64,27.8s12.38,27.71,27.64,27.8v-7.82c-10.94-.09-19.82-9.02-19.82-19.98Z" style="fill: #0f9fd1;"/>
  <path d="M47.2,200.41c0,10.96,8.87,19.89,19.82,19.98v-39.97c-10.94.09-19.82,9.02-19.82,19.98Z" style="fill: #54c3ea;"/>
  <path d="M67.18,220.4c11.02,0,19.98-8.97,19.98-19.98s-8.97-19.98-19.98-19.98c-.06,0-.11,0-.17,0v39.97c.06,0,.11,0,.17,0Z" style="fill: #0f9fd1;"/>
  <path d="M155.29,186.17c0-11.01,8.96-19.97,19.97-19.98v-7.82c-15.32,0-27.79,12.48-27.79,27.8s12.46,27.8,27.79,27.8v-7.82c-11.01,0-19.97-8.97-19.97-19.98Z" style="fill: #0f9fd1;"/>
  <path d="M175.27,158.36s-.01,0-.02,0v7.82s.01,0,.02,0c11.02,0,19.98,8.96,19.98,19.98s-8.96,19.98-19.98,19.98c0,0-.01,0-.02,0v7.82s.01,0,.02,0c15.33,0,27.8-12.47,27.8-27.8s-12.47-27.8-27.8-27.8Z" style="fill: #026984;"/>
  <path d="M175.27,206.15c11.02,0,19.98-8.96,19.98-19.98s-8.96-19.98-19.98-19.98c0,0-.01,0-.02,0v39.97s.01,0,.02,0Z" style="fill: #0f9fd1;"/>
  <path d="M155.29,186.17c0,11.01,8.96,19.97,19.97,19.98v-39.97c-11.01,0-19.97,8.97-19.97,19.98Z" style="fill: #54c3ea;"/>
  <path d="M18.71,107.4c0-11,8.94-19.96,19.94-19.98v-7.82c-15.31.02-27.76,12.48-27.76,27.8s12.45,27.78,27.76,27.8v-7.82c-11-.02-19.94-8.97-19.94-19.98Z" style="fill: #0f9fd1;"/>
  <path d="M66.49,107.4c0-15.33-12.47-27.8-27.8-27.8-.01,0-.02,0-.04,0v7.82s.02,0,.04,0c11.02,0,19.98,8.96,19.98,19.98s-8.96,19.98-19.98,19.98c-.01,0-.02,0-.04,0v7.82s.02,0,.04,0c15.33,0,27.8-12.47,27.8-27.8Z" style="fill: #026984;"/>
  <path d="M18.71,107.4c0,11,8.94,19.96,19.94,19.98v-39.95c-11,.02-19.94,8.97-19.94,19.98Z" style="fill: #54c3ea;"/>
  <path d="M38.69,127.38c11.02,0,19.98-8.96,19.98-19.98s-8.96-19.98-19.98-19.98c-.01,0-.02,0-.04,0v39.95s.02,0,.04,0Z" style="fill: #0f9fd1;"/>
  <path d="M239.11,93.15c0-15.28-12.4-27.73-27.67-27.8v7.82c10.96.07,19.85,9,19.85,19.98s-8.89,19.9-19.85,19.98v7.82c15.27-.07,27.67-12.51,27.67-27.8Z" style="fill: #026984;"/>
  <path d="M211.31,113.13c-11.02,0-19.98-8.96-19.98-19.98s8.96-19.98,19.98-19.98c.04,0,.09,0,.13,0v-7.82s-.09,0-.13,0c-15.33,0-27.8,12.47-27.8,27.8s12.47,27.8,27.8,27.8c.04,0,.09,0,.13,0v-7.82s-.09,0-.13,0Z" style="fill: #0f9fd1;"/>
  <path d="M231.29,93.15c0-10.97-8.89-19.9-19.85-19.98v39.95c10.96-.07,19.85-9,19.85-19.98Z" style="fill: #0f9fd1;"/>
  <path d="M191.33,93.15c0,11.02,8.96,19.98,19.98,19.98.04,0,.09,0,.13,0v-39.95s-.09,0-.13,0c-11.02,0-19.98,8.96-19.98,19.98Z" style="fill: #54c3ea;"/>
  <path d="M117.46,69.56c-11.02,0-19.98-8.96-19.98-19.98s8.96-19.98,19.98-19.98c.04,0,.09,0,.13,0v-7.82s-.09,0-.13,0c-15.33,0-27.8,12.47-27.8,27.8s12.47,27.8,27.8,27.8c.04,0,.09,0,.13,0v-7.82s-.09,0-.13,0Z" style="fill: #0f9fd1;"/>
  <path d="M117.59,21.78v7.82c10.96.07,19.85,9,19.85,19.98s-8.89,19.91-19.85,19.98v7.82c15.27-.07,27.67-12.51,27.67-27.8s-12.4-27.73-27.67-27.8Z" style="fill: #026984;"/>
  <path d="M97.48,49.58c0,11.02,8.96,19.98,19.98,19.98.04,0,.09,0,.13,0V29.6s-.09,0-.13,0c-11.02,0-19.98,8.96-19.98,19.98Z" style="fill: #54c3ea;"/>
  <path d="M137.44,49.58c0-10.97-8.89-19.91-19.85-19.98v39.96c10.96-.07,19.85-9,19.85-19.98Z" style="fill: #0f9fd1;"/>
</svg>