<?xml version="1.0" encoding="UTF-8"?>
<svg id="uuid-c56c0d6b-529b-42c4-a392-972e7f847573" data-name="Capa 1" xmlns="http://www.w3.org/2000/svg" width="250" height="250" viewBox="0 0 250 250">
  <path d="M185.85,141.01c-3.39-4.05-11.42-5.76-9.94,1.44.23,1.1,9.43,13.38,10.52,14.29,2.14,1.79,4.62,1.72,6.82.1,1.08-.8,10.15-13.09,10.42-14.39,1.5-7.18-6.56-5.5-9.94-1.44h0c0-13.05-10.58-23.62-23.62-23.62h-40.62v-11.25s-4.82.1-4.82.1v19.03h45.44c8.7,0,15.75,7.05,15.75,15.75h0Z" style="fill: #0b1210;"/>
  <path d="M120.35,106.33l.14,11.06h-41.62c-13.05,0-23.62,10.58-23.62,23.62h0c-3.39-4.06-11.44-5.74-9.94,1.44.27,1.3,9.34,13.58,10.42,14.39,2.17,1.61,4.74,1.6,6.92,0,.8-.59,10.28-13.51,10.41-14.38,1.13-7.35-6.52-5.41-9.93-1.44h0c0-8.7,7.05-15.75,15.75-15.75h45.8s0-19.03,0-19.03l-4.32.09Z" style="fill: #666;"/>
  <path d="M59.2,160.87l-48.93.06c-2.06.45-3.8,2.45-3.29,5.49,7.05,28.17,11.82,47.09,19.72,74.94h32.69v-7.39l-.19-73.11Z" style="fill: #d35464;"/>
  <path d="M59.21,160.88l.18,80.49h33.39c7.9-27.85,12.67-46.77,19.72-74.94.51-3.02-1.19-5.01-3.23-5.48l-50.07-.07Z" style="fill: #c1272d;"/>
  <path d="M189.87,160.87l-48.93.06c-2.06.45-3.8,2.45-3.29,5.49,7.05,28.17,11.82,47.09,19.72,74.94h32.69v-7.39l-.19-73.11Z" style="fill: #63ce6d;"/>
  <path d="M189.88,160.88l.18,80.49h33.39c7.9-27.85,12.67-46.77,19.72-74.94.51-3.02-1.19-5.01-3.23-5.48l-50.07-.07Z" style="fill: #39b54a;"/>
  <g>
    <path d="M145.47,12.83l-16.87,30.65c-2.23,4.05.7,9,5.32,9h16.35V9.72c-1.91.16-3.75,1.19-4.8,3.11Z" style="fill: #d35464;"/>
    <path d="M174.12,43.31l-18.11-30.65c-1.28-2.16-3.56-3.13-5.75-2.95v42.76h18.63c4.7,0,7.62-5.11,5.23-9.16Z" style="fill: #c1272d;"/>
  </g>
  <g>
    <path d="M96.87,61.23l-16.87,30.65c-2.23,4.05.7,9,5.32,9h16.13v-42.74c-1.83.22-3.57,1.25-4.58,3.09Z" style="fill: #d35464;"/>
    <path d="M107.41,61.07c-1.32-2.24-3.71-3.2-5.97-2.93v42.74h18.85c4.7,0,7.62-5.11,5.23-9.16l-18.11-30.65Z" style="fill: #c1272d;"/>
  </g>
  <g>
    <path d="M54.84,179.46l-16.87,30.65c-2.23,4.05.7,9,5.32,9h16.13v-42.74c-1.83.22-3.57,1.25-4.58,3.09Z" style="fill: #fff;"/>
    <path d="M65.39,179.29c-1.32-2.24-3.71-3.2-5.97-2.93v42.74h18.85c4.7,0,7.62-5.11,5.23-9.16l-18.11-30.65Z" style="fill: #fff;"/>
  </g>
  <g>
    <path d="M101.77,52.97c.07,0,.15-.01.22-.01V9.68c-.07,0-.15-.01-.22-.01-11.96,0-21.65,9.69-21.65,21.65s9.69,21.65,21.65,21.65Z" style="fill: #63ce6d;"/>
    <path d="M123.42,31.32c0-11.88-9.58-21.52-21.43-21.64v43.28c11.85-.12,21.43-9.76,21.43-21.64Z" style="fill: #39b54a;"/>
  </g>
  <g>
    <path d="M190.51,176.92c-.07,0-.15.01-.22.01v43.28c.07,0,.15.01.22.01,11.96,0,21.65-9.69,21.65-21.65s-9.69-21.65-21.65-21.65Z" style="fill: #fff;"/>
    <path d="M168.86,198.57c0,11.88,9.58,21.52,21.43,21.64v-43.28c-11.85.12-21.43,9.76-21.43,21.64Z" style="fill: #fff;"/>
  </g>
  <g>
    <path d="M150.97,101.57c.07,0,.15-.01.22-.01v-43.28c-.07,0-.15-.01-.22-.01-11.96,0-21.65,9.69-21.65,21.65s9.69,21.65,21.65,21.65Z" style="fill: #63ce6d;"/>
    <path d="M172.62,79.92c0-11.88-9.58-21.52-21.43-21.64v43.28c11.85-.12,21.43-9.76,21.43-21.64Z" style="fill: #39b54a;"/>
  </g>
</svg>