<?xml version="1.0" encoding="UTF-8"?>
<svg id="uuid-994f1127-dd21-4bae-aa30-d87d97d89e83" data-name="Capa 1" xmlns="http://www.w3.org/2000/svg" width="250" height="250" viewBox="0 0 250 250">
  <g>
    <path d="M207.5,107.52h-34.68v130.62h34.68c16.92,0,30.63-13.71,30.63-30.63v-69.35c0-16.92-13.71-30.63-30.63-30.63Z" style="fill: #c1272d;"/>
    <path d="M138.15,107.52c-16.92,0-30.63,13.71-30.63,30.63v69.35c0,16.92,13.71,30.63,30.63,30.63h34.68V107.52h-34.68Z" style="fill: #d35464;"/>
  </g>
  <path d="M42.5,11.87c-16.92,0-30.63,13.71-30.63,30.63v69.35c0,16.92,13.71,30.63,30.63,30.63h34.68V11.87h-34.68Z" style="fill: #63ce6d;"/>
  <g>
    <path d="M111.85,11.87h-34.68v58.7l32.27-32.27c3.43-3.44,9-3.44,12.44,0l5.14,5.14c3.44,3.44,3.44,9,0,12.44l-43.86,43.86-5.99,5.99v36.77h17.34v-4.34c0-24.06,19.57-43.64,43.63-43.64h4.33v-52.01c0-16.92-13.71-30.63-30.63-30.63Z" style="fill: #39b54a;"/>
    <path d="M65.59,82.15l-16.66-16.66c-3.43-3.43-9-3.43-12.44,0l-5.14,5.14c-3.43,3.43-3.43,9,0,12.44l16.66,16.66,11.36,11.36c3.43,3.44,9,3.44,12.44,0l5.37-5.37v-35.15l-11.59,11.59Z" style="fill: #fff;"/>
    <path d="M127.02,55.87c3.44-3.43,3.44-9,0-12.44l-5.14-5.14c-3.44-3.44-9-3.44-12.44,0l-32.27,32.27v35.15l5.99-5.99,43.86-43.86Z" style="fill: #a1dba2;"/>
  </g>
  <g>
    <path d="M198.05,215.62c3.44,3.44,9,3.44,12.44,0l5.14-5.14c3.44-3.44,3.44-9,0-12.44l-25.22-25.22,25.22-25.22c3.44-3.44,3.44-9,0-12.44l-5.14-5.14c-3.44-3.44-9-3.44-12.44,0l-25.22,25.22v35.15l25.22,25.22Z" style="fill: #e89eab;"/>
    <path d="M135.16,130.03l-5.14,5.14c-3.44,3.44-3.44,9,0,12.44l25.22,25.22-25.22,25.22c-3.44,3.44-3.44,9,0,12.44l5.14,5.14c3.44,3.44,9,3.44,12.44,0l25.22-25.22v-35.15l-25.22-25.22c-3.43-3.44-9-3.44-12.44,0Z" style="fill: #fff;"/>
  </g>
</svg>