<?xml version="1.0" encoding="UTF-8"?>
<svg id="uuid-e1d4aec2-dc69-406c-9185-991421fbc20b" data-name="Capa 1" xmlns="http://www.w3.org/2000/svg" width="250" height="250" viewBox="0 0 250 250">
  <path d="M243.69,144.68c0-1.17-.83-2.89-2.79-3.26-.45-.08-1.32.03-1.87,0-.29-.02-.66-.04-.93,0-.16.02-.35-.04-.47,0-1.94.72-.74-32.66,1.4-32.65,2.39.01,4.24-.11,4.66-2.8.07-.42.91-63.97.49-81.4-.26-10.68-6.4-17.69-17.28-18.4-2.14-.14-196.3-.3-206.14,0-6.84.21-10.94,4.42-13.52,10.73-.11.28-.33.51-.47.93-1.05,3.31-.91,4.55-.93,7.93-.42,67.88.33,135.98,0,203.57,1.03,7.08,5.99,12.93,13.05,14.23.88.07,210.01.61,210.98.41,6.9-1.41,13.25-7.72,13.81-14.87.05-.61-.02-75.89,0-84.41Z" style="fill: #c1272d;"/>
  <g>
    <path d="M93.98,15.02c-2.97.13-3.55-.41-3.26,3.26,0,.31-.02,58.62,0,64.36h34.17V15.17c-11.24-.05-22.91-.1-30.91-.15Z" style="fill: #fff;"/>
    <path d="M124.89,82.65h33.45s.48-67.35.48-67.35c0,0-16.45-.05-33.93-.13v67.48Z" style="fill: #e0e0e0;"/>
    <path d="M14.7,167.53s-.03,45.09,0,47.1c.11,7.66-2.11,19.21,8.21,20.47,1.73.21,13.69.34,26.42.41v-67.98H14.7Z" style="fill: #fff;"/>
    <path d="M49.33,167.53v67.98c15.89.09,32.99.11,32.99.11.13-.58,0-68.09,0-68.09h-32.99Z" style="fill: #e0e0e0;"/>
    <path d="M167.39,14.84l-.12,67.93,33.53-.09V14.52c-15.9.12-33.41.32-33.41.32Z" style="fill: #fff;"/>
    <path d="M234.85,24.1c-.04-6.01-4.13-9.5-9.86-9.63-3.3-.08-13.37-.03-24.19.05v68.15l34.02-.09s.12-43.08.02-58.48Z" style="fill: #e0e0e0;"/>
    <path d="M239.49,120.43c-.13-3.88-.47-11.66-.47-11.66-2.14-.01-3.45-.06-3.73-2.33-.09-.73.13-14.28-.05-14.87l-34.44-.14v67.7c14.9-.01,29.92-.04,33.73-.06.6-.16.67-.57.77-1.1.69-3.72-.51-9.34,0-13.29.42-.56.39-2.54,2.33-3.26.12-.04.3.02.47,0,.27-.04.64-.02.93,0v-11.66c-5.6-.35-6.15-9.3.47-9.33Z" style="fill: #e0e0e0;"/>
    <path d="M167.15,91.3s.03,67.53.05,67.84c.41.02,16.92,0,33.6,0v-67.7l-33.65-.13Z" style="fill: #fff;"/>
    <path d="M167.51,235.63s17.15.01,33.29-.05v-67.95l-33.72.31.42,67.69Z" style="fill: #fff;"/>
    <path d="M228.72,235.18c3.02-1.06,5.71-5.71,6.05-8.71,1.92-16.56-.08-59.16-.08-59.16l-33.9.31v67.95c14.01-.05,27.26-.17,27.92-.4Z" style="fill: #e0e0e0;"/>
  </g>
  <g>
    <polygon points="81.86 158.67 82.32 91.98 49.16 91.96 49.16 158.67 81.86 158.67" style="fill: #ef7f18;"/>
    <polygon points="14.69 158.67 49.16 158.67 49.16 91.96 14.95 91.94 14.69 158.67" style="fill: #f9a450;"/>
    <polygon points="91.18 168.46 91.18 235.62 125.18 235.62 125.18 168.23 91.18 168.46" style="fill: #f9a450;"/>
    <path d="M158.81,168l-33.63.23v67.39h33.63c.12-6.66,0-67.62,0-67.62Z" style="fill: #ef7f18;"/>
    <path d="M90.72,91.51l.46,67.62,34-.08v-67.78c-17.99.04-34.46.24-34.46.24Z" style="fill: #f9a450;"/>
    <path d="M158.34,91.51c-8.89-.22-21.35-.26-33.16-.24v67.78l33.06-.08s-.16-46.24.1-67.46Z" style="fill: #ef7f18;"/>
    <path d="M25.42,15.02c-1.49.09-4.96.42-6.17.97-.23.1-4.28,3.52-4.34,6.38,0,0-.21,57.94-.22,58.41-.14,1.51-.11,1.54,1.4,1.4h33.06s0-67.23,0-67.23c-11.83-.01-22.56,0-23.73.07Z" style="fill: #f9a450;"/>
    <path d="M82.32,15.03s-17.54-.06-33.17-.07v67.23h32.7s.42-66.7.46-67.16Z" style="fill: #ef7f18;"/>
  </g>
  <path d="M44.69,204.69c-4.6-4.25,1.68-11.54,6.88-7.11,4.81,4.09-2.15,11.49-6.88,7.11Z" style="fill: #39b54a;"/>
  <path d="M123.23,45.91c8.87-2.02,8.25,9.76,1.31,9.25-5.19-.38-5.97-8.19-1.31-9.25Z" style="fill: #39b54a;"/>
  <path d="M57.84,138.61c-1.36-.44-9.23,0-11.43,0l-.11-33.72c-.51-2.63-8.3-3.68-8.77-.11-.81,6.16.06,15.83.04,22.43-.01,3.97-.18,7.02,0,11.15.12,2.85-.18,5.75.03,8.6h20.89c.74-1.41.76-7.89-.65-8.35Z" style="fill: #a324aa;"/>
  <path d="M62.16,201.15c0-7.76-6.29-14.05-14.05-14.05s-14.05,6.29-14.05,14.05,6.29,14.05,14.05,14.05,14.05-6.29,14.05-14.05ZM44.69,204.69c-4.6-4.25,1.68-11.54,6.88-7.11,4.81,4.09-2.15,11.49-6.88,7.11Z" style="fill: #a324aa;"/>
  <path d="M133.45,179.71c-1.75,2.88-8.68,13.98-8.68,13.98,0,0-6.53-11.92-8.07-13.67-3.07-3.5-10.33.7-7.05,6.57,2.6,4.65,7.55,10.6,10.24,15.41,1.16,5.8-.9,14.28.31,19.75.74,3.37,8.52,2.51,9.14.48.89-5.77-.93-13.93.2-19.39.81-3.93,8.56-12.58,10.72-16.79,2.88-5.59-3.56-9.56-6.81-6.34Z" style="fill: #a324aa;"/>
  <path d="M130.58,107.37c-.37-.84-1.3-3.07-1.77-3.59-1.85-2.06-7.66-1.48-8.97,1.7-4.57,11.05-9.24,23.59-13.51,34.52-1.88,4.82-.99,8.37,5.58,7.45,3-.42,3.21-4.62,4.12-7.52.51-1.61,2.8-.82,3.86-.82,1.87,0,10.12-.76,12.51-.43,2.79,4.61-.09,9.74,7.48,8.75,6.13-.8,2.99-6.89,1.68-10.93-2.88-8.84-7.24-20.66-10.98-29.13ZM120.1,129.75c1.41-3.65,2.66-7.51,4.2-11.65l5.12,12.12-9.33-.47Z" style="fill: #a324aa;"/>
  <path d="M124.95,64.4c7.74,0,14.02-6.28,14.02-14.02s-6.28-14.02-14.02-14.02-14.02,6.28-14.02,14.02,6.28,14.02,14.02,14.02ZM123.23,45.91c8.87-2.02,8.25,9.76,1.31,9.25-5.19-.38-5.97-8.19-1.31-9.25Z" style="fill: #a324aa;"/>
  <path d="M187.96,36.94c1.88.57,6.4-.42,8.63,0v34.74c0,1.62,8.86,1.9,8.86-.93v-33.81h8.16c2.24,0,2-6.69.94-7.93-.31-.37-5.53-.97-6.53-.97-1.44,0-17.69-.71-19.96.6-1.99,1.15-1.61,7.84-.09,8.3Z" style="fill: #a324aa;"/>
  <path d="M39.18,73.83c8.06-.14,4.07-10.79,4.62-15.69,14.53,1.07,24.89-8.55,18.8-21.29-4.1-8.58-14.51-9.13-22.95-8.29-4.6.46-5.07,1.93-5.39,6.27-.67,9.09-.72,24.56,0,33.62.29,3.58.91,5.45,4.91,5.38ZM54.77,42.34c1.11,7.1-6.1,6.64-11.16,6.74.31-3.77.04-7.41,0-11.2,4.1.15,10.31-1.01,11.16,4.46Z" style="fill: #a324aa;"/>
  <path d="M239.49,120.43c-6.62.03-6.06,8.98-.47,9.33,6.73.42,7-9.35.47-9.33Z" style="fill: #a324aa;"/>
  <path d="M211.27,147.01h7.46s.7-.65.7-.7v-41.51c0-.26-1.8-1.73-2.31-1.89-1.89-.59-6.56-.06-6.56,2.36v14.69h-15.86v-14.69c0-2.62-8.19-5.16-9.21,1.99.41,11.65-.97,24.27-.14,35.8.08,1.13.26,3.95,1.65,3.95h7s.7-.65.7-.7v-17.49h15.86v17.49s.65.7.7.7Z" style="fill: #a324aa;"/>
  <path d="M195.96,213.52c5.94,3.25,13.35,1.79,17.63-3.46,4.28-5.25,4.2-12.8-.18-17.96-4.38-5.16-11.82-6.47-17.69-3.1-5.88,3.36-8.52,10.44-6.28,16.83,1.15,3.28,3.47,6.02,6.53,7.69ZM202.73,196.31c2.67,0,4.83,2.16,4.83,4.83s-2.16,4.83-4.83,4.83-4.83-2.16-4.83-4.83,2.16-4.83,4.83-4.83Z" style="fill: #a324aa;"/>
  <circle cx="202.73" cy="201.14" r="4.83" style="fill: #39b54a;"/>
</svg>