<?xml version="1.0" encoding="UTF-8"?>
<svg id="uuid-c7f3a4e3-16ff-440d-b73f-e0420602e302" data-name="Capa 1" xmlns="http://www.w3.org/2000/svg" width="250" height="250" viewBox="0 0 250 250">
  <path d="M127.31,6.03c-11.29-.21-22.81,1.18-34.25,4.37C29.77,28.04-7.24,93.64,10.4,156.94c14.94,53.6,64.28,88.35,117.48,87.02l-.57-237.93Z" style="fill: #d35464;"/>
  <path d="M239.6,93.06C225.15,41.21,178.5,7,127.31,6.03l.57,237.93c9.62-.24,19.37-1.65,29.06-4.36,63.29-17.64,100.3-83.25,82.66-146.54Z" style="fill: #c1272d;"/>
  <g>
    <rect x="93.59" y="48.84" width="64.83" height="111.57" style="fill: #0f9fd1;"/>
    <g>
      <path d="M98.45,41.72c13.24-.15,26.38.21,39.65.1,3.54-.03,9.55-.23,13.39.12,8.06.74,11.6,6.42,11.72,14.4.49,30.61.16,65.49-.65,96.7-.22,11.01-4.89,13.18-14.82,13.87-13.42.94-32.75.33-47.58-.53-7.4-1.28-13.2-6.47-13.54-14.23.56-30.49-.43-64.39.05-94.44.12-7.44,3.48-15.9,11.77-16ZM97.07,54.22l.25,94.32c.01,4.12,3.33,7.46,7.45,7.49l40.08.35c4.18.04,7.58-3.34,7.58-7.51l-.03-93.95c0-2.23-1.5-3.46-3.72-3.32-1.85.12-3.03.59-3.4,2.07-.6,2.4-1.04,9.16-4.33,9.53-5.55.64-25.67.87-31.2.03-3.6-.55-4.86-7.95-5.4-10.3-.36-1.54-2.76-1.83-4.22-1.81-1.69.02-3.05,1.41-3.04,3.1Z" style="fill: #fff;"/>
      <path d="M111.85,185.22c-2.84-2.67-8-4.77-8.71-5.98-1.95-3.34,1.66-8.8,5.59-7.99,1.27.26,19.77,14.17,20.83,15.06,1.95,1.65,1.99,5.69-.05,7.65-4.06,3.18-18.59,17.02-23.13,15.88-2.23-.56-4.74-4.62-4.05-7.01.75-2.62,7.57-5.72,9.39-8.63-21.47.32-66.27-12.39-69.61-37.69-1.5-11.36,5.79-28.22,15.26-23.61,6.87,3.34-3.2,10.19-3.99,15.01-1.76,10.73,4.89,18.42,12.83,23.37,12.66,7.89,31.12,12.1,45.65,13.95Z" style="fill: #fff;"/>
      <path d="M200.72,134.4c2.05,1.87,5.68,8.81,6.5,11.54,8.52,28.28-32.71,43.81-53.97,47.24-2.68.43-13.99,1.83-15.67.19-1.46-1.43-1.35-7.45.97-8.66,3.59-1.87,15.96-2.54,21.02-3.71,13.66-3.17,42.84-14.67,37.34-33.09-1.34-4.47-10.72-9.97-5.11-14.29,3.05-2.35,6.22-1.68,8.91.77Z" style="fill: #fff;"/>
    </g>
  </g>
  <rect x="110.33" y="50.27" width="29.33" height="5.73" rx="2.87" ry="2.87" style="fill: #a324aa;"/>
</svg>