<?xml version="1.0" encoding="UTF-8"?>
<svg id="uuid-878bf6ef-fa1a-4c92-b2f1-44c6b5b959c6" data-name="Capa 1" xmlns="http://www.w3.org/2000/svg" width="250" height="250" viewBox="0 0 250 250">
  <path d="M67.88,50.48c0-2.61-.62-4.62-1.85-6.03-1.23-1.41-2.95-2.12-5.15-2.12-.28,0-.55.01-.81.04v18.84c1.73-.51,3.23-1.32,4.47-2.46,2.23-2.05,3.34-4.8,3.34-8.27Z" style="fill: none;"/>
  <path d="M145.66,143.92c-4.72,0-8.58,3.86-8.58,8.58v80.3c0,4.72,3.86,8.58,8.58,8.58h9.72v-97.46h-9.72Z" style="fill: #f9a450;"/>
  <path d="M166.8,143.92h-11.42v97.46h11.42c4.72,0,8.58-3.86,8.58-8.58v-80.3c0-4.72-3.86-8.58-8.58-8.58Z" style="fill: #ef7f18;"/>
  <path d="M225.96,143.92h-10.49v97.46h10.49c4.72,0,8.58-3.86,8.58-8.58v-80.3c0-4.72-3.86-8.58-8.58-8.58Z" style="fill: #ef7f18;"/>
  <path d="M204.82,143.92c-4.72,0-8.58,3.86-8.58,8.58v80.3c0,4.72,3.86,8.58,8.58,8.58h10.65v-97.46h-10.65Z" style="fill: #f9a450;"/>
  <path d="M96.34,143.92h-36.27v97.46h36.27c6.6,0,12-5.4,12-12v-73.46c0-6.6-5.4-12-12-12Z" style="fill: #c1272d;"/>
  <path d="M22.88,143.92c-6.6,0-12,5.4-12,12v73.46c0,6.6,5.4,12,12,12h37.19v-97.46H22.88Z" style="fill: #d35464;"/>
  <path d="M145.09,9.67c-5.17-2.98-11.62.75-11.62,6.71v104.11c0,5.96,6.46,9.69,11.62,6.71l28.69-16.56V26.23l-28.69-16.56Z" style="fill: #63ce6d;"/>
  <path d="M235.25,61.73l-61.47-35.49v84.4l61.47-35.49c5.17-2.98,5.17-10.44,0-13.42Z" style="fill: #39b54a;"/>
  <path d="M55.46,61.82c-1.26-.05-2.61-.2-4.05-.44-1.44-.24-3-.57-4.68-1v23.57c3.82-1.54,8.02-2.35,12.58-2.35.26,0,.5.02.76.03v-20.44c-1.38.4-2.91.62-4.61.62Z" style="fill: #54c3ea;"/>
  <path d="M27.86,21.6c-8.39,7.48-13,17.61-13.84,30.39l39.63-.08c.21-3.3.89-5.72,2.04-7.27,1.01-1.36,2.47-2.12,4.37-2.28V10.39c-13.22.12-23.96,3.85-32.21,11.21Z" style="fill: #54c3ea;"/>
  <path d="M79.98,88.91c5.35-1.78,10.07-4.39,14.16-7.88,8.33-7.11,12.5-16.41,12.5-27.92,0-12.62-4.25-22.89-12.74-30.83-8.49-7.93-19.55-11.9-33.18-11.9-.22,0-.44,0-.66.01v31.97c.26-.02.53-.04.81-.04,2.2,0,3.92.71,5.15,2.12,1.23,1.41,1.85,3.42,1.85,6.03,0,3.46-1.11,6.22-3.34,8.27-1.24,1.14-2.74,1.95-4.47,2.46v20.44c7.59.15,14.21,2.5,19.67,7.05.09.07.16.15.24.22Z" style="fill: #0f9fd1;"/>
  <path d="M59.31,88.72c-6.29,0-11.6,1.8-15.92,5.39-4.32,3.59-6.49,7.95-6.49,13.06s2.17,9.57,6.53,13.22c4.35,3.65,9.64,5.47,15.88,5.47.26,0,.5-.02.76-.03v-37.08c-.25,0-.5-.03-.76-.03Z" style="fill: #54c3ea;"/>
  <path d="M81.72,107.16c0-5.06-2.18-9.4-6.53-13.02-4.17-3.47-9.22-5.26-15.12-5.4v37.08c5.9-.14,10.95-1.95,15.12-5.44,4.35-3.65,6.53-8.05,6.53-13.22Z" style="fill: #0f9fd1;"/>
</svg>