<?xml version="1.0" encoding="UTF-8"?>
<svg id="uuid-e4cd9011-d5f5-4be7-a7e9-0018cf13ed04" data-name="Capa 1" xmlns="http://www.w3.org/2000/svg" width="250" height="250" viewBox="0 0 250 250">
  <path d="M185.26,20.06c.69.39,1.36.81,2.02,1.23-.66-.42-1.34-.83-2.02-1.23Z" style="fill: none;"/>
  <path d="M184.54,19.67c-.25-.15-.5-.28-.74-.42-7.63-4.26-15.92-6.26-24.08-6.22,8.16-.04,16.44,1.97,24.08,6.22.24.15.49.27.74.42Z" style="fill: none;"/>
  <path d="M141.73,19.6s.02.02.02.02c0,0-.02-.02-.02-.02Z" style="fill: #ecb42a;"/>
  <path d="M143.21,21.09s-.04-.04-.06-.07l.06.07Z" style="fill: #ecb42a;"/>
  <path d="M223.48,166.04s-.01,0-.02.01c0,0,.01,0,.02-.01Z" style="fill: #d01441;"/>
  <path d="M221.78,167.09s-.06.03-.09.05c.03-.02.06-.03.09-.05Z" style="fill: #d01441;"/>
  <path d="M210.6,188.73c.02-.66.03-1.32.02-1.98,0-.03,0-.06,0-.09-.05-4.75-.79-9.53-2.26-14.19-3.53.83-7.19,1.3-10.97,1.33-3.49.02-6.88-.31-10.15-.97-17.56-3.55-31.74-16.49-37.06-33.4-.62.15-1.25.31-1.87.49-.29.08-.58.17-.87.26-.42.12-.83.25-1.25.39-.28.09-.56.19-.85.28-.05.02-.1.04-.15.05-.02.19-.03.38-.04.58-.03.43-.05.85-.07,1.27-.01.31-.03.62-.03.93-.01.64-.02,1.28,0,1.92,0,0,0,.02,0,.03,0,0,0,0,0,0,0,0,0,0,0,0,0,.36.03.71.04,1.07.02.37.03.75.05,1.12.02.37.06.74.09,1.12.03.36.06.71.1,1.07.04.37.08.74.13,1.11.05.36.1.71.16,1.07.06.36.11.72.17,1.08.07.4.15.8.24,1.2.11.55.23,1.1.36,1.64.1.4.19.81.3,1.21.09.34.19.68.29,1.02.1.36.21.71.32,1.06.11.34.22.68.33,1.02.06.18.12.35.19.53-.04-.1-.07-.21-.11-.32.04.11.07.21.11.32.06.17.12.35.18.52.12.33.24.65.36.98.15.38.3.75.46,1.13.12.29.23.57.36.86.27.62.55,1.23.85,1.83.13.27.28.54.41.81.19.37.38.74.58,1.11.16.29.32.57.48.85.2.35.4.69.61,1.04.17.28.33.55.51.82.23.36.46.72.7,1.08.16.24.32.49.48.72.39.57.8,1.13,1.21,1.68.12.16.25.31.37.47.32.41.64.82.98,1.23.18.22.37.44.56.65.29.34.58.67.88,1,.2.22.4.44.6.65.31.33.63.66.95.98.19.19.38.39.58.58.41.4.84.8,1.26,1.18.11.1.22.2.33.3.54.48,1.09.94,1.65,1.4.18.15.37.29.55.44.39.31.79.62,1.2.92.22.16.44.32.67.48.29.2.58.4.87.6-.2-.14-.39-.27-.59-.41.2.14.39.27.59.41.11.07.21.15.32.22.22.15.45.3.67.45.45.29.91.58,1.38.86.17.11.35.21.52.32.64.37,1.29.74,1.95,1.08.15.08.3.15.44.22.52.27,1.05.53,1.59.78.24.11.47.21.71.32.46.21.93.41,1.4.6.25.1.51.21.77.31.49.19.99.38,1.49.55.23.08.46.17.69.24.73.25,1.47.48,2.21.7,0,0,0,0,0,0,0,0,0,0,0,0,0,0,0,0,.01,0,.89.25,1.78.48,2.67.68.18.04.37.07.55.11.74.16,1.48.31,2.22.43.14.02.28.04.42.07.81.13,1.62.24,2.43.33.06,0,.11.01.17.02,0,0,.02,0,.03,0,.9.09,1.79.16,2.68.21h0s0,0,0,0c4.85.24,9.64-.25,14.22-1.4.03,0,.06-.01.09-.02.63-.16,1.25-.33,1.86-.51.05-.01.09-.03.14-.04.79-.24,1.58-.5,2.36-.77.06-.75.1-1.5.13-2.25,0,0,0-.02,0-.02ZM145.27,149.25c.02.18.03.35.05.53-.02-.18-.03-.35-.05-.53ZM145.81,153.3c.02.1.04.19.06.28-.02-.1-.04-.19-.06-.28ZM150.74,167.6c.08.15.15.3.23.44-.08-.15-.15-.29-.23-.44ZM152.71,171c.1.16.2.31.3.47-.1-.16-.2-.31-.3-.47ZM155.01,174.34s0,0,.01.01c0,0,0,0-.01-.01ZM157.23,177.05c.14.16.28.32.43.49-.14-.16-.28-.32-.43-.49ZM162.82,182.5c.11.09.21.18.32.27-.11-.09-.21-.18-.32-.27ZM169.4,187.11c.11.06.22.12.33.18-.11-.06-.22-.12-.33-.18ZM172.65,188.83c.19.09.38.19.57.28-.19-.09-.38-.19-.57-.28ZM176.44,190.48c.23.09.46.17.69.26-.23-.09-.46-.17-.69-.26Z" style="fill: #35aa9f;"/>
  <path d="M246,121.19c-.04-.53-.08-1.05-.13-1.57-.03-.3-.07-.59-.1-.89-.06-.48-.12-.95-.19-1.43-.05-.31-.09-.61-.15-.91-.08-.46-.17-.93-.26-1.39-.06-.3-.12-.59-.18-.89-.11-.48-.22-.96-.34-1.43-.07-.26-.13-.53-.2-.79-.17-.63-.35-1.25-.55-1.87-.07-.21-.13-.42-.2-.63-.19-.59-.39-1.17-.61-1.75-.11-.29-.23-.58-.34-.87-.16-.4-.31-.8-.48-1.19-.14-.32-.28-.64-.42-.96-.16-.35-.32-.71-.49-1.05-.16-.33-.32-.66-.49-.99-.16-.33-.33-.65-.51-.97-.18-.34-.36-.67-.55-1-.17-.3-.34-.59-.51-.88-.2-.35-.41-.69-.62-1.03-.14-.22-.28-.43-.42-.65-.53-.82-1.08-1.62-1.66-2.4-.09-.12-.18-.25-.27-.37-.3-.39-.6-.78-.91-1.16-.14-.18-.28-.35-.42-.53-.31-.38-.63-.75-.95-1.12-.14-.17-.29-.33-.44-.49-.34-.37-.68-.74-1.02-1.11-.13-.14-.26-.27-.4-.41-.37-.38-.75-.76-1.14-1.13-.08-.08-.16-.15-.24-.23-1.83-1.74-3.79-3.33-5.87-4.78-.02.12-.04.24-.07.36-1.21,5.98-3.53,11.78-6.97,17.06-1.98,3.03-4.31,5.9-7.02,8.52-15.91,15.35-39.51,17.83-57.89,7.65,0,0,0,0,0,0-1.43-.79-2.83-1.67-4.19-2.61-.01.07-.03.13-.04.2-.1.55-.2,1.1-.28,1.65-.03.16-.06.32-.08.49-.1.71-.18,1.42-.25,2.13-.02.23-.04.47-.06.7-.05.54-.08,1.08-.11,1.63-.01.23-.02.45-.03.68-.03.75-.05,1.51-.04,2.27,0,.67.03,1.34.06,2,.01.28.04.56.06.84,0,.13.02.26.03.38.02.21.03.41.05.62.32,3.64,1.05,7.17,2.11,10.54h0s-.02,0-.03,0c0,0,0,0,0,0,5.31,16.91,19.49,29.85,37.06,33.4,3.27.66,6.66,1,10.15.97,3.78-.03,7.45-.5,10.97-1.33h0s0,0,0,0c4.75-1.12,9.23-2.94,13.34-5.33.03-.02.06-.03.09-.05.57-.33,1.13-.68,1.69-1.03,0,0,.01,0,.02-.01,2.78-1.78,5.36-3.84,7.72-6.12.1-.1.2-.19.3-.29.38-.38.75-.76,1.12-1.15.13-.14.26-.27.39-.41.35-.38.69-.76,1.03-1.14.14-.16.27-.31.4-.47.33-.39.65-.77.97-1.17.12-.15.23-.3.34-.44,1.01-1.29,1.95-2.64,2.83-4.03.15-.23.3-.46.44-.7.21-.35.41-.7.62-1.06.17-.29.33-.58.49-.87.19-.34.36-.68.54-1.03.16-.32.33-.64.48-.96.16-.33.32-.67.48-1.01.16-.35.32-.7.47-1.06.14-.32.28-.64.41-.97.16-.4.32-.81.47-1.22.06-.16.12-.32.18-.48-.33-5.01-1.44-9.89-3.23-14.49-1.07-2.76-2.39-5.41-3.94-7.93,1.54,2.52,2.86,5.17,3.94,7.93,1.79,4.59,2.89,9.47,3.23,14.49.05-.13.1-.25.14-.38.24-.69.47-1.38.69-2.08.05-.18.1-.36.15-.54.16-.55.32-1.1.46-1.65.07-.28.13-.56.2-.84.11-.47.22-.93.31-1.4.06-.3.12-.6.17-.91.08-.46.16-.92.24-1.38.05-.31.09-.62.14-.93.06-.47.12-.95.17-1.42.03-.3.07-.6.09-.9.05-.52.08-1.05.11-1.58.01-.26.03-.51.04-.77.03-.78.05-1.57.04-2.37h0c0-.79-.03-1.58-.08-2.36-.01-.26-.04-.51-.06-.77Z" style="fill: #63ce6d;"/>
  <path d="M203.54,87.06c-10.77,18.87-32.18,27.87-52.38,23.79-.4-.08-.8-.18-1.2-.27-.18.62-.36,1.24-.52,1.87-.07.29-.14.58-.21.87-.1.43-.2.86-.29,1.29-.05.22-.09.44-.13.67,1.36.94,2.76,1.82,4.19,2.61,0,0,0,0,0,0h0c18.38,10.18,41.98,7.7,57.89-7.65,2.71-2.62,5.04-5.49,7.02-8.52,3.44-5.28,5.77-11.07,6.97-17.06.02-.12.04-.24.07-.36-.6-.42-1.21-.82-1.83-1.21-.04-.03-.09-.06-.13-.08-.54-.34-1.09-.67-1.65-.99-.03-.02-.06-.03-.09-.05-4.11-2.33-8.58-4.09-13.31-5.17,0,0,0,0,0,0-1.05,3.5-2.5,6.95-4.39,10.26Z" style="fill: #39b54a;"/>
  <path d="M209.95,60.57s0-.05,0-.07c-.15-3.28-.63-6.53-1.43-9.71-.03-.12-.06-.25-.09-.37-.13-.52-.28-1.03-.43-1.55-.05-.18-.11-.36-.16-.55-.15-.49-.3-.97-.47-1.45-.07-.2-.14-.4-.21-.6-.17-.47-.34-.94-.52-1.41-.07-.19-.15-.38-.23-.57-.61-1.51-1.29-2.99-2.05-4.43-.13-.24-.25-.48-.38-.72-.19-.36-.4-.71-.6-1.06-.17-.29-.34-.58-.51-.87-.2-.33-.41-.65-.61-.98-.2-.31-.39-.61-.59-.91-.21-.31-.41-.61-.63-.91-.22-.32-.45-.63-.68-.94-.21-.28-.42-.56-.63-.84-.26-.34-.54-.68-.81-1.01-.2-.24-.39-.48-.59-.72-.06-.07-.12-.14-.18-.21-.39-.45-.78-.9-1.18-1.34-.14-.15-.28-.29-.41-.43-.41-.43-.83-.86-1.26-1.29-.2-.2-.41-.38-.61-.58-.35-.33-.7-.66-1.07-.99-.23-.2-.46-.4-.69-.6-.35-.3-.71-.61-1.08-.9-.24-.2-.48-.39-.73-.58-.38-.29-.76-.58-1.15-.86-.24-.18-.48-.35-.73-.53-.43-.3-.87-.6-1.31-.89-.21-.14-.42-.28-.64-.42-.66-.42-1.34-.83-2.02-1.23-.25-.13-.47-.27-.72-.4-.25-.15-.5-.28-.74-.42-7.63-4.26-15.92-6.26-24.08-6.22-2.72.01-5.43.25-8.09.71-.67.11-1.33.24-1.99.38-3.52.75-6.95,1.9-10.24,3.4.79.67,1.57,1.36,2.33,2.08,0,0,.02.02.02.02.48.46.94.93,1.4,1.4.02.02.04.04.06.07,3.28,3.43,6.08,7.36,8.28,11.71,0,0,0,0,0,.01h0c1.64,3.25,2.96,6.72,3.87,10.41,5.29,21.44-4.41,43.08-22.42,53.88.3.59.62,1.18.94,1.76-.33-.58-.64-1.17-.94-1.76-.56.34-1.13.66-1.7.97-.26.14-.53.28-.8.42-.38.2-.77.4-1.16.59-.27.13-.53.26-.8.39-.1.05-.2.1-.29.14,2.38,2.01,4.95,3.84,7.77,5.41.13.08.29.16.43.24.04.03.11.07.16.1.02,0,.03.02.05.03.53.3,1.07.6,1.61.88.45.24.91.46,1.37.68.01,0,.02.01.04.02.07.03.14.07.21.11,3.3,1.56,6.71,2.7,10.15,3.49,0,0,0,.02,0,.02h0c.4.09.8.19,1.2.27,20.2,4.08,41.61-4.92,52.38-23.79,1.89-3.31,3.34-6.76,4.39-10.26h0c1.4-4.66,2.07-9.44,2.06-14.18,0-.03,0-.07,0-.1,0-.65-.02-1.31-.05-1.96Z" style="fill: #f9a450;"/>
  <path d="M110.26,19.41s.09.04.13.06c-.04-.02-.09-.04-.13-.06Z" style="fill: #6187e8;"/>
  <path d="M112.09,20.38s.06.03.08.05c-.03-.02-.05-.03-.08-.05Z" style="fill: #6187e8;"/>
  <polygon points="123.49 29.16 123.49 29.16 123.49 29.16 123.49 29.16" style="fill: #d35464;"/>
  <path d="M137.2,61.06c0-.16-.02-.31-.03-.47-.02-.42-.05-.83-.08-1.25-.01-.15-.02-.3-.03-.46-.06-.72-.15-1.43-.24-2.14-.03-.23-.07-.47-.1-.7-.07-.5-.15-.99-.24-1.49-.05-.27-.1-.54-.15-.81-.09-.47-.19-.94-.3-1.41-.06-.26-.12-.52-.18-.79-.13-.53-.27-1.05-.42-1.57-.05-.2-.1-.39-.16-.59-.05-.16-.11-.32-.15-.48-.17-.55-.34-1.1-.52-1.64-.05-.15-.11-.31-.17-.46-.13-.36-.27-.73-.41-1.09-.07-.19-.14-.38-.21-.57-.1-.24-.2-.48-.3-.72-.2-.47-.4-.94-.61-1.41-.11-.25-.23-.5-.34-.74-.23-.48-.47-.96-.71-1.43-.11-.22-.22-.43-.33-.65-.36-.68-.74-1.36-1.13-2.02,0,0,0,0,0,0,0,0,0,0,0-.01-.47-.79-.97-1.57-1.48-2.32-.06-.09-.13-.18-.19-.27-.04-.06-.09-.13-.13-.19-.43-.62-.87-1.24-1.32-1.83h0c-.09-.11-.17-.22-.26-.34-.5-.65-1.02-1.29-1.55-1.9-.04-.05-.08-.1-.13-.15,0,0,0,0,0,0-.59-.68-1.19-1.34-1.81-1.99,0,0,0,0,0,0-3.37-3.5-7.19-6.42-11.31-8.73-.03-.02-.06-.03-.08-.05-.56-.31-1.13-.62-1.71-.91-.04-.02-.09-.04-.13-.06-2.92-1.47-5.98-2.64-9.12-3.51-.11-.03-.21-.06-.32-.09-.52-.14-1.04-.26-1.56-.39-.18-.04-.37-.09-.55-.13-.49-.11-.99-.21-1.48-.3-.21-.04-.43-.08-.64-.12-.48-.08-.97-.17-1.45-.24-.22-.03-.44-.06-.66-.09-.49-.06-.98-.13-1.47-.18-.14-.01-.27-.02-.41-.03-.99-.09-1.98-.15-2.97-.18-.26,0-.52-.02-.77-.03-.4,0-.8,0-1.21,0-.34,0-.68,0-1.01.01-.38.01-.76.03-1.15.05-.36.02-.72.04-1.09.07-.37.03-.73.06-1.1.1-.39.04-.77.08-1.16.13-.35.04-.69.08-1.04.13-.42.06-.85.13-1.27.21-.21.04-.41.07-.62.11-.09.06-.18.13-.27.19.09-.06.17-.13.26-.19-.1.02-.2.03-.29.05-.61.12-1.23.25-1.84.39-.21.05-.41.1-.62.15-.63.15-1.25.32-1.88.5-.26.08-.52.16-.79.24-.47.14-.93.29-1.4.45-.29.1-.57.2-.86.3-.44.16-.88.32-1.32.5-.29.11-.57.23-.86.35-.44.18-.88.37-1.32.57-.27.12-.55.24-.82.37-.48.22-.95.46-1.42.7-.23.12-.45.23-.68.35-.69.37-1.38.75-2.06,1.16-.63.37-1.24.76-1.85,1.15-1.81,1.19-3.52,2.48-5.13,3.86-1.07.92-2.09,1.88-3.07,2.88-7.88,8.06-12.6,18.48-13.71,29.38,0,.06,0,.12-.02.18.04-.01.07-.03.11-.04.43-.15.87-.3,1.3-.44.3-.1.59-.19.89-.28.65-.19,1.29-.38,1.95-.55.35-.09.7-.17,1.04-.25.36-.09.73-.17,1.1-.25.4-.08.79-.16,1.19-.24.32-.06.63-.11.95-.16,1.5-.25,3.02-.42,4.54-.53.25-.02.5-.04.75-.05.48-.03.96-.05,1.45-.06.22,0,.44,0,.66,0,1.11-.01,2.23,0,3.35.07,0,0,.01,0,.02,0,3.64.21,7.32.83,10.97,1.89,21.2,6.2,35.02,25.43,35.32,46.41h0c0,.67,0,1.34-.02,2.01,0,.28-.02.56-.03.84-.02.46-.05.92-.08,1.38-.02.28-.04.56-.07.84-.01.14-.02.28-.04.43,2.93-1.05,5.8-2.38,8.58-4.04.97-.57,1.9-1.19,2.81-1.81.19-.13.37-.26.56-.39.03-.02.07-.05.1-.07.89-.64,1.76-1.29,2.6-1.97,0,0,0,0,0,0,.87-.71,1.7-1.45,2.5-2.21.15-.14.3-.29.45-.43.79-.76,1.55-1.53,2.28-2.33,0,0,0,0,0,0,0,0,0,0,0,0,.24-.26.47-.54.7-.81.25-.28.49-.56.73-.85.24-.29.47-.58.7-.87.22-.28.44-.56.66-.85.22-.3.45-.6.66-.9.21-.29.42-.59.62-.89.21-.3.41-.6.61-.9.2-.3.39-.62.58-.92.03-.04.05-.08.08-.12.29-.47.58-.95.85-1.43.21-.36.42-.72.61-1.09.17-.31.33-.63.49-.94.17-.33.34-.66.5-.99.15-.32.31-.64.45-.97.15-.34.3-.68.45-1.02.14-.32.27-.64.4-.96.15-.38.3-.76.44-1.14.11-.29.22-.57.32-.86.23-.63.44-1.27.64-1.92.09-.29.17-.58.25-.87.12-.4.23-.8.34-1.2.08-.32.16-.63.24-.95.09-.39.18-.78.27-1.17.07-.31.13-.63.2-.95.08-.42.16-.84.23-1.27.05-.28.1-.57.14-.85.1-.68.19-1.36.27-2.04,0,0,0,0,0-.01.02-.2.03-.4.05-.6.05-.52.1-1.04.13-1.56.02-.29.03-.57.04-.86.02-.44.04-.89.05-1.33,0-.3,0-.59,0-.89,0-.45,0-.91-.02-1.36,0-.27-.01-.55-.02-.82Z" style="fill: #d35464;"/>
  <path d="M151.5,32.82h0s0,0,0-.01c-2.2-4.35-5-8.28-8.28-11.71l-.06-.07c-.46-.48-.92-.95-1.4-1.4,0,0-.02-.02-.02-.02-.75-.72-1.53-1.41-2.33-2.08-4.1,1.88-7.96,4.32-11.45,7.3-1.57,1.34-3.06,2.79-4.47,4.35,0,0,0,0,0,0,.62.64,1.22,1.31,1.81,1.99.04.05.08.1.13.15.53.62,1.04,1.25,1.55,1.9.09.11.18.22.26.34.45.6.89,1.21,1.32,1.83,0,0,0,0,0,0,.11.16.22.31.33.46.51.75,1,1.52,1.47,2.31,0,0,0,.01.01.02,0,0,0,0,0,0,.4.67.77,1.35,1.14,2.03.11.21.22.43.33.65.24.47.48.95.71,1.43.12.25.23.5.34.74.21.47.41.94.61,1.41.1.24.2.48.3.72.22.55.43,1.1.62,1.66.06.15.12.31.17.46.19.54.36,1.09.53,1.64.05.16.1.33.15.49.06.19.11.39.16.59.15.52.29,1.05.42,1.57.06.26.12.52.18.79.11.47.21.94.3,1.41.05.27.11.54.15.81.09.5.17.99.24,1.49.03.23.07.47.1.7.1.71.18,1.43.24,2.14.01.15.02.3.03.46.05.57.08,1.15.11,1.72.01.27.02.55.02.82.01.45.02.91.02,1.36,0,.3,0,.59,0,.89,0,.45-.02.89-.05,1.33-.01.29-.02.57-.04.86-.03.52-.08,1.04-.13,1.56-.02.2-.03.4-.05.6-.07.69-.17,1.37-.27,2.06-.04.29-.1.57-.14.85-.07.42-.15.85-.23,1.27-.06.32-.13.63-.2.95-.08.39-.17.78-.27,1.17-.08.32-.15.63-.24.95-.11.4-.22.8-.34,1.2-.08.29-.16.58-.25.87-.2.64-.41,1.28-.64,1.92-.1.29-.22.57-.32.86-.14.38-.29.77-.44,1.14-.13.32-.27.64-.4.96-.15.34-.3.68-.45,1.02-.15.32-.3.65-.45.97-.16.33-.33.66-.5.99-.16.31-.32.63-.49.94-.2.37-.41.73-.61,1.09-.28.48-.56.96-.85,1.43-.03.04-.05.08-.08.13-.19.31-.38.62-.58.92-.2.3-.41.6-.61.9-.2.3-.41.59-.62.89-.22.3-.44.6-.66.9-.21.28-.43.57-.66.85-.23.29-.46.59-.7.87-.24.29-.49.57-.73.85-.23.27-.46.54-.7.81,0,0,0,0,0,0,1.14,1.18,2.37,2.29,3.64,3.36.1-.05.2-.09.3-.13.27-.13.54-.26.8-.39.39-.19.78-.39,1.16-.59.27-.14.54-.28.8-.42.58-.31,1.14-.64,1.7-.97,18.01-10.8,27.71-32.44,22.42-53.88-.91-3.68-2.23-7.16-3.87-10.41Z" style="fill: #ef7f18;"/>
  <path d="M69.56,57.6c-3.65-1.07-7.32-1.68-10.97-1.89,0,0-.01,0-.02,0-1.12-.07-2.24-.08-3.35-.07-.22,0-.44,0-.66,0-.48.01-.97.03-1.45.06-.25.01-.5.03-.75.05-1.53.11-3.04.28-4.54.53-.32.05-.64.1-.95.16-.4.07-.8.15-1.19.24-.37.08-.73.16-1.1.25-.35.08-.7.16-1.04.25-.65.17-1.3.35-1.95.55-.3.09-.59.19-.89.28-.44.14-.87.29-1.3.44-.04.01-.07.03-.11.04-.18,1.84-.26,3.69-.24,5.54,0,0,0,.01,0,.02.08,4.76.85,9.55,2.35,14.22h0c3.52-.85,7.18-1.34,10.95-1.39,4.16-.05,8.2.42,12.07,1.34,13.74,3.28,25.25,12.35,31.8,24.51,1.41,2.62,2.6,5.38,3.52,8.26,1.65-.4,3.28-.89,4.9-1.47.01-.14.03-.29.05-.43.03-.28.05-.56.07-.84.03-.46.06-.92.08-1.38.01-.28.03-.56.03-.84.02-.67.03-1.34.02-2.01-.3-20.98-14.12-40.21-35.32-46.41Z" style="fill: #c1272d;"/>
  <path d="M102.01,123.49c-.03-.62-.07-1.24-.13-1.85,0-.01,0-.03,0-.04-.15.42-.31.84-.48,1.25.16-.42.32-.84.48-1.26-.33-3.67-1.05-7.22-2.14-10.61h0c-.92-2.88-2.11-5.64-3.52-8.26-6.55-12.16-18.07-21.23-31.8-24.51-3.87-.92-7.91-1.39-12.07-1.34-3.77.05-7.43.54-10.95,1.39-9.52,2.31-17.95,7.38-24.39,14.32-1.38,1.49-2.67,3.06-3.86,4.7-.4.55-.78,1.11-1.16,1.67-.51.77-.99,1.57-1.46,2.37-1.44,2.48-2.68,5.09-3.67,7.82.03.3.05.6.08.9-.03-.3-.06-.59-.08-.89-1.99,5.44-3.05,11.32-2.98,17.45,0,.09,0,.17,0,.26.01.64.03,1.28.07,1.92.02.29.05.58.07.87.03.43.06.86.1,1.29.04.36.09.72.13,1.08.04.35.08.7.13,1.04.06.41.13.82.21,1.23.05.29.09.58.14.86.09.45.19.9.29,1.35.05.24.1.47.15.71.11.49.24.97.37,1.45.05.19.1.38.15.57.15.53.31,1.04.47,1.56.04.14.08.28.13.43.18.57.38,1.13.59,1.68.03.09.06.18.09.27.23.6.46,1.2.71,1.79.02.04.03.08.05.12,3.56,8.41,9.4,15.61,16.73,20.85.2-1.11.43-2.22.7-3.31,0,0,0-.01,0-.02.16-.64.34-1.28.52-1.91,0-.03.02-.06.03-.09,1.35-4.55,3.37-8.95,6.06-13.02,0,0,0,0,0,0,2-3.02,4.35-5.88,7.08-8.49,2.52-2.41,5.22-4.49,8.06-6.25,15.22-9.45,34.42-9.75,49.88-1.08.35-.54.69-1.08,1.03-1.63-.33.55-.67,1.1-1.03,1.63,0,0,0,.01-.01.02,0,0,0,0,0,.01h0c1.55.87,3.07,1.83,4.54,2.87.08-.48.17-.95.24-1.43.02-.15.05-.29.07-.44.1-.71.18-1.42.24-2.14.02-.23.04-.47.06-.7.04-.54.08-1.08.1-1.62.01-.23.02-.46.03-.69.02-.75.04-1.51.03-2.27,0-.63-.03-1.25-.06-1.87Z" style="fill: #a86aea;"/>
  <path d="M40.51,188.27s0-.06,0-.1c0,.03,0,.06,0,.1Z" style="fill: #90e338;"/>
  <path d="M40.57,190.28s0-.03,0-.04c0,.01,0,.03,0,.04Z" style="fill: #90e338;"/>
  <path d="M96.76,131.79h0s0,0,0-.01c0,0,0-.01.01-.02-15.46-8.67-34.66-8.37-49.88,1.08-2.84,1.76-5.53,3.84-8.06,6.25-2.73,2.61-5.08,5.47-7.08,8.49,0,0,0,0,0,0-2.69,4.08-4.71,8.47-6.06,13.02,0,.03-.02.06-.03.09-.19.63-.36,1.27-.52,1.91,0,0,0,.01,0,.02-.27,1.1-.5,2.2-.7,3.31,5.33,3.81,11.44,6.58,18.05,8.02,1.03-3.49,2.46-6.92,4.32-10.23,2.07-3.68,4.55-6.98,7.34-9.89,9.71-10.13,23.26-15.48,36.98-15.06,2.98.09,5.97.45,8.93,1.09.19-.64.36-1.28.52-1.93.07-.28.13-.55.2-.83.1-.44.2-.89.29-1.33.06-.28.11-.56.16-.84.02-.09.03-.18.05-.28-1.47-1.04-2.99-2-4.54-2.87Z" style="fill: #893add;"/>
  <path d="M119.91,149.2s0,0-.01,0c-.85-.67-1.74-1.3-2.64-1.91-.22-.15-.45-.3-.68-.45-.92-.61-1.87-1.2-2.85-1.75,0,0,0,0,0,0-.66-.37-1.33-.72-2-1.06-.2-.1-.41-.2-.61-.3-.08-.04-.17-.08-.25-.12.15.18.29.37.44.55-.15-.19-.31-.38-.46-.57-.4-.19-.79-.38-1.19-.56-.22-.1-.43-.19-.65-.29-.66-.28-1.32-.56-1.98-.81-.16-.06-.33-.12-.49-.18-.52-.19-1.03-.37-1.55-.54-.28-.09-.57-.18-.85-.27-.42-.13-.83-.25-1.25-.37-.29-.08-.58-.17-.87-.24-.63-.17-1.27-.32-1.91-.46-2.96-.65-5.95-1-8.93-1.09-13.73-.42-27.27,4.93-36.98,15.06-2.79,2.91-5.27,6.22-7.34,9.89-1.86,3.31-3.29,6.74-4.32,10.23h0s0,0,0,.01c-1.38,4.68-2.03,9.46-2,14.2,0,.03,0,.06,0,.1,0,.66.02,1.32.06,1.98,0,.01,0,.03,0,.04.16,3.29.66,6.55,1.48,9.73.03.13.06.26.1.38.14.52.28,1.03.44,1.55.05.18.11.36.16.54.15.49.31.97.48,1.46.07.2.14.39.21.58.17.48.35.95.53,1.42.07.18.15.36.22.54.62,1.51,1.32,3,2.08,4.45.13.24.25.49.39.73.2.36.4.71.61,1.06.17.29.34.58.51.86.2.33.41.66.62.98.2.3.39.6.59.9.21.31.42.61.64.92.22.31.45.63.69.93.21.28.42.56.64.84.19.24.39.48.58.72.08.1.16.2.24.29.2.24.39.48.59.71.47.55.96,1.1,1.46,1.63.12.13.24.25.36.37.4.42.81.84,1.23,1.25.2.2.41.39.62.58.35.33.7.66,1.07.97.23.2.46.4.7.6.36.3.72.6,1.08.89.24.19.49.39.73.58.38.29.76.58,1.15.86.24.18.48.35.73.52.43.3.87.59,1.31.88.22.14.43.28.65.42.66.42,1.34.82,2.02,1.21,0,0,0,0,0,0,.87.49,1.76.94,2.65,1.37.87.42,1.75.83,2.64,1.2,1.79.75,3.61,1.38,5.44,1.9,1.22.35,2.44.65,3.67.89.95.19,1.89.34,2.84.48.18.02.35.05.53.07.92.12,1.85.21,2.77.28.15.01.31.02.46.03,1.95.12,3.89.13,5.83.02.11,0,.23-.01.34-.02.98-.06,1.96-.15,2.94-.27.04,0,.08-.01.11-.02,4.93-.62,9.74-2,14.26-4.06-.89-.75-1.76-1.52-2.59-2.33-.02-.02-.04-.04-.06-.05-.47-.45-.93-.92-1.38-1.39-.02-.02-.05-.05-.07-.07-3.26-3.44-6.04-7.38-8.22-11.73,0,0,0,0,0,0,0,0,0,0,0,0,0,0,0,0,0,0-1.64-3.27-2.94-6.77-3.83-10.48-5.09-21.12,4.33-42.35,21.83-53.23.35-.22.7-.42,1.05-.63-.29-.58-.59-1.15-.91-1.72.31.57.62,1.14.91,1.72,0,0,0,.01.01.02,1.44-.85,2.94-1.63,4.48-2.34-.43-.36-.84-.74-1.29-1.09Z" style="fill: #789def;"/>
  <path d="M119.17,212.08c-2.13-3.62-3.73-7.41-4.85-11.26-3.93-13.58-1.71-28.09,5.66-39.8,1.54-2.45,3.3-4.78,5.28-6.94,0,0,0,0,0,0-.74-.78-1.52-1.54-2.32-2.28-.16-.15-.32-.3-.49-.45-.41-.36-.84-.71-1.26-1.06-1.54.71-3.04,1.49-4.48,2.34,0,0,0-.01-.01-.02h0c-.35.21-.71.41-1.05.63-17.5,10.87-26.92,32.1-21.83,53.23.89,3.71,2.2,7.21,3.83,10.48,0,0,0,0,0,0,2.18,4.36,4.96,8.29,8.22,11.73.02.02.05.05.07.07.45.47.91.94,1.38,1.39.02.02.04.04.06.05.84.81,1.7,1.58,2.59,2.33,5.93-2.7,11.36-6.58,15.89-11.55,0,0,0,0,0,0-2.51-2.65-4.76-5.62-6.69-8.9Z" style="fill: #527ddb;"/>
  <g>
    <path d="M207.97,191.81c-.62.18-1.24.35-1.86.51-.03,0-.06.01-.09.02-4.59,1.14-9.37,1.64-14.22,1.4,0,0,0,0,0,0h0c-.89-.04-1.79-.11-2.68-.21,0,0-.02,0-.03,0-.05,0-.11-.01-.16-.02-.81-.09-1.62-.2-2.43-.33-.14-.02-.28-.04-.42-.06-.74-.12-1.48-.27-2.22-.43-.18-.04-.37-.07-.55-.11-.89-.2-1.77-.42-2.66-.68,0,0,0,0,0,0,0,0,0,0,0,0,0,0,0,0-.01,0,0,0,0,0,0,0,0,0,0,0,0,0-.75-.21-1.48-.45-2.21-.7-.23-.08-.46-.16-.69-.24-.5-.18-1-.36-1.49-.55-.26-.1-.51-.2-.77-.31-.47-.19-.94-.4-1.4-.6-.24-.11-.48-.21-.71-.32-.54-.25-1.06-.51-1.59-.78-.15-.08-.3-.15-.44-.22-.66-.35-1.31-.71-1.95-1.08-.18-.1-.35-.21-.52-.32-.46-.28-.92-.56-1.38-.86-.23-.15-.45-.3-.67-.45-.11-.07-.21-.15-.32-.22-.29-.2-.58-.4-.87-.6-.22-.16-.45-.32-.67-.48-.41-.3-.8-.61-1.2-.92-.18-.15-.37-.29-.55-.44-.56-.46-1.11-.92-1.65-1.4-.11-.1-.22-.2-.33-.3-.43-.39-.85-.78-1.26-1.18-.2-.19-.39-.39-.58-.58-.32-.32-.64-.65-.95-.98-.2-.22-.4-.43-.6-.65-.3-.33-.59-.67-.88-1-.19-.22-.37-.43-.56-.65-.33-.4-.66-.81-.98-1.23-.12-.16-.25-.31-.37-.47-.42-.55-.82-1.11-1.21-1.68-.17-.24-.32-.48-.48-.72-.24-.36-.47-.71-.7-1.08-.17-.27-.34-.55-.51-.82-.21-.34-.41-.69-.61-1.04-.16-.28-.32-.57-.48-.85-.2-.37-.39-.74-.58-1.11-.14-.27-.28-.54-.41-.81-.3-.6-.58-1.21-.85-1.83-.12-.28-.24-.57-.36-.86-.16-.37-.31-.75-.46-1.13-.13-.32-.24-.65-.36-.98-.06-.17-.12-.35-.18-.52-.06-.18-.13-.35-.19-.53-.11-.34-.23-.68-.33-1.02-.11-.35-.21-.71-.32-1.06-.1-.34-.2-.68-.29-1.02-.11-.4-.2-.8-.3-1.21-.13-.55-.25-1.09-.36-1.64-.08-.4-.16-.8-.24-1.2-.06-.36-.12-.72-.17-1.08-.06-.36-.11-.71-.16-1.07-.05-.37-.09-.74-.13-1.11-.04-.36-.07-.71-.1-1.07-.03-.37-.06-.74-.09-1.12-.02-.37-.04-.75-.05-1.12-.01-.36-.03-.71-.04-1.07,0,0,0-.02,0-.03-.01-.64,0-1.28,0-1.92,0-.31.02-.62.03-.93.02-.42.04-.85.07-1.27.01-.19.03-.38.04-.58-.47.17-.94.34-1.41.52-.16.06-.32.12-.48.18-.66.26-1.32.55-1.97.84-.22.1-.43.2-.64.3-.49.23-.97.47-1.46.71-.2.1-.41.21-.61.31-.67.35-1.33.71-1.98,1.1,0,0,0,0,0,0-.75.44-1.47.92-2.19,1.4-.21.14-.42.26-.63.4-.23.15-.45.31-.67.47-.89.63-1.77,1.28-2.61,1.96,0,0,0,0-.01,0-.86.7-1.69,1.43-2.5,2.18-.17.16-.33.31-.5.47-.79.75-1.55,1.52-2.28,2.31h0c-1.98,2.17-3.74,4.5-5.28,6.94-7.37,11.71-9.59,26.21-5.66,39.8,1.12,3.86,2.72,7.64,4.85,11.26,1.93,3.28,4.18,6.25,6.69,8.9,0,0,0,0,0,0,.77.82,1.57,1.6,2.39,2.35.16.15.32.3.49.45.36.32.73.64,1.09.95.19.16.39.32.58.48,1.18.97,2.41,1.88,3.67,2.73.27.18.54.36.81.53.34.22.68.43,1.03.64.32.2.65.39.97.57.31.18.61.36.93.53.59.32,1.19.64,1.79.94.28.14.56.27.85.4.41.2.83.39,1.25.57.28.12.55.24.83.36.53.22,1.06.43,1.6.63.16.06.32.13.48.19.69.25,1.38.49,2.08.71.22.07.44.13.66.2.53.16,1.06.31,1.6.45.22.06.44.12.66.17.73.18,1.46.35,2.19.5,0,0,0,0,0,0,1.34.27,2.7.48,4.07.64.15.02.3.04.45.05,4.46.48,9,.34,13.49-.43,5.68-.97,11.29-2.97,16.56-6.06h0c.68-.4,1.35-.82,2.01-1.25.22-.14.42-.29.64-.43.44-.29.87-.59,1.3-.9.24-.18.48-.36.72-.54.38-.29.76-.58,1.14-.88.24-.19.49-.39.72-.59.36-.3.71-.6,1.06-.91.23-.2.46-.41.69-.61.35-.32.7-.65,1.04-.99.21-.2.41-.39.62-.6.41-.41.8-.83,1.2-1.25.12-.13.25-.26.37-.39.49-.54.97-1.09,1.43-1.66.2-.24.38-.48.57-.72.27-.34.54-.68.81-1.03.21-.28.42-.56.62-.85.23-.31.45-.63.67-.95.21-.31.42-.62.62-.93.2-.3.39-.61.58-.91.2-.33.41-.66.61-.99.17-.29.33-.58.5-.87.2-.36.4-.71.59-1.07.13-.25.25-.5.38-.74.74-1.46,1.42-2.96,2.01-4.49.07-.18.14-.35.21-.53.18-.47.34-.95.51-1.43.07-.2.13-.39.2-.59.16-.49.31-.98.45-1.47.05-.18.1-.36.16-.55.14-.51.28-1.03.41-1.55.03-.13.06-.27.09-.4.58-2.47.98-4.98,1.17-7.51-.78.27-1.56.54-2.36.77-.05.01-.09.03-.14.04ZM145.05,145.62h0s0,0,0,0c0,0,0,0,0,0Z" style="fill: #7bd9d3;"/>
    <path d="M17,92.58c6.44-6.93,14.87-12.01,24.39-14.32h0c-9.52,2.31-17.95,7.38-24.39,14.32Z" style="fill: #7bd9d3;"/>
  </g>
</svg>