<?xml version="1.0" encoding="UTF-8"?>
<svg id="uuid-b78d061c-e28b-4316-b9a1-71b142bf931e" data-name="Capa 1" xmlns="http://www.w3.org/2000/svg" width="250" height="250" viewBox="0 0 250 250">
  <g>
    <path d="M55.66,22.4c-10.17-1.25-19.5,6.05-20.75,16.22l-16.91,138.01c-1.25,10.17,6.05,19.5,16.22,20.75l46.71,5.7L102.67,28.13l-47.01-5.74Z" style="fill: #54c3ea;"/>
    <path d="M146.29,33.46l-43.62-5.32-21.74,174.94,43.92,5.36c10.17,1.25,19.5-6.05,20.75-16.22l16.91-138.01c1.25-10.17-6.05-19.5-16.22-20.75Z" style="fill: #0f9fd1;"/>
  </g>
  <g>
    <path d="M151.03,195.16c-2.37,10.82-11.99,18.95-23.23,19.27-1.22.03-20.42-1.68-21.64-1.83l-12.16-1.49c-.8,9.87,6.36,18.78,16.27,19.99l46.93,5.78,4.96-39.93-11.13-1.79Z" style="fill: #63ce6d;"/>
    <path d="M219.05,66.89l-11.37-1.39-13.59,110.88c-1.46,11.91-11.61,21.16-23.61,21.5-1.22.03-2.45-.02-3.67-.17l-4.64-.75-4.96,39.93,40.41,4.98c10.16,1.25,19.5-6.05,20.75-16.22l16.91-138.01c1.25-10.17-6.05-19.5-16.22-20.75Z" style="fill: #39b54a;"/>
  </g>
  <g>
    <path d="M101.63,6.14c-9.4-1.15-18.08,5.01-20.32,13.99l63.17,7.22,1.95-15.69-44.8-5.52Z" style="fill: #f9a450;"/>
    <path d="M188.97,16.9l-42.54-5.24-1.95,15.69,2.52.29c6.47.79,12.26,4.07,16.3,9.24,4.04,5.16,5.82,11.57,5.03,18.05l-16.47,134.43,15.67,2.53c10.17,1.25,19.5-6.05,20.75-16.22l16.91-138.01c1.25-10.17-6.05-19.5-16.22-20.75Z" style="fill: #ef7f18;"/>
  </g>
  <path d="M90.22,49.6l19.1,2.23,24.75,125.55-15.3-1.95-7.9-36.21-44.31-5.65-15.49,33.23-15.17-2.01,54.31-115.2ZM72.2,121.62l36.05,4.59-10.88-57.67-25.17,53.08Z" style="fill: #fff;"/>
</svg>