<?xml version="1.0" encoding="UTF-8"?>
<svg id="uuid-4966fddd-ec76-432c-81f7-973e2750d994" data-name="Capa 1" xmlns="http://www.w3.org/2000/svg" width="250" height="250" viewBox="0 0 250 250">
  <path d="M128.43,56.69c1.83.29,8.11.28,9.96,0,2.63-.41,3.86-2.83,5.76-4.26,10.02-7.54,24.66-2.86,28.2,9.04,5.03,16.94-14.25,30.06-28.2,19.55-1.9-1.43-3.13-3.85-5.76-4.26-1.84-.28-8.13-.29-9.96,0-2.27.36-3.27,2.22-3.46,4.28-1.21,13.24.05,30.25.02,43.95,13.69.03,30.7-1.24,43.95-.02,2.06.19,3.92,1.19,4.28,3.46.29,1.83.28,8.11,0,9.96-.41,2.63-2.83,3.86-4.26,5.76-6.92,9.2-3.7,22.95,7.02,27.49,2.48,1.05,4.92,1.53,7.25,1.53V8.47h-52.32c-2.79,1.2-4.73,3.1-5.92,5.92v38.47c.07,1.83,1.66,3.55,3.44,3.83Z" style="fill: #d35464;"/>
  <path d="M197.55,144.15c-1.43-1.9-3.85-3.13-4.26-5.76-.28-1.85-.29-8.12,0-9.96.28-1.78,2.01-3.37,3.83-3.45h38.47c2.94-1.33,5.61-3.56,5.92-7.04l-.2-103.58c-.73-2.88-3.15-4.71-5.71-5.89h-52.37v164.71c13.83.05,23.79-16.44,14.32-29.03Z" style="fill: #c1272d;"/>
  <path d="M235.6,124.99h-38.47c-1.83.07-3.55,1.66-3.83,3.44-.29,1.83-.28,8.11,0,9.96.41,2.63,2.83,3.86,4.26,5.76,9.47,12.59-.5,29.08-14.32,29.03v68.36h50.79c3.92-.14,7.37-3.58,7.51-7.51v-101.54c-.08-3.67-2.85-6.12-5.94-7.49Z" style="fill: #39b54a;"/>
  <path d="M175.98,171.64c-10.72-4.54-13.94-18.29-7.02-27.49,1.43-1.9,3.85-3.13,4.26-5.76.28-1.84.29-8.13,0-9.96-.36-2.27-2.22-3.27-4.28-3.46-13.24-1.21-30.25.05-43.95.02-.03,13.69,1.24,30.7.02,43.95-.19,2.06-1.19,3.92-3.46,4.28-1.83.29-8.11.28-9.96,0-2.63-.41-3.86-2.83-5.76-4.26-9.22-6.94-22.95-3.71-27.49,7.02-7.25,17.13,12.74,32.67,27.49,21.57,1.9-1.43,3.13-3.85,5.76-4.26,1.85-.28,8.12-.29,9.96,0,1.78.28,3.37,2.01,3.45,3.83v38.47c1.36,3.08,3.81,5.85,7.48,5.94h50.75v-68.36c-2.33,0-4.78-.49-7.25-1.53Z" style="fill: #63ce6d;"/>
  <path d="M121.55,193.29c-1.83-.29-8.11-.28-9.96,0-2.63.41-3.86,2.83-5.76,4.26-14.75,11.1-34.74-4.45-27.49-21.57,4.54-10.73,18.27-13.96,27.49-7.02,1.9,1.43,3.13,3.85,5.76,4.26,1.84.28,8.13.29,9.96,0,2.27-.36,3.27-2.22,3.46-4.28,1.21-13.24-.05-30.25-.02-43.95-13.53-.03-30.41,1.23-43.49.02-2.7-.25-4.31-.99-4.72-3.93-.46-3.29-.46-9.43,1.4-12.17,3.51-5.17,6.89-6.39,6.79-14.19-.16-12.28-9.7-18.05-18.98-17.65v164.35l51.95.1c3.48-.31,5.72-2.98,7.05-5.92v-38.47c-.07-1.83-1.66-3.55-3.44-3.83Z" style="fill: #0f9fd1;"/>
  <path d="M48.5,95.64c.25,6.72,3.32,8.44,6.58,13,2.08,2.91,2.08,8.91,1.59,12.44-.41,2.93-2.02,3.68-4.72,3.93-11.9,1.11-25.49-.86-37.57-.02-2.81,1.2-4.71,3.1-5.92,5.92v104.69c1.18,2.56,3.01,4.98,5.89,5.71l51.63.1V77.06c-9.09.39-17.93,6.69-17.49,18.58Z" style="fill: #54c3ea;"/>
  <path d="M51.95,125.01c2.7-.25,4.31-.99,4.72-3.93.49-3.53.49-9.52-1.59-12.44-3.26-4.56-6.33-6.28-6.58-13-.44-11.9,8.4-18.19,17.49-18.58V8.47H14.38c-2.82,1.21-4.71,3.11-5.92,5.92v104.69c1.2,2.79,3.1,4.73,5.92,5.92,12.08-.84,25.67,1.12,37.57.02Z" style="fill: #f9a450;"/>
  <path d="M84.97,94.72c.1,7.81-3.28,9.02-6.79,14.19-1.86,2.74-1.86,8.88-1.4,12.17.41,2.93,2.02,3.68,4.72,3.93,13.08,1.22,29.96-.05,43.49-.02.03-13.69-1.24-30.7-.02-43.95.19-2.06,1.19-3.92,3.46-4.28,1.83-.29,8.11-.28,9.96,0,2.63.41,3.86,2.83,5.76,4.26,13.96,10.5,33.24-2.62,28.2-19.55-3.54-11.91-18.18-16.58-28.2-9.04-1.9,1.43-3.13,3.85-5.76,4.26-1.85.28-8.12.29-9.96,0-1.78-.28-3.37-2.01-3.45-3.83V14.38c-1.2-2.82-3.1-4.71-5.91-5.92h-53.08v68.59c9.28-.4,18.82,5.37,18.98,17.65Z" style="fill: #ef7f18;"/>
</svg>