<?xml version="1.0" encoding="UTF-8"?>
<svg id="uuid-313c022f-ee49-47a6-b6bc-b52198a3e86a" data-name="Capa 1" xmlns="http://www.w3.org/2000/svg" width="250" height="250" viewBox="0 0 250 250">
  <g>
    <path d="M93.6,11.45C30.86,28.94-5.82,93.97,11.66,156.7c14.81,53.13,63.71,87.56,116.45,86.25l-.57-235.82c-11.19-.21-22.61,1.17-33.95,4.33Z" style="fill: #c552ce;"/>
    <path d="M127.54,7.13l.57,235.82c9.53-.24,19.19-1.64,28.8-4.32,62.73-17.48,99.42-82.51,81.93-145.25C224.52,41.99,178.28,8.09,127.54,7.13Z" style="fill: #a324aa;"/>
  </g>
  <path d="M181.03,120.74l-.08,60.21c0,5.59-4.54,10.13-10.14,10.13l-85.57.06c-5.61,0-10.15-4.54-10.15-10.15v-60.09c0-3.97,3.22-7.2,7.19-7.2h.23c4.06,0,7.32-3.37,7.19-7.43-.28-8.73-.55-17.48,2.17-25.57,11.57-34.38,60.85-34.3,72.39,0,3.7,11,2.63,10.92,2.37,23.19,0,.18,0,1.16,0,2.44,0,3.98,3.23,7.21,7.21,7.21h0c3.98,0,7.21,3.23,7.21,7.21ZM148.34,113.44c2.05,0,3.7-1.66,3.7-3.7v-17.64c0-12.12-12.49-22.51-24.21-22.17-11.46.33-22.95,10.8-22.95,22.58v17.23c0,2.05,1.66,3.7,3.7,3.7h39.75Z" style="fill: #fff;"/>
</svg>