<?xml version="1.0" encoding="UTF-8"?>
<svg id="uuid-c2f5015b-934d-4a5b-9050-6fa7b4b1d5d4" data-name="Capa 1" xmlns="http://www.w3.org/2000/svg" width="250" height="250" viewBox="0 0 250 250">
  <g>
    <path d="M31.86,12.4c-10.1,0-18.29,8.19-18.29,18.29v188.63c0,10.1,8.19,18.29,18.29,18.29h93.49V12.4H31.86Z" style="fill: #54c3ea;"/>
    <path d="M235.74,68.59h-52.25c-1.53,0-3-.61-4.08-1.69-1.08-1.08-1.69-2.55-1.69-4.08V12.96c-1.45-.37-2.95-.56-4.47-.56h-47.89v225.2h92.78c10.1,0,18.29-8.19,18.29-18.29V73.53c0-1.69-.24-3.35-.69-4.94Z" style="fill: #0f9fd1;"/>
  </g>
  <polygon points="187.41 12.71 189.41 14.59 235.58 58.66 187.41 58.66 187.41 12.71" style="fill: #0f9fd1; fill-rule: evenodd;"/>
  <path id="uuid-cf74b9c0-da51-477e-9ee0-c884bf379851" data-name="path849" d="M49.44,55.84c-3.77,0-6.83-3.08-6.83-6.88s3.06-6.88,6.83-6.88h56.03c3.77,0,6.83,3.08,6.83,6.88s-3.06,6.88-6.83,6.88" style="fill: #fff;"/>
  <g>
    <path id="uuid-f1b33e6c-9317-4ecf-aa9e-b46136717e69" data-name="path853" d="M66.48,101.02c-6.8,0-9.88-3.08-9.88-6.88s3.08-6.88,9.88-6.88h79.16c.8,0,3.8,13.76,0,13.76h-79.16Z" style="fill: #fff;"/>
    <path id="uuid-ca196cd5-823a-48e1-908b-3150053bfecb" data-name="path857" d="M197.48,87.26h-72.18v13.76h72.18c3.8,0,6.88-3.08,6.88-6.88s-3.08-6.88-6.88-6.88" style="fill: #a0e1f2;"/>
  </g>
  <g>
    <path id="uuid-d5520a52-79ff-4ea1-b381-524e864bf02e" data-name="path853" d="M52.48,130.49c-6.8,0-9.88-3.08-9.88-6.88s3.08-6.88,9.88-6.88h93.16c.8,0,3.8,13.76,0,13.76H52.48Z" style="fill: #fff;"/>
    <path id="uuid-062586fb-8a9f-46eb-9805-82dc08ed4721" data-name="path857" d="M125.3,116.73v13.76h62.18c3.8,0,6.88-3.08,6.88-6.88s-3.08-6.88-6.88-6.88" style="fill: #a0e1f2;"/>
  </g>
  <g>
    <path id="uuid-852995c4-8fb6-4ea1-a807-930b2395e7e8" data-name="path853" d="M52.48,159.95c-6.8,0-9.88-3.08-9.88-6.88s3.08-6.88,9.88-6.88h93.16c.8,0,3.8,13.76,0,13.76H52.48Z" style="fill: #fff;"/>
    <path id="uuid-9d93db8a-198d-4ec4-994c-2f28b97bd7f3" data-name="path857" d="M197.48,146.2h-72.18v13.76h72.18c3.8,0,6.88-3.08,6.88-6.88s-3.08-6.88-6.88-6.88" style="fill: #a0e1f2;"/>
  </g>
  <g>
    <path id="uuid-3cb4264f-2c38-4be9-a6a1-06743b4fc35c" data-name="path853" d="M52.48,189.42c-6.8,0-9.88-3.08-9.88-6.88s3.08-6.88,9.88-6.88h93.16c.8,0,3.8,13.76,0,13.76H52.48Z" style="fill: #fff;"/>
    <path id="uuid-98c26987-2e05-479a-9c1b-070600e9812c" data-name="path857" d="M197.48,175.66h-72.18v13.76h72.18c3.8,0,6.88-3.08,6.88-6.88s-3.08-6.88-6.88-6.88" style="fill: #a0e1f2;"/>
  </g>
  <g>
    <path id="uuid-0dc59d24-de81-487e-8286-51dd6464636b" data-name="path853" d="M52.48,218.89c-6.8,0-9.88-3.08-9.88-6.88s3.08-6.88,9.88-6.88h93.16c.8,0,3.8,13.76,0,13.76H52.48Z" style="fill: #fff;"/>
    <path id="uuid-19a2448e-ef13-41fd-b20d-1f6fbe06b83e" data-name="path857" d="M151.65,205.13h-26.35v13.76h26.35c3.8,0,6.88-3.08,6.88-6.88s-3.08-6.88-6.88-6.88" style="fill: #a0e1f2;"/>
  </g>
</svg>