<?xml version="1.0" encoding="UTF-8"?>
<svg id="uuid-9b1cdda2-aa58-4fe2-b337-19f7d9f13138" data-name="Capa 1" xmlns="http://www.w3.org/2000/svg" width="250" height="250" viewBox="0 0 250 250">
  <path d="M28.63,29.92c-2.8,2.8-4.34,6.48-4.34,10.37s1.54,7.57,4.34,10.37l13.79,13.79c1.84,1.84,3.93,3.09,6.23,3.76V29.28c-2.7-2.38-6.09-3.69-9.65-3.69-3.89,0-7.57,1.54-10.37,4.34Z" style="fill: none;"/>
  <path d="M28.63,187c-2.8,2.8-4.34,6.48-4.34,10.37s1.54,7.57,4.34,10.37l13.79,13.79c1.84,1.84,3.93,3.09,6.23,3.76v-38.94c-2.7-2.38-6.09-3.69-9.65-3.69-3.89,0-7.57,1.54-10.37,4.34Z" style="fill: none;"/>
  <path d="M68,238.18c6.67,0,12.14-5.46,12.14-12.14v-21.5l-16.98,16.98c-2.88,2.88-6.37,4.34-10.37,4.34-1.45,0-2.82-.2-4.13-.58v12.89h19.35Z" style="fill: #0f9fd1;"/>
  <path d="M49.36,187.04l3.42,3.42,15.6-15.6c-.13,0-.25-.02-.38-.02h-19.35v11.55c.24.21.49.42.71.65Z" style="fill: #0f9fd1;"/>
  <path d="M16.02,186.94v39.11c0,6.67,5.46,12.14,12.14,12.14h20.5v-12.89c-2.31-.67-4.4-1.92-6.23-3.76l-13.79-13.79c-2.8-2.8-4.34-6.48-4.34-10.37s1.54-7.57,4.34-10.37c2.8-2.8,6.48-4.34,10.37-4.34,3.57,0,6.96,1.31,9.65,3.69v-11.55h-20.5c-6.68,0-12.14,5.46-12.14,12.14Z" style="fill: #54c3ea;"/>
  <path d="M42.42,64.45l-13.79-13.79c-2.8-2.8-4.34-6.48-4.34-10.37s1.54-7.57,4.34-10.37c2.8-2.8,6.48-4.34,10.37-4.34,3.57,0,6.96,1.31,9.65,3.69v-11.55h-20.5c-6.68,0-12.14,5.46-12.14,12.14v39.11c0,6.67,5.46,12.14,12.14,12.14h20.5v-12.89c-2.31-.67-4.4-1.92-6.23-3.76Z" style="fill: #54c3ea;"/>
  <path d="M49.36,29.92l3.42,3.42,15.6-15.6c-.13,0-.25-.02-.38-.02h-19.35v11.55c.24.21.49.42.71.65Z" style="fill: #0f9fd1;"/>
  <path d="M52.78,68.79c-1.45,0-2.82-.2-4.13-.58v12.89h19.35c6.67,0,12.14-5.46,12.14-12.14v-21.5l-16.98,16.98c-2.88,2.88-6.37,4.34-10.37,4.34Z" style="fill: #0f9fd1;"/>
  <polygon points="80.14 128.41 80.14 117.01 74.44 122.71 80.14 128.41" style="fill: #0f9fd1;"/>
  <path d="M68,161.26c3.05,0,5.84-1.15,7.98-3.02-1.67-.62-3.22-1.59-4.52-2.89l-14.83-14.83-7.98,7.98v12.76h19.35Z" style="fill: #0f9fd1;"/>
  <path d="M32.9,159.03c-3.36,0-6.52-1.31-8.9-3.69-2.38-2.38-3.69-5.54-3.69-8.91s1.31-6.52,3.68-8.9l14.83-14.83-14.83-14.83c-1.97-1.98-3.2-4.49-3.56-7.21-2.69,2.23-4.42,5.6-4.42,9.35v39.11c0,6.67,5.46,12.14,12.14,12.14h20.5v-12.76l-6.85,6.85c-2.38,2.38-5.54,3.69-8.9,3.69Z" style="fill: #54c3ea;"/>
  <polygon points="63.65 97.88 49.61 97.88 56.63 104.9 63.65 97.88" style="fill: #0f9fd1;"/>
  <g>
    <polygon points="56.44 122.49 56.74 122.49 56.59 122.34 56.44 122.49"/>
    <polygon points="56.74 122.19 56.59 122.34 56.74 122.49 56.74 122.49 56.74 122.19"/>
  </g>
  <polygon points="52.79 210.27 52.79 210.2 52.75 210.23 52.79 210.27"/>
  <g>
    <polygon points="52.79 53.55 52.79 53.48 52.75 53.52 52.79 53.55"/>
    <g>
      <path d="M83.55,102.16c1.76-1.76,1.76-4.61,0-6.37-.02-.02-.05-.04-.07-.06-1.76-1.69-4.56-1.68-6.3.06l-20.44,20.44v6.26h0v6.69l20.44,20.44c1.76,1.76,4.61,1.76,6.37,0,.06-.06.09-.12.15-.18,1.59-1.77,1.55-4.48-.15-6.19l-20.55-20.55.22-.22,20.33-20.33Z" style="fill: #b21d28;"/>
      <path d="M92.61,170.41c-1.92-1.76-4.7-1.73-6.57.15l-33.26,33.22v11.73c1.33-.04,2.26-.51,3.18-1.43l36.82-36.78c1.93-1.93,1.93-4.82,0-6.74-.06-.06-.12-.09-.18-.15Z" style="fill: #159622;"/>
      <path d="M92.79,20.58c1.93-1.93,1.93-4.82,0-6.74-.06-.06-.12-.09-.18-.15-1.92-1.76-4.7-1.73-6.57.15l-33.26,33.22v11.73c1.33-.04,2.26-.51,3.18-1.43l36.82-36.79Z" style="fill: #159622;"/>
    </g>
    <g>
      <path d="M56.74,122.19v-5.96l-.11.11-20.55-20.55c-1.7-1.7-4.42-1.74-6.19-.15-.06.05-.12.09-.18.15-.88.88-1.32,2.03-1.32,3.18s.44,2.3,1.32,3.18l20.33,20.33.22.22-20.55,20.55c-.88.88-1.32,2.03-1.32,3.18,0,1,.35,1.98,1.01,2.8.1.13.19.26.31.38,1.76,1.76,4.61,1.76,6.37,0l20.55-20.55.11.11v-6.69h0s-.3,0-.3,0l.15-.15.15-.15Z" style="fill: #c64056;"/>
      <path d="M42.09,193.48c-1.82-1.82-4.48-1.9-6.4-.29-.11.1-.24.18-.34.29-1.93,1.93-1.93,4.82,0,6.74l13.88,13.86c.96.96,1.93,1.44,3.37,1.44.07,0,.12-.01.19-.02v-5.24l-.04-.04.04-.04v-6.42l-.19.19-10.51-10.49Z" style="fill: #39b54a;"/>
      <path d="M49.22,57.36c.96.96,1.93,1.44,3.37,1.44.07,0,.12-.01.19-.02v-5.24l-.04-.04.04-.04v-6.42l-.19.19-10.51-10.49c-1.82-1.82-4.48-1.9-6.4-.29-.11.1-.24.18-.34.29-1.93,1.93-1.93,4.82,0,6.74l13.88,13.86Z" style="fill: #39b54a;"/>
    </g>
  </g>
  <g>
    <path d="M196.73,197.24h-58.59v14.8h58.59c4.21,0,7.17-2.86,7.37-6.99,0-.14.04-.27.04-.41,0-4.36-3.04-7.4-7.4-7.4Z" style="fill: #0f9fd1;"/>
    <path d="M105.73,197.24c-4.36,0-7.4,3.04-7.4,7.4,0,.14.03.27.04.41.19,4.13,3.15,6.99,7.36,6.99h32.41v-14.8h-32.41Z" style="fill: #54c3ea;"/>
  </g>
  <g>
    <path d="M104.52,55.78h32.32v-14.8h-32.32c-4.36,0-7.4,3.04-7.4,7.4,0,.08.02.15.02.23.11,4.23,3.1,7.17,7.38,7.17Z" style="fill: #54c3ea;"/>
    <path d="M222.22,55.78c4.28,0,7.27-2.94,7.38-7.17,0-.08.02-.15.02-.23,0-4.36-3.04-7.4-7.4-7.4h-85.38v14.8h85.38Z" style="fill: #0f9fd1;"/>
  </g>
  <g>
    <path d="M104.28,120.84c-4.36,0-7.4,3.04-7.4,7.4,0,.02,0,.03,0,.05.03,4.33,3.06,7.35,7.4,7.35h32.41v-14.8h-32.41Z" style="fill: #54c3ea;"/>
    <path d="M227.32,120.84h-90.63v14.8h90.63c4.34,0,7.37-3.02,7.4-7.35,0-.02,0-.03,0-.05,0-4.36-3.04-7.4-7.4-7.4Z" style="fill: #0f9fd1;"/>
  </g>
</svg>