<?xml version="1.0" encoding="UTF-8"?>
<svg id="uuid-1dd8a93d-db0a-4ac5-99a7-1b759470a9c4" data-name="Capa 1" xmlns="http://www.w3.org/2000/svg" width="250" height="250" viewBox="0 0 250 250">
  <g>
    <path d="M34.42,13.07c-12.46,0-22.65,10.19-22.65,22.65v105.68c0,12.46,10.19,22.65,22.65,22.65h93.85V13.07H34.42Z" style="fill: #d35464;"/>
    <path d="M215.58,13.07h-87.32v150.97h19.7v-23.92c0-10.37,8.05-19.21,18.41-19.61,10.9-.41,19.89,8.33,19.89,19.14v24.39h29.32c12.46,0,22.65-10.19,22.65-22.65V35.71c0-12.46-10.19-22.65-22.65-22.65Z" style="fill: #c1272d;"/>
  </g>
  <path d="M148.13,186.69H41.96c0-4.17-3.38-7.55-7.55-7.55s-7.55,3.38-7.55,7.55h-7.55c-4.17,0-7.55,3.38-7.55,7.55s3.38,7.55,7.55,7.55h7.55c0,4.17,3.38,7.55,7.55,7.55s7.55-3.38,7.55-7.55h106.17v-15.1Z" style="fill: #c552ce;"/>
  <path d="M182.08,90.39c-2.17-.69-3.38-3.01-2.69-5.18.69-2.17,3.01-3.37,5.18-2.68,18.57,5.89,32.92,20.55,38.34,39.27,3.17,10.93,3.08,22.46-.28,33.34-.41,1.33-1.46,2.36-2.8,2.75-.78.23-1.59.21-2.36-.02-2.17-.67-3.4-2.99-2.72-5.16,2.89-9.33,2.95-19.23.24-28.6-4.66-16.06-16.97-28.65-32.91-33.7Z" style="fill: #fff; fill-rule: evenodd;"/>
  <path d="M198.1,145.6c1.12.28,2.18.09,3.13-.57.95-.65,1.51-1.58,1.65-2.72.58-4.79.18-9.67-1.18-14.36-5.54-19.1-25.59-30.14-44.69-24.6-19.1,5.54-30.14,25.59-24.6,44.69.63,2.19,2.92,3.45,5.11,2.81,2.19-.63,3.45-2.92,2.81-5.11-4.27-14.74,4.24-30.2,18.98-34.47,14.73-4.27,30.2,4.24,34.47,18.97,1.04,3.6,1.35,7.34.91,11.02-.23,1.94,1,3.73,2.9,4.21l.51.13Z" style="fill: #fff; fill-rule: evenodd;"/>
  <path d="M228.18,167.55v41.58c0,10.31-8.36,18.67-18.67,18.67h-48.41c4.63,7.19,12.71,11.97,21.88,11.97h29.19c14.35,0,26.02-11.67,26.02-26.02v-36.05c0-5.56-4.48-10.07-10.02-10.14Z" style="fill: #ef7f18;"/>
  <g>
    <path d="M177.31,176.95l-.04.13v.61c0-.25.02-.5.04-.74Z" style="fill: none;"/>
    <path d="M177.27,177.09h0s0-37.44,0-37.44c0-5.66-4.65-10.25-10.33-10.15h0s0,47.61,0,47.61l.21.23c2.74,3.05,7.55,2.93,10.13-.26Z" style="fill: #ef7f18;"/>
    <path d="M228.17,167.55c-5.66-.07-10.28,4.51-10.28,10.15,0-5.6-4.56-10.15-10.15-10.15s-10.16,4.55-10.16,10.15c0-5.6-4.55-10.15-10.15-10.15s-9.74,4.15-10.12,9.41h0c-.01.06-.04.13-.04.13h0c-2.58,3.18-7.39,3.31-10.13.26l-.21-.23v-47.61c-5.52.1-9.97,4.6-9.97,10.14v74.1c0,5.18,1.52,10,4.14,14.06h48.41c10.31,0,18.67-8.36,18.67-18.67v-41.58s0,0,0,0Z" style="fill: #f9a450;"/>
  </g>
  <path d="M34.42,179.14c-4.17,0-7.55,3.38-7.55,7.55v15.1c0,4.17,3.38,7.55,7.55,7.55v-30.19Z" style="fill: #a324aa;"/>
  <path d="M136.39,89.65l-48.31,31.4c-.98.68-2.04.98-3.17.98-.98,0-2.04-.23-2.94-.75-1.89-1.13-3.09-3.25-3.09-5.51v-62.96c0-2.26,1.21-4.38,3.09-5.51,1.96-1.06,4.3-.98,6.11.23l48.31,31.4c1.81,1.21,2.87,3.17,2.87,5.36s-1.06,4.15-2.87,5.36Z" style="fill: #fff;"/>
</svg>