<?xml version="1.0" encoding="UTF-8"?>
<svg id="uuid-112b72df-8ba0-4564-97e8-fcdc552b765c" data-name="Capa 1" xmlns="http://www.w3.org/2000/svg" width="250" height="250" xmlns:xlink="http://www.w3.org/1999/xlink" viewBox="0 0 250 250">
  <defs>
    <clipPath id="uuid-62d06d6a-fec1-4060-9958-cb4b9fcf7595">
      <path d="M93.86,155.73c-1.66-10.27,5.33-19.94,15.6-21.6l62.07-10.01,1.1-30.92-155.38,1.6-1.42,84.62,84.06,13.61-6.02-37.3Z" style="fill: none;"/>
    </clipPath>
    <clipPath id="uuid-5dca8331-2a69-4cda-9f34-98a445c4f8de">
      <path d="M149.02,244.7l2.27-13.61-25.49-35.79c-4.9-6.87-3.3-16.45,3.57-21.35,3.94-2.81,9.04-3.59,13.65-2.08,3.13,1.02,5.8,2.98,7.71,5.66l14.52,20.42c2.86-1.71,6.21-2.45,9.55-2.07.35.04.71.09,1.06.16.68.12,1.35.29,2,.51.33.11.65.23.97.35.3-.25.61-.49.93-.71,3.94-2.81,9.04-3.59,13.65-2.09.33.11.66.23.98.36.3-.25.61-.49.93-.71,3.73-2.66,8.41-3.51,12.85-2.32.27.07.53.15.8.24,3.13,1.02,5.8,2.98,7.71,5.66l10.87,15.43,20.7-18.65-9.88-80.31-144.78,26.22,17.1,103.23,38.33,1.48Z" style="fill: none;"/>
    </clipPath>
    <clipPath id="uuid-96c36ff1-94f3-43d5-bb23-0186064f219c">
      <rect x="119.8" y="168.67" width="117.24" height="81.42" style="fill: none;"/>
    </clipPath>
  </defs>
  <path d="M134.21,91.38c8.25,0,14.95-6.69,14.95-14.95V24.89c0-8.25-6.69-14.95-14.95-14.95H26.45c-8.69,0-15.73,7.04-15.73,15.73v49.97c0,3.97,1.48,7.58,3.9,10.35h-.44c2.74,3.29,6.87,5.38,11.48,5.38h108.54Z" style="fill: #c1272d;"/>
  <path d="M132.2,71.05V19.51c0-3.64-1.3-6.97-3.46-9.56H25.66c-8.25,0-14.95,6.69-14.95,14.95v51.54c0,3.64,1.3,6.97,3.46,9.56h103.07c8.25,0,14.95-6.69,14.95-14.95Z" style="fill: #d35464;"/>
  <text transform="translate(65.55 71.5)" style="fill: #fff; font-family: MozaicGEOVariable-Black, &apos;Mozaic GEO Variable&apos;; font-size: 69.82px; font-variation-settings: &apos;wght&apos; 900; font-weight: 800;"><tspan x="0" y="0">1</tspan></text>
  <text transform="translate(65.55 71.5)" style="fill: #fff; font-family: MozaicGEOVariable-Black, &apos;Mozaic GEO Variable&apos;; font-size: 69.82px; font-variation-settings: &apos;wght&apos; 900; font-weight: 800;"><tspan x="0" y="0">1</tspan></text>
  <g style="clip-path: url(#uuid-62d06d6a-fec1-4060-9958-cb4b9fcf7595);">
    <path d="M138.96,157.36v-51.54c0-3.64-1.3-6.97-3.46-9.56H32.42c-8.25,0-14.95,6.69-14.95,14.95v51.54c0,3.64,1.3,6.97,3.46,9.56h103.07c8.25,0,14.95-6.69,14.95-14.95Z" style="fill: #f9a450;"/>
    <path d="M155.91,162.74v-51.54c0-8.25-6.69-14.95-14.95-14.95h-5.47c2.16,2.59,3.46,5.92,3.46,9.56v51.54c0,8.25-6.69,14.95-14.95,14.95H20.94c2.74,3.29,6.87,5.38,11.48,5.38h108.54c8.25,0,14.95-6.69,14.95-14.95Z" style="fill: #ef7f18;"/>
    <text transform="translate(67.1 157.82)" style="fill: #fff; font-family: MozaicGEOVariable-Black, &apos;Mozaic GEO Variable&apos;; font-size: 69.82px; font-variation-settings: &apos;wght&apos; 900; font-weight: 800;"><tspan x="0" y="0">2</tspan></text>
  </g>
  <g>
    <g style="clip-path: url(#uuid-5dca8331-2a69-4cda-9f34-98a445c4f8de);">
      <path d="M228.53,182.1l-8.21-50.88c-.58-3.59-2.4-6.68-4.94-8.89l-101.76,16.42c-8.15,1.31-13.69,8.99-12.38,17.14l8.21,50.88c.58,3.59,2.4,6.68,4.94,8.89l101.76-16.42c8.15-1.31,13.69-8.99,12.38-17.14Z" style="fill: #63ce6d;"/>
      <g>
        <path d="M220.78,121.46l-5.4.87c2.55,2.21,4.36,5.3,4.94,8.89l8.21,50.88c1.31,8.15-4.23,15.82-12.38,17.14l-101.76,16.42c3.23,2.81,7.64,4.22,12.19,3.49l107.16-17.29c8.15-1.31,13.69-8.99,12.38-17.14l-8.21-50.88c-1.31-8.15-8.99-13.69-17.14-12.38Z" style="fill: #39b54a;"/>
        <text transform="translate(157.43 194) rotate(-9.17)" style="fill: #fff; font-family: MozaicGEOVariable-Black, &apos;Mozaic GEO Variable&apos;; font-size: 69.82px; font-variation-settings: &apos;wght&apos; 900; font-weight: 800;"><tspan x="0" y="0">3</tspan></text>
      </g>
    </g>
    <g style="clip-path: url(#uuid-96c36ff1-94f3-43d5-bb23-0186064f219c);">
      <g>
        <path d="M129.47,192.45l26.83,37.48-2.6,15.55c-1.49,8.88,3.93,17.42,12.57,19.88,0,0,51.42-7.64,52.29-8.26l16.33-7.94c1.16-.83,1.71-2.27,1.38-3.66l-.3-1.29c-2.84-11.74-7.87-22.75-14.97-32.7l-8.18-11.46c-3.38-4.74-9.99-5.84-14.73-2.46-1.12.8-2.03,1.77-2.74,2.86-3.6-2.94-8.86-3.24-12.81-.42-1.12.8-2.03,1.77-2.74,2.86-1.6-1.31-3.52-2.09-5.52-2.31-2.5-.28-5.1.32-7.3,1.89-1,.72-1.85,1.58-2.51,2.54l-17.81-24.84c-3.38-4.74-9.99-5.84-14.73-2.46s-5.84,9.99-2.46,14.73Z" style="fill: #f9a450;"/>
        <path d="M179.8,202.9c.7-1.09,1.62-2.07,2.74-2.86,3.96-2.82,9.22-2.52,12.81.42.7-1.09,1.62-2.07,2.74-2.86,4.74-3.38,11.35-2.28,14.73,2.46l8.18,11.46c7.1,9.95,12.14,20.96,14.97,32.7l1.49,6.03c.33,1.39-.22,2.84-1.38,3.66l-24.27-.89-37.52-52.43c1.99.22,3.92,1,5.52,2.31Z" style="fill: #ef7f18;"/>
      </g>
    </g>
  </g>
</svg>