<?xml version="1.0" encoding="UTF-8"?>
<svg id="uuid-7b5743e0-5d59-4bc2-b958-35b5d6d85d9d" data-name="Capa 1" xmlns="http://www.w3.org/2000/svg" width="250" height="250" viewBox="0 0 250 250">
  <path d="M186.72,158.14c-8.12,1.51-11.24,13.89-4.45,19.21,1.81,1.42,4.29,2.13,6.84,2.21v-21.56c-.83-.03-1.64,0-2.4.15Z" style="fill: none;"/>
  <path d="M196.73,219.25c4.72-3.96,5.19-10.84,1-15.43-2.31-2.53-5.49-3.6-8.61-3.49v21.31c2.85,0,5.71-.8,7.61-2.4Z" style="fill: none;"/>
  <path d="M178.33,210.73c-.01,2.31,1.33,6.33,2.88,7.99,1.83,1.97,4.86,2.92,7.92,2.93v-21.31c-5.48.21-10.76,4.11-10.79,10.39Z" style="fill: none;"/>
  <path d="M198.99,175.64c2.14-2.73,2.15-8.13.84-11.26-1.58-3.78-6.41-6.22-10.71-6.39v21.56c3.81.11,7.77-1.23,9.87-3.91Z" style="fill: none;"/>
  <path d="M181.2,218.72c-1.55-1.66-2.89-5.68-2.88-7.99.03-6.28,5.31-10.18,10.79-10.39v-20.78c-2.55-.07-5.03-.79-6.84-2.21-6.79-5.32-3.68-17.7,4.45-19.21.76-.14,1.57-.18,2.4-.15v-21.04c-10.57-.05-21.2.18-29.87.92-15.13,1.3-20.56,7.25-21.52,22.38-1.1,17.32-1.12,43,.03,60.3.36,5.34.91,11.03,4.57,15.09,3.91,4.35,8.95,6.86,14.73,6.89,10.6.06,21.3.15,32.06.18v-21.06c-3.05-.01-6.09-.96-7.92-2.93Z" style="fill: #63ce6d;"/>
  <path d="M242.63,156.31c0-3.15-3.4-10.16-5.5-12.52-5.15-5.81-13.74-5.82-21.05-6.15-7.95-.36-17.44-.64-26.97-.69v21.04c4.3.18,9.13,2.61,10.71,6.39,1.31,3.13,1.3,8.53-.84,11.26-2.1,2.68-6.06,4.02-9.87,3.91v20.78c3.12-.12,6.3.96,8.61,3.49,4.19,4.58,3.72,11.47-1,15.43-1.9,1.6-4.76,2.41-7.61,2.4v21.06c10.89.03,21.84-.01,32.82-.21,9.42-.4,19.84-9.02,20.67-18.64.92-20.43-.02-47.29.01-67.55Z" style="fill: #39b54a;"/>
  <path d="M167.68,6.89c-15.43.36-28.16,3.49-29.92,21.06-1.79,17.9-2.1,49.21.07,66.75,1.6,12.91,9.71,17.33,21.88,18.09,8.74.55,19.1.76,29.41.72V7.01c-7.17-.17-14.32-.29-21.44-.13Z" style="fill: #f9a450;"/>
  <path d="M237.73,104.64c2.76-3.17,4.44-6.3,4.85-10.54,1.49-15.55.5-36.66,0-52.44-.23-7.21,1.4-15.42-2.06-22.13-3.31-6.41-9.78-10.34-16.56-12.27-11.55.44-23.21.03-34.83-.25v106.49c9.46-.04,18.88-.29,26.96-.68,8.94-.44,15.46-1.08,21.65-8.17Z" style="fill: #ef7f18;"/>
  <path d="M23.07,138.61c-19.09,4.89-15.57,24.63-15.72,40.03-.15,15.32-1.19,32.48.67,47.82,1.72,14.22,17.75,16.72,29.18,16.74,6.9.01,14.63.11,22.46.13v-105.91c-12.35.28-24.77.87-36.59,1.19Z" style="fill: #d35464;"/>
  <path d="M112.12,155.12c-.23-2.06-1.18-6.59-2.23-8.26-.6-.94-2.33-2.97-2.94-3.57-5.19-5.15-11.63-5.31-18.62-5.65-9.3-.46-18.97-.43-28.67-.22v105.91c10.86.02,21.93-.11,31.26-.84,11.39-.89,20.47-7.48,21.33-19.3,1.6-21.96-1.19-45.95-.12-68.08Z" style="fill: #c1272d;"/>
  <path d="M27.35,7.27c-10.58,2.21-19.04,9.57-19.96,20.67-1.32,15.96-.65,38.75-.04,55.06.15,4.13.33,12.81,1.37,16.32,2.17,7.32,10.67,12.75,18,13.45,10.33,1,21.6.8,32.94.37V7.14c-10.97.43-21.96.88-32.31.13Z" style="fill: #54c3ea;"/>
  <path d="M95.74,112.73c10.33-1.05,15.74-8.89,16.51-19.9,1.51-21.66-1.2-45.04,0-66.89-.48-6.34-5.54-12.73-6.1-13.23-2.7-2.42-8.95-5.06-12.61-5.41-10.75-1.03-22.3-.61-33.88-.16v106c12.22-.47,24.8-.57,36.08-.42Z" style="fill: #0f9fd1;"/>
  <path d="M186.72,158.14c4.71-.88,11.23,1.74,13.11,6.24,1.31,3.13,1.3,8.53-.84,11.26-3.51,4.48-12.2,5.24-16.71,1.7-6.79-5.32-3.68-17.7,4.45-19.21Z" style="fill: #fff;"/>
  <path d="M181.2,218.72c-1.55-1.66-2.89-5.68-2.88-7.99.04-9.85,13.03-13.88,19.41-6.9,4.19,4.58,3.72,11.47-1,15.43-3.95,3.31-11.99,3.27-15.53-.53Z" style="fill: #fff;"/>
  <path d="M220.97,69.54c-.07.11-2.16,1.31-2.29,1.31l-57.91-.15c-1.09,0-1.97-.89-1.98-1.98l-.05-16.85c0-1.1.89-1.99,1.98-1.99h59.27c.07,0,.98.91.98.98,0,2.6.51,17.89,0,18.67Z" style="fill: #fff;"/>
  <path d="M75.18,190.4l10.3-10.3c2.6-2.6,2.6-6.82,0-9.42l-6.18-6.18c-2.6-2.6-6.82-2.6-9.42,0l-10.3,10.3-10.3-10.3c-2.6-2.6-6.82-2.6-9.42,0l-6.18,6.18c-2.6,2.6-2.6,6.82,0,9.42l10.3,10.3-10.3,10.3c-2.6,2.6-2.6,6.82,0,9.42l6.18,6.18c2.6,2.6,6.82,2.6,9.42,0l10.3-10.3,10.3,10.3c2.6,2.6,6.82,2.6,9.42,0l6.18-6.18c2.6-2.6,2.6-6.82,0-9.42l-10.3-10.3Z" style="fill: #fff;"/>
  <path d="M70.71,49.04v-14.57c0-3.68-2.98-6.66-6.66-6.66h-8.74c-3.68,0-6.66,2.98-6.66,6.66v14.57h-14.57c-3.68,0-6.66,2.98-6.66,6.66v8.74c0,3.68,2.98,6.66,6.66,6.66h14.57v14.57c0,3.68,2.98,6.66,6.66,6.66h8.74c3.68,0,6.66-2.98,6.66-6.66v-14.57h14.57c3.68,0,6.66-2.98,6.66-6.66v-8.74c0-3.68-2.98-6.66-6.66-6.66h-14.57Z" style="fill: #fff;"/>
</svg>