<?xml version="1.0" encoding="UTF-8"?>
<svg id="uuid-27413c95-dcab-4a75-b389-b7bf82284266" data-name="Capa 1" xmlns="http://www.w3.org/2000/svg" width="250" height="250" viewBox="0 0 250 250">
  <path d="M124.41,139.4c2.82-1.29,1.1-7.88-1.29-8.32-1.59-.29-3.92,0-5.59.17-9,.92-18.15,2.47-27.3,4.08l1.58,10.11c11-1.53,21.97-3.12,32.6-6.06Z" style="fill: none;"/>
  <path d="M63.01,58.33c-3.22,4.17-12.48,15.9-13.66,20.22-2.38,8.66,6.2,13.79,12.04,18.32,4.09,3.17,18.75,14.24,22.84,14.9.79.13,1.58.18,2.34.16l-10.5-67.11c-5.33,2.01-9.79,9.29-13.05,13.51Z" style="fill: none;"/>
  <path d="M118.54,172.52c2.1-.38,10.77-1.68,11.63-3.09,1.29-2.13-.53-7.99-3.72-8.12l-31.42,4.77,1.52,9.72c7.35-.98,14.7-1.97,21.99-3.27Z" style="fill: none;"/>
  <path d="M62.85,150.22c9.52-2.12,19.25-3.41,28.96-4.76l-1.58-10.11c-9.77,1.72-19.56,3.52-29.19,4.7-3.73.5-1.74,10.49,1.81,10.18Z" style="fill: none;"/>
  <path d="M68.04,180.28c9.42-1.94,18.97-3.21,28.52-4.49l-1.52-9.72-29.1,4.41c-4.52.46-2.35,11.46,2.1,9.79Z" style="fill: none;"/>
  <path d="M92.93,109.9c3.72-2.36,20.98-25.58,22.5-29.94,3.85-11.03-3.48-15.17-10.99-20.95-4.71-3.63-18.49-14.29-23.65-14.75-1.11-.1-1.86-.06-2.95.09-.6.08-1.19.24-1.77.46l10.5,67.11c2.25-.07,4.38-.76,6.36-2.02Z" style="fill: none;"/>
  <path d="M191.62,175.81c1.64-.32,3.1-6.2,2.81-7.26-.43-1.54-8.76-3.1-10.66-3.45-1.27-.23-2.56-.43-3.87-.61l-1.73,9.3c5.63,1.18,11.53,2.39,13.44,2.02Z" style="fill: none;"/>
  <path d="M191.55,137.41c4.41-.57,8.86-6.37,7.14-10.84-2.99-6.77-5.37-14.05-7.76-21.3l-5.88,31.6c2.94.45,5.32.7,6.51.54Z" style="fill: none;"/>
  <path d="M188,203.82c.54-.34,3-7.23.7-8.5-1.91-1.06-8.91-2.09-13.99-2.93l-1.75,9.38c6.01,1.3,13.27,3.17,15.04,2.05Z" style="fill: none;"/>
  <path d="M68.04,180.28c-4.45,1.67-6.62-9.34-2.1-9.79l29.1-4.41-3.23-20.62c-9.71,1.35-19.44,2.64-28.96,4.76-3.55.32-5.54-9.68-1.81-10.18,9.63-1.18,19.41-2.98,29.19-4.7l-3.67-23.42-10.5-67.11-4.1-26.17c-16.09,2.24-37.64,5.14-52.83,8.91-4.32,1.07-7.59,3.16-7.09,8.47.96,10.2,23.92,154.93,27.96,169.41,2.35,8.44,5.1,6.66,12.61,5.76,7.33-.87,17.84-2.96,25.14-4.02,7.45-1.08,15.31-2.01,23.27-2.94l-4.45-28.45c-9.55,1.28-19.1,2.55-28.52,4.49Z" style="fill: #54c3ea;"/>
  <path d="M158.17,186.79c-5.84-47.78-13.05-92.83-20.57-140.43-1.46-9.27-1.85-20.18-4.74-29.13-1.31-4.05-3.15-6.42-7.81-5.6-17.7,2.57-35.55,4.57-53.09,7.01l4.1,26.17,10.5,67.11,3.67,23.42c9.16-1.62,18.31-3.17,27.3-4.08,1.67-.17,3.99-.47,5.59-.17,2.39.44,4.11,7.02,1.29,8.32-10.62,2.94-21.6,4.53-32.6,6.06l3.23,20.62,31.42-4.77c3.18.13,5,5.98,3.72,8.12-.85,1.41-9.52,2.71-11.63,3.09-7.28,1.3-14.63,2.29-21.99,3.27l4.45,28.45c15.76-1.85,31.93-3.74,46.26-6.89,4.67-1.03,11.64-3.48,10.9-10.55Z" style="fill: #0f9fd1;"/>
  <path d="M230.49,53.96l-29.09-4.93-10.47,56.24c2.39,7.25,4.77,14.53,7.76,21.3,1.72,4.47-2.72,10.27-7.14,10.84-1.19.15-3.57-.09-6.51-.54l-5.14,27.62c1.31.18,2.6.37,3.87.61,1.89.35,10.23,1.91,10.66,3.45.3,1.06-1.16,6.94-2.81,7.26-1.92.37-7.82-.83-13.44-2.02l-3.46,18.59c5.08.83,12.07,1.87,13.99,2.93,2.3,1.27-.16,8.16-.7,8.5-1.77,1.12-9.03-.75-15.04-2.05l-5.9,31.67c14.96,2.43,28.29,4.31,34.86,5.06,1.28.15,3.53-.29,5.18-2.04,2.48-2.61,5.53-22.04,6.38-26.69,8.17-44.38,16.56-90.84,23.06-135.42,1.13-7.76,4.61-18.48-6.07-20.4Z" style="fill: #c1272d;"/>
  <g>
    <path d="M155.11,96.6l.12.79c1.12-1.03,4.63-6.23,8.43-10.79l-6.2-45-10.98-1.86,8.63,56.86Z" style="fill: #c1272d;"/>
    <path d="M172.38,79.31c6.61-.92,8.63.08,11.08,5.61,2.86,6.44,5.17,13.38,7.47,20.35l10.47-56.24-43.93-7.44,6.2,45c3.07-3.68,6.34-6.95,8.72-7.29Z" style="fill: #d35464;"/>
    <path d="M165.42,200.72c-3.1,1.86-7.64,4.07-15.09,5.44l-47.85,7.51,1.08,6.89-1.08-6.89-7.19,1.13c-.66,3.95,2.45,4.58,5.6,5.54,2.34.71,6.54,1.73,11.96,2.92l58.18-11.11,1.93-10.37c-3.22-.7-6.28-1.81-7.54-1.05Z" style="fill: #c1272d;"/>
    <path d="M167.07,233.44l3.97-21.3-58.18,11.11c13.73,3.01,35.27,7.12,54.21,10.19Z" style="fill: #d35464;"/>
    <path d="M160.56,133l4.59,29.29c2.96.7,6.05,1.13,9.14,1.51l-4.08-29.59c-5.12-.95-9.22-1.63-9.66-1.2Z" style="fill: #c1272d;"/>
    <path d="M179.9,164.5l5.14-27.62c-4.4-.67-10.06-1.79-14.83-2.67l4.08,29.59c1.88.23,3.76.45,5.61.7Z" style="fill: #d35464;"/>
    <path d="M166.33,171.97l2.83,19.2c.21.31,2.54.72,5.55,1.21l2.03-10.88-1.14-8.26c-4.73-.99-8.75-1.77-9.27-1.28Z" style="fill: #c1272d;"/>
    <path d="M178.17,173.8c-.87-.18-1.73-.36-2.57-.54l1.14,8.26,1.44-7.72Z" style="fill: #d35464;"/>
  </g>
  <path d="M165.42,200.72c4.18-.52,19.86,4.82,22.58,3.1.54-.34,3-7.23.7-8.5-3.04-1.68-18.97-3.32-19.53-4.14l-.04-.3c.52,6.32-2.3,8.77-3.7,9.84Z" style="fill: #ccc;"/>
  <g>
    <path d="M177.73,99.08c-.73-1.71-1.4-3.24-1.99-4.48.58,1.24,1.26,2.77,1.99,4.48Z" style="fill: none;"/>
    <path d="M175.32,93.72c-.27-.55-.51-1.02-.72-1.4.21.38.45.85.72,1.4Z" style="fill: none;"/>
    <path d="M186.44,121.02c.4,1.05.76,2.02,1.09,2.92h0c-.33-.89-.69-1.87-1.09-2.92Z" style="fill: none;"/>
    <path d="M174.6,92.32c-.21-.38-.39-.67-.54-.86.15.19.33.48.54.86Z" style="fill: none;"/>
    <path d="M188.73,127.25c-.3-.86-.71-1.99-1.2-3.31h0c.49,1.31.9,2.45,1.2,3.31h0Z" style="fill: none;"/>
    <path d="M185.94,119.69c-.34-.91-.7-1.85-1.08-2.83.37.97.73,1.92,1.08,2.83Z" style="fill: none;"/>
    <path d="M182.5,110.81c-.81-2.06-1.64-4.14-2.45-6.12.81,1.99,1.64,4.06,2.45,6.12Z" style="fill: none;"/>
    <path d="M176.73,181.67l1.47-7.86c-.9-.19-1.8-.38-2.67-.56l1.2,8.42Z" style="fill: none;"/>
    <path d="M183.71,113.88c-.39-1.01-.8-2.04-1.2-3.08.41,1.03.81,2.06,1.2,3.08Z" style="fill: none;"/>
    <path d="M178.86,101.78c-.39-.94-.77-1.84-1.13-2.7.37.86.74,1.76,1.13,2.7Z" style="fill: none;"/>
    <path d="M165.2,100.88h0c1.65-1.98,3.28-3.95,4.95-5.9-1.59,1.86-3.24,3.93-4.95,5.9Z" style="fill: none;"/>
    <path d="M169.96,134.21l4.22,29.57c1.93.24,3.86.47,5.76.73l5.16-27.61c-4.48-.66-10.28-1.79-15.14-2.69Z" style="fill: none;"/>
    <path d="M187.53,123.94l-.57,3.03,1.77.27c-.3-.86-.71-1.99-1.2-3.31Z" style="fill: #ef7f18;"/>
    <path d="M186.96,126.97l.57-3.03c-.33-.89-.69-1.87-1.09-2.92-.16-.43-.33-.88-.5-1.33-.34-.91-.7-1.85-1.08-2.83-.37-.97-.76-1.97-1.15-2.99s-.8-2.04-1.2-3.08c-.81-2.06-1.64-4.14-2.45-6.12-.4-.99-.8-1.96-1.19-2.9s-.77-1.84-1.13-2.7c-.73-1.71-1.4-3.24-1.99-4.48-.15-.31-.29-.6-.42-.88-.27-.55-.51-1.02-.72-1.4-.21-.38-.39-.67-.54-.86s-.26-.28-.34-.26c-1.83,1.51-2.04,1.98-3.57,3.78-1.66,1.95-3.3,3.93-4.95,5.89l3.32,23.24,18.44,2.86Z" style="fill: #f9a450;"/>
    <polygon points="165.21 100.87 157 109.8 159.02 122.65 168.52 124.11 165.21 100.87" style="fill: #ef7f18;"/>
    <path d="M155.23,97.39l1.8,12.42,8.17-8.93-1.97-13.85c-3.56,4.32-6.8,9.09-8,10.35Z" style="fill: #ccc;"/>
    <path d="M186.96,126.98l-18.44-2.84,1.44,10.07c4.86.9,10.66,2.02,15.14,2.69l1.86-9.92Z" style="fill: #fff;"/>
    <path d="M188.73,127.25h0s-1.77-.27-1.77-.27l-1.86,9.92c2.91.43,5.27.67,6.45.52,4.41-.57,8.86-6.37,7.14-10.84-2.96-6.71-5.33-13.92-7.7-21.12l-3.46,18.49c.49,1.31.9,2.45,1.2,3.31Z" style="fill: #ccc;"/>
    <path d="M159.02,122.63l1.38,10.32c.54-.34,4.55.33,9.57,1.26l-1.44-10.07-9.51-1.5Z" style="fill: #ccc;"/>
    <path d="M173.72,91.2c.07-.02.19.07.34.26.15.19.33.48.54.86.21.38.45.85.72,1.4.13.27.27.57.42.88.58,1.24,1.26,2.77,1.99,4.48.37.86.74,1.76,1.13,2.7s.79,1.91,1.19,2.9c.81,1.99,1.64,4.06,2.45,6.12.41,1.03.81,2.06,1.2,3.08s.78,2.01,1.15,2.99c.37.97.73,1.92,1.08,2.83.17.45.34.9.5,1.33.4,1.05.76,2.02,1.09,2.92l3.46-18.49c-2.32-7.03-4.64-14.04-7.53-20.53-2.46-5.53-4.47-6.53-11.08-5.61-2.51.35-5.96,3.86-9.15,7.73l1.97,13.85c1.7-1.97,3.36-4.04,4.95-5.9,1.53-1.8,1.74-2.27,3.57-3.78Z" style="fill: #fff;"/>
    <rect x="187.85" y="126.22" width="0" height="1.79" transform="translate(33.42 293.23) rotate(-81.17)" style="fill: #fff;"/>
    <polygon points="168.52 124.11 168.53 124.14 186.96 126.98 186.96 126.97 168.52 124.11" style="fill: #fff;"/>
    <line x1="168.53" y1="124.14" x2="168.52" y2="124.11" style="fill: #fff;"/>
    <path d="M191.62,175.81c1.64-.32,3.1-6.2,2.81-7.26-.43-1.54-8.76-3.1-10.66-3.45-1.25-.23-2.53-.42-3.82-.6l-1.74,9.3c5.62,1.18,11.5,2.38,13.41,2.01Z" style="fill: #ccc;"/>
    <path d="M175.53,173.24c.87.18,1.77.37,2.67.56l1.74-9.3c-1.9-.26-3.83-.49-5.76-.73l1.35,9.47Z" style="fill: #fff;"/>
    <path d="M165.15,162.28s-.01-.06-.02-.09l1.2,9.77c.52-.48,4.51.29,9.2,1.27l-1.35-9.47c-3.05-.38-6.1-.8-9.03-1.49Z" style="fill: #ccc;"/>
  </g>
  <g>
    <path d="M77.1,53.91l-19.26,28.17c2.83,2.68,22.48,17.69,27.37,19.88l-7.38-48.25c-.26.01-.51.07-.73.2Z" style="fill: #f9a450;"/>
    <path d="M104.81,72.33c-2.93-2.86-20.82-15.97-24.39-17.81-.7-.36-1.71-.85-2.58-.81l7.38,48.25c.45.2.78.3.96.27,1.09-.58,1.82-1.6,2.6-2.51,4.22-4.92,10.4-13.66,14.08-19.17,2.11-3.16,4.8-5.45,1.96-8.23Z" style="fill: #ef7f18;"/>
  </g>
  <path d="M86.17,102.23c1.09-.58,1.82-1.6,2.6-2.51,4.22-4.92,10.4-13.66,14.08-19.17,2.11-3.16,4.8-5.45,1.96-8.23-2.93-2.86-20.82-15.97-24.39-17.81-.8-.41-2.01-1-2.94-.76l7.59,48.14c.53.25.91.37,1.11.34Z" style="fill: none;"/>
  <path d="M57.85,82.08c2.8,2.65,22.07,17.38,27.22,19.81l-7.59-48.14c-.13.03-.26.08-.37.15l-19.26,28.17Z" style="fill: none;"/>
  <path d="M123.12,131.09c-1.59-.29-3.92,0-5.59.17-8.96.91-18.07,2.46-27.2,4.06l1.59,10.12c10.96-1.52,21.89-3.11,32.48-6.04,2.82-1.29,1.1-7.88-1.29-8.32Z" style="fill: #ccc;"/>
  <path d="M61.04,140.04c-3.73.5-1.74,10.49,1.81,10.18,9.56-2.13,19.33-3.43,29.08-4.78l-1.59-10.12c-9.81,1.73-19.63,3.53-29.29,4.72Z" style="fill: #fff;"/>
  <path d="M65.94,170.49c-4.52.46-2.35,11.46,2.1,9.79,9.47-1.95,19.07-3.23,28.67-4.51l-1.53-9.72-29.24,4.43Z" style="fill: #fff;"/>
  <path d="M126.45,161.31l-31.28,4.74,1.53,9.72c7.3-.98,14.6-1.96,21.84-3.25,2.1-.38,10.77-1.68,11.63-3.09,1.29-2.13-.53-7.99-3.72-8.12Z" style="fill: #ccc;"/>
  <path d="M114.42,79.97c3.85-11.03-3.48-15.17-10.99-20.95-4.71-3.63-18.49-14.29-23.65-14.75-1.11-.1-1.86-.06-2.95.09-.27.04-.53.11-.8.17l1.45,9.23c.94-.24,2.14.35,2.94.76,3.57,1.84,21.47,14.95,24.39,17.81,2.84,2.78.15,5.07-1.96,8.23-3.68,5.51-9.86,14.25-14.08,19.17-.78.91-1.51,1.92-2.6,2.51-.2.04-.58-.08-1.11-.34l1.57,9.95c1.86-.22,3.63-.89,5.29-1.94,3.72-2.36,20.98-25.58,22.5-29.94Z" style="fill: #ccc;"/>
  <path d="M57.85,82.08l19.26-28.17c.12-.07.24-.12.37-.15l-1.45-9.23c-5.76,1.43-10.56,9.32-14.01,13.8-3.22,4.17-12.48,15.9-13.66,20.22-2.38,8.66,6.2,13.79,12.04,18.32,4.09,3.17,18.75,14.24,22.84,14.9,1.17.19,2.31.21,3.42.08l-1.57-9.95c-5.15-2.44-24.41-17.16-27.22-19.81Z" style="fill: #fff;"/>
</svg>