<?xml version="1.0" encoding="UTF-8"?>
<svg id="uuid-9b56c451-f05e-4ba8-83e9-0892855e6a42" data-name="Capa 1" xmlns="http://www.w3.org/2000/svg" width="250" height="250" viewBox="0 0 250 250">
  <path d="M94.5,30.53L24.78,66.4l.03,22.72c3.62,2.06,13.25,7.53,24.21,13.76l45.35-48.6.12-23.77Z" style="fill: #c1272d;"/>
  <path d="M193.74,51.74L129.28,7.1l-20.04,10.72c-.12,4.38-.44,16.4-.8,29.82l64.68,14.96,20.62-10.86Z" style="fill: #39b54a;"/>
  <path d="M225.23,146.28l3.81-78.31-19.69-11.34c-3.76,2.2-14.04,8.23-25.54,14.97l18.76,61.44,22.66,13.25Z" style="fill: #0f9fd1;"/>
  <path d="M26.95,104.57l-5.98,78.18,19.37,11.88c4.06-2.23,15.62-8.58,28.19-15.48l-18.36-60.12-23.22-14.46Z" style="fill: #ef7f18;"/>
  <path d="M56.88,201.33l65.37,43.3,19.81-11.13c.03-4.68.11-18.11.21-32.63l-59.63-13.79-25.75,14.25Z" style="fill: #c6b910;"/>
  <path d="M200.24,148.49l-42.77,45.84-.07,28.02,69.62-36.06-.09-22.72c-3.89-2.2-14.72-8.31-26.68-15.07Z" style="fill: #a324aa;"/>
  <path d="M94.38,54.29l-45.35,48.6c20.21,11.49,44.96,25.57,44.96,25.57l.39-74.16Z" style="fill: #d35464;"/>
  <path d="M173.11,62.6l-64.68-14.96c-.62,22.85-1.35,49.73-1.35,49.73l66.03-34.77Z" style="fill: #63ce6d;"/>
  <path d="M202.57,133.03l-18.76-61.44c-19.76,11.58-43.12,25.26-43.12,25.26l61.88,36.18Z" style="fill: #54c3ea;"/>
  <path d="M50.17,119.03l18.36,60.12c19.56-10.74,41.56-22.82,41.56-22.82l-59.91-37.3Z" style="fill: #f9a450;"/>
  <path d="M82.63,187.08l59.63,13.79c.14-22.19.31-46.95.31-46.95l-59.94,33.16Z" style="fill: #e2d347;"/>
  <path d="M157.65,124.42l-.18,69.91,42.77-45.84c-19.74-11.16-42.6-24.07-42.6-24.07Z" style="fill: #c552ce;"/>
</svg>