<?xml version="1.0" encoding="UTF-8"?>
<svg id="uuid-2b96e966-6d64-4958-b642-8da5b75859d2" data-name="Capa 1" xmlns="http://www.w3.org/2000/svg" width="250" height="250" viewBox="0 0 250 250">
  <path d="M27.6,38.6c-1.05.68-1.22,8.08-4.37,9.74-5.51,2.9-10.64-1.84-10-7.68.93-8.47,9.98-16.4,18.67-15.05,5.31.82,6.69,8.2,2.81,11.54-2.64,2.28-6.13.81-7.11,1.45Z" style="fill: #39b54a;"/>
  <path d="M26.65,210.12c3.51.06,9.57,1.17,10.15,5.34,1.39,9.99-9.58,9.37-15.71,5.53-5.32-3.33-11.45-14.78-5.29-19.55,2.49-1.93,6.38-1.67,8.73.39,1.93,1.69,1.61,5.85,2.12,8.29Z" style="fill: #39b54a;"/>
  <path d="M71.82,215.12c1,4.99-1.96,8.19-6.71,8.8-2.96.39-9.9.43-12.61-.57-6.21-2.3-5.58-11.56,1.28-12.6,2.79-.43,13.83-.63,15.64,1.24.57.59,2.02,1.33,2.39,3.13Z" style="fill: #39b54a;"/>
  <path d="M105.09,212.63c3.21,3.29,1.4,9.56-2.99,10.81-3.08.88-11.56,1.02-14.54,0-6-2.04-6.16-11.52.91-12.71,2.36-.4,10.47-.45,12.81-.08.9.14,3.19,1.34,3.81,1.98Z" style="fill: #39b54a;"/>
  <path d="M68.73,25.86c1.82.49,2.56,2.71,2.9,3.53,1.41,3.41-.77,8-4.31,8.93-2,.52-11.86.6-14.1.2-6.65-1.2-6.65-12.13.44-12.93,2.07-.24,12.52-.38,15.07.28Z" style="fill: #39b54a;"/>
  <path d="M24.62,152.2c-3.18,2.89-9.27,1.73-10.82-2.54-1.18-3.26-1.07-13.93.86-16.9,2.3-3.54,9.47-3.06,11.07.84.95,2.31.92,13.86.1,16.34-.19.58-.79,1.88-1.21,2.26Z" style="fill: #39b54a;"/>
  <path d="M15.18,166.82c2.69-2.61,9.5-1.84,10.65,2.25.77,2.72.79,12.06.28,14.93-1.19,6.75-12.03,6.59-12.92-2.29-.35-3.44-.54-12.43,1.98-14.89Z" style="fill: #39b54a;"/>
  <path d="M105.11,27.57c.5.63,1.95,4.68,1.82,5.42-.43,2.49-3.23,5.02-5.72,5.44-2.29.39-11.01.53-13.19,0-2.82-.69-5.1-4.17-4.94-6.99.13-2.14,2.35-5.28,4.46-5.75,2.26-.51,13.32-.4,15.52.48.26.1,1.92,1.24,2.05,1.41Z" style="fill: #39b54a;"/>
  <path d="M24.16,96.5c.3.24,1.4,1.97,1.56,2.4.77,2.04.77,13.12.22,15.53-1.34,5.91-10.37,5.88-12.16.07-1.11-3.62-1.2-14.63,1.4-17.54,1.78-1.99,6.97-2.06,8.98-.46Z" style="fill: #39b54a;"/>
  <path d="M22.28,60.91c.75,1.19,2.95,1.83,3.44,3.28,1.07,3.23,1.25,16.08-1.31,18.3-4.74,4.11-10.62.09-11.21-5.8-.67-6.71-.8-18.74,9.09-15.79Z" style="fill: #39b54a;"/>
  <g>
    <path d="M199.53,25.56c-16.46.02-51.93.08-68.38.02,0,0,.58,196.09.46,198.46h67.92s0-198.48,0-198.48Z" style="fill: #f9a450;"/>
    <path d="M235.68,53.59c-.09-9.49,2.04-19.29-7.23-25.15-6.12-3.87-10.01-2.8-16.55-2.84,0,0-1.91-.06-12.36-.04v198.48l20.96-.18c9.62-1.95,14.81-7.47,15.51-17.33l-.32-152.94Z" style="fill: #ef7f18;"/>
  </g>
  <g>
    <path d="M131.15,25.58c1.24,26.42.03,53.08.38,79.81-4.43-1.54-9.26-1.51-13.68.08.63-6.7-.51-58.83.37-78.25.16-3.63-1.01-8.91,1.53-11.66,2.14-2.31,5.29-2.65,8.03-1.18,4.37,2.36,3.18,7.05,3.38,11.2Z" style="fill: #a324aa;"/>
    <path d="M132.06,143.97c-1.08,1.19-.45,1.85-.45,2.59v70.32c0,2.22.11,4.81,0,7.17-.08,1.61-.3,4.02-.47,5.78-.74,7.51-9.81,7.78-12.84,1.77,0-22.06-.48-80.39-.58-87.55,4.63,1.7,9.72,1.68,14.33-.07Z" style="fill: #a324aa;"/>
  </g>
  <circle cx="124.8" cy="124.78" r="20.52" style="fill: #fff;"/>
  <path d="M95.54,141.9c2.58,3.39.3,9.54-4.04,10.33-4.96.9-8.37-3.43-11.53-6.53-2.89-2.84-16.39-16.03-17.46-18.39s-.64-3.32.46-5.45c1.61-3.13,17.46-18.83,20.89-21.8.71-.61,2.98-2.47,3.68-2.66,7.44-1.92,11.53,6.57,6.11,11.54l-10.15,9.62c4.88-.26,16.39-.76,21.93-.55-1.52,4.35-1.53,9.1-.03,13.46-4.85-.08-20.99-.58-20.98-.17,0,1.6,9.57,8.58,11.11,10.61Z" style="fill: #a324aa;"/>
  <path d="M143.83,117.11l21.56,1.46c.22-.89-.33-.89-.78-1.3-2.93-2.67-10.91-8.79-11.62-12.46-1.05-5.4,4.36-9.47,9.47-7.14,3.11,1.42,17.87,16.71,20.99,20.2,3,3.36,5.89,6.67,2.53,10.88-3.86,4.83-11.47,11.94-16.13,16.49-3.84,3.75-9.88,10.95-15.4,5.09-4.76-5.05,1.05-11.11,4.92-14.42l5.09-4.15-20.1-.77c1.44-4.55,1.26-9.46-.53-13.88Z" style="fill: #a324aa;"/>
</svg>