<?xml version="1.0" encoding="UTF-8"?>
<svg id="uuid-7a004b0f-b6df-45bb-ba2b-8be041e3caa1" data-name="Capa 1" xmlns="http://www.w3.org/2000/svg" width="250" height="250" viewBox="0 0 250 250">
  <rect x="161.95" y="116.75" width="52.21" height="9.23" style="fill: #54c3ea;"/>
  <rect x="161.95" y="125.97" width="52.21" height="9.23" style="fill: #0f9fd1;"/>
  <rect x="36.93" y="125.97" width="46.82" height="9.23" style="fill: #0f9fd1;"/>
  <rect x="36.93" y="116.75" width="46.82" height="9.23" style="fill: #54c3ea;"/>
  <rect x="90.83" y="31.29" width="68.46" height="9.23" style="fill: #0f9fd1;"/>
  <rect x="90.83" y="22.07" width="68.46" height="9.23" style="fill: #54c3ea;"/>
  <rect x="90.83" y="220.65" width="68.46" height="9.23" style="fill: #0f9fd1;"/>
  <rect x="90.83" y="211.43" width="68.46" height="9.23" style="fill: #54c3ea;"/>
  <path d="M149.57,76.47c1.2.53,2.3,1.17,3.34,1.86l16.77-29.2-8-4.6-17.83,31.03c.9,0,1.41,0,1.41,0,1.48,0,2.95.31,4.3.91Z" style="fill: #63ce6d;"/>
  <path d="M169.68,49.14l-16.77,29.2c2.78,1.86,4.99,4.27,6.52,7.17l18.25-31.77-8-4.6Z" style="fill: #39b54a;"/>
  <rect x="4.67" y="71.18" width="68.46" height="9.23" transform="translate(-46.19 71.77) rotate(-60.12)" style="fill: #f9a450;"/>
  <rect x="12.67" y="75.77" width="68.46" height="9.23" transform="translate(-46.16 81.01) rotate(-60.12)" style="fill: #ef7f18;"/>
  <rect x="170.24" y="165.62" width="68.46" height="9.23" transform="translate(-44.99 262.73) rotate(-60.12)" style="fill: #d35464;"/>
  <rect x="178.24" y="170.21" width="68.46" height="9.23" transform="translate(-44.96 271.98) rotate(-60.12)" style="fill: #c1272d;"/>
  <path d="M101.34,168.11l-19.93,34.7,8,4.6,22.45-39.08c-1.4.05-2.81.09-4.22.09-2.31,0-4.39-.1-6.3-.31Z" style="fill: #a324aa;"/>
  <path d="M81.41,202.81l19.93-34.7c-.58-.06-1.15-.13-1.7-.21-2.68-.39-5.13-1.62-7.13-2.95l-19.11,33.26,8,4.6Z" style="fill: #c552ce;"/>
  <path d="M156.76,178.89l13.81,23.41,7.95-4.69-12.73-21.58c-1.94,1.8-4.49,2.86-7.22,2.86h-1.81Z" style="fill: #39b54a;"/>
  <polygon points="170.56 202.3 156.76 178.89 146.05 178.89 162.62 206.98 170.56 202.3" style="fill: #63ce6d;"/>
  <rect x="206.19" y="40.34" width="9.23" height="68.46" transform="translate(-8.66 117.43) rotate(-30.53)" style="fill: #ef7f18;"/>
  <rect x="198.24" y="45.03" width="9.23" height="68.46" transform="translate(-12.14 114.05) rotate(-30.53)" style="fill: #f9a450;"/>
  <rect x="42.56" y="136.48" width="9.23" height="68.46" transform="translate(-80.19 47.64) rotate(-30.53)" style="fill: #c1272d;"/>
  <rect x="34.61" y="141.17" width="9.23" height="68.46" transform="translate(-83.67 44.25) rotate(-30.53)" style="fill: #d35464;"/>
  <path d="M95.4,76.71c.29-.13.59-.24.89-.35l-15.76-26.72-7.95,4.69,16.07,27.24c1.8-2.01,4.06-3.65,6.75-4.86Z" style="fill: #c552ce;"/>
  <path d="M80.53,49.65l15.76,26.72c1.1-.38,2.25-.58,3.41-.59,0,0,2.77-.01,6.93-.03l-18.16-30.79-7.95,4.69Z" style="fill: #a324aa;"/>
  <polygon points="30.28 118.56 17.77 111.25 17.59 111.35 17.59 140.2 17.62 140.21 30.2 133.04 30.28 118.56" style="fill: #a324aa;"/>
  <polygon points="5.19 118.42 5.11 132.9 17.59 140.2 17.59 111.35 5.19 118.42" style="fill: #c552ce;"/>
  <polygon points="219.8 118.42 219.72 132.9 232.2 140.2 232.2 111.35 219.8 118.42" style="fill: #c552ce;"/>
  <polygon points="232.2 111.35 232.2 140.2 232.23 140.21 244.81 133.04 244.89 118.56 232.38 111.25 232.2 111.35" style="fill: #a324aa;"/>
  <polygon points="165.91 211.64 165.83 226.13 178.33 233.43 178.47 233.36 178.47 204.48 165.91 211.64" style="fill: #f9a450;"/>
  <polygon points="178.47 204.48 178.47 233.36 190.91 226.26 190.99 211.78 178.49 204.47 178.47 204.48" style="fill: #ef7f18;"/>
  <polygon points="71.51 204.35 71.51 233.15 71.57 233.19 84.15 226.02 84.23 211.54 71.73 204.23 71.51 204.35" style="fill: #39b54a;"/>
  <polygon points="59.15 211.4 59.07 225.88 71.51 233.15 71.51 204.35 59.15 211.4" style="fill: #63ce6d;"/>
  <polygon points="190.91 38.6 190.99 24.12 178.49 16.81 178.47 16.82 178.47 45.69 190.91 38.6" style="fill: #c1272d;"/>
  <polygon points="178.47 45.69 178.47 16.82 165.91 23.98 165.83 38.46 178.33 45.77 178.47 45.69" style="fill: #d35464;"/>
  <polygon points="71.17 16.89 59.15 23.74 59.07 38.22 71.17 45.29 71.17 16.89" style="fill: #63ce6d;"/>
  <polygon points="71.57 45.53 84.15 38.36 84.23 23.87 71.73 16.57 71.17 16.89 71.17 45.29 71.57 45.53" style="fill: #39b54a;"/>
  <g>
    <path d="M101.19,157.39c8.68,1.28,19.81-.98,28.78.15l7.35,10.73h21.24l-8.68-13.54c-1.08-1.52,1.45-3.51,1.45-4.09v-43.84h-18.08v32.54h-20.79v-31.19l-1.36-1.36h-16.72v44.75c0,1.88,4.63,5.52,6.81,5.84Z" style="fill: #c1272d;"/>
    <path d="M151.33,104.08c0-6.97,1.51-14.54-6.06-17.9l-45.52.21c-7.47,3.36-5.06,10.97-5.37,17.68h56.95Z" style="fill: #c1272d;"/>
  </g>
</svg>