<?xml version="1.0" encoding="UTF-8"?>
<svg id="uuid-e541ba14-9b26-4dbe-bf64-b54522899169" data-name="Capa 1" xmlns="http://www.w3.org/2000/svg" width="250" height="250" viewBox="0 0 250 250">
  <path d="M158.97,36.94c-3.67-11.05-7.91-19.88-12.63-26.37,38.47,7.16,70.35,33.31,85.52,68.32h-63.69c-2.06-15.5-5.16-29.75-9.21-41.95Z" style="fill: #5d7f87;"/>
  <path d="M91.03,213.06c3.67,11.05,7.91,19.88,12.63,26.37-38.47-7.16-70.35-33.31-85.52-68.32h63.69c2.06,15.5,5.16,29.75,9.21,41.95h0Z" style="fill: #7ea2aa;"/>
  <path d="M80.53,159.85H13.93c-3.46-11.01-5.33-22.71-5.33-34.85s1.87-23.84,5.33-34.85h66.6c-1.08,11.19-1.64,22.89-1.64,34.85s.56,23.66,1.64,34.85Z" style="fill: #7ea2aa;"/>
  <path d="M240.73,137.48c.44-4.1.67-8.27.67-12.48,0-12.14-1.87-23.84-5.33-34.85h-66.6c.86,8.88,1.38,18.09,1.56,27.48,5.62-1.39,11.49-2.14,17.53-2.14,20.42,0,38.9,8.43,52.17,21.99Z" style="fill: #5d7f87;"/>
  <g>
    <path d="M101.72,40.49c-3.7,11.17-6.58,24.2-8.54,38.4h31.09V8.63c-7.75.7-16.13,12.5-22.55,31.85Z" style="fill: #7ea2aa;"/>
    <path d="M148.28,40.49c-6.62-19.97-15.33-31.89-23.28-31.89-.24,0-.49.01-.73.03v70.25h32.56c-1.96-14.2-4.84-27.23-8.54-38.4Z" style="fill: #5d7f87;"/>
    <path d="M103.65,10.57c-38.47,7.16-70.35,33.31-85.52,68.32h63.69c2.06-15.5,5.16-29.75,9.21-41.95,3.67-11.05,7.91-19.88,12.63-26.37Z" style="fill: #7ea2aa;"/>
    <path d="M159.81,121.4c-.1-10.73-.65-21.23-1.65-31.25h-33.89v63.74c7.82-14.44,20.36-25.97,35.54-32.49Z" style="fill: #5d7f87;"/>
    <path d="M91.84,90.15c-1.11,11.14-1.69,22.86-1.69,34.85s.58,23.71,1.69,34.85h29.53c.87-2.04,1.84-4.02,2.89-5.96v-63.74h-32.43Z" style="fill: #7ea2aa;"/>
    <path d="M117.61,171.11h-24.44c1.96,14.2,4.84,27.23,8.54,38.4,6.42,19.35,14.79,31.15,22.55,31.85v-18.19c-5.59-10.31-8.77-22.11-8.77-34.64,0-6.01.74-11.84,2.12-17.43Z" style="fill: #7ea2aa;"/>
    <path d="M125,241.4c2.89,0,5.88-1.58,8.83-4.54-3.68-4.17-6.89-8.76-9.56-13.69v18.19c.25.02.49.03.73.03Z" style="fill: #5d7f87;"/>
  </g>
  <g>
    <path d="M188.53,213.58v3.6c.38-1.17.38-2.43,0-3.6Z" style="fill: #54c3ea;"/>
    <path d="M188.53,163.42v-3.4c-.34,1.11-.34,2.29,0,3.4Z" style="fill: #54c3ea;"/>
    <path d="M201.57,183.69c-2.25,2.25-5.91,2.25-8.16,0-1.34-1.34-3.03-2.22-4.88-2.56v14.85c.57.11,1.16.16,1.75.16,2.51,0,4.85-.96,6.6-2.72l14.42-14.42c1.76-1.76,2.73-4.11,2.72-6.61,0-2.5-.97-4.84-2.72-6.59-1.76-1.76-4.1-2.73-6.61-2.73s-4.85.97-6.6,2.72c-2.25,2.26-5.9,2.26-8.16,0-.69-.69-1.14-1.51-1.41-2.38v6.09c4.94.4,9.52,2.49,13.04,6.02,2.25,2.26,2.25,5.91,0,8.16Z" style="fill: #0f9fd1;"/>
    <path d="M187.16,219.46h0c-3.93,3.93-9.17,6.09-14.76,6.09s-10.83-2.16-14.76-6.09c-3.93-3.93-6.09-9.17-6.09-14.76s2.16-10.83,6.09-14.76l14.41-14.41c3.93-3.93,9.17-6.1,14.76-6.1.58,0,1.15.04,1.72.08v-6.09c-.34-1.11-.34-2.29,0-3.4v-28.54c-31.47.01-57.07,25.61-57.07,57.07s25.6,57.08,57.07,57.09v-28.45c-.27.83-.72,1.62-1.38,2.28Z" style="fill: #54c3ea;"/>
    <path d="M175.52,193.41c2.25-2.25,5.9-2.25,8.16,0,1.33,1.34,3.02,2.21,4.85,2.55v-14.85c-.56-.1-1.14-.16-1.72-.16-2.5,0-4.85.97-6.6,2.72l-14.42,14.42c-3.64,3.64-3.64,9.57,0,13.21,1.75,1.75,4.1,2.72,6.6,2.72s4.85-.96,6.6-2.72c2.25-2.25,5.9-2.25,8.16,0,.66.66,1.1,1.45,1.38,2.28v-6c-4.92-.4-9.49-2.49-13.01-6.01-2.25-2.25-2.25-5.9,0-8.16Z" style="fill: #54c3ea;"/>
    <path d="M188.55,131.47s-.01,0-.02,0v28.54c.27-.87.72-1.69,1.4-2.37,3.93-3.94,9.17-6.11,14.76-6.11,5.59,0,10.84,2.17,14.77,6.11,3.93,3.92,6.1,9.16,6.1,14.74,0,5.59-2.16,10.84-6.1,14.78h0l-14.42,14.41c-3.93,3.93-9.17,6.09-14.76,6.09-.59,0-1.17-.04-1.75-.08v6c.38,1.17.38,2.43,0,3.6v28.45s.01,0,.02,0c31.48,0,57.07-25.61,57.07-57.09s-25.6-57.07-57.07-57.07Z" style="fill: #0f9fd1;"/>
  </g>
</svg>