<?xml version="1.0" encoding="UTF-8"?>
<svg id="uuid-1ff97088-565f-4d93-9925-a5b9334037a9" data-name="Capa 1" xmlns="http://www.w3.org/2000/svg" width="250" height="250" viewBox="0 0 250 250">
  <g>
    <path d="M224.66,80.11h10.43c3.28,0,5.95-2.66,5.95-5.95V13.72c0-3.28-2.66-5.95-5.95-5.95h-29.8v60.99c6.06,3.53,11.95,7.6,18.27,10.6.35.25.72.49,1.1.73Z" style="fill: #0f9fd1;"/>
    <path d="M174.65,7.78c-3.28,0-5.95,2.66-5.95,5.95v60.44c0,3.28,2.66,5.95,5.95,5.95h7.75c-.5-2.77-.8-4.43-.8-4.43-1.56-7.33,5.95-14.24,13.11-12.07,3.66,1.34,7.15,3.17,10.59,5.17V7.78h-30.64Z" style="fill: #54c3ea;"/>
    <path d="M168.7,175.84v60.44c0,3.28,2.66,5.95,5.95,5.95h30.64v-72.33h-30.64c-3.28,0-5.95,2.66-5.95,5.95Z" style="fill: #54c3ea;"/>
    <path d="M235.09,242.22c3.28,0,5.95-2.66,5.95-5.95v-60.44c0-3.28-2.66-5.95-5.95-5.95h-29.8v72.33h29.8Z" style="fill: #0f9fd1;"/>
    <path d="M235.09,161.17c3.28,0,5.95-2.66,5.95-5.95v-2.45c-2.62,1.61-5.21,2.51-7.23,2.26-9.74-1.53-8.32-4.34-16.73-15.61-2.5,5.48-7.18,8.27-11.78,8.55v13.18h29.8Z" style="fill: #0f9fd1;"/>
    <path d="M193.03,138.91s-5.71-31.55-9.06-50.08h-9.32c-3.28,0-5.95,2.66-5.95,5.95v60.44c0,3.28,2.66,5.95,5.95,5.95h30.64v-13.18c-5.4.33-10.71-2.78-12.26-9.07Z" style="fill: #54c3ea;"/>
    <path d="M14.78,7.78c-3.28,0-5.95,2.66-5.95,5.95v60.44c0,3.28,2.66,5.95,5.95,5.95h30.45V7.78H14.78Z" style="fill: #54c3ea;"/>
    <path d="M75.23,7.78h-29.99v72.33h29.99c3.28,0,5.95-2.66,5.95-5.95V13.72c0-3.28-2.66-5.95-5.95-5.95Z" style="fill: #0f9fd1;"/>
    <path d="M8.84,94.78v60.44c0,3.28,2.66,5.95,5.95,5.95h30.45v-72.33H14.78c-3.28,0-5.95,2.66-5.95,5.95Z" style="fill: #54c3ea;"/>
    <path d="M75.23,161.17c3.28,0,5.95-2.66,5.95-5.95v-60.44c0-3.28-2.66-5.95-5.95-5.95h-29.99v72.33h29.99Z" style="fill: #0f9fd1;"/>
    <path d="M8.84,175.84v60.44c0,3.28,2.66,5.95,5.95,5.95h30.45v-72.33H14.78c-3.28,0-5.95,2.66-5.95,5.95Z" style="fill: #54c3ea;"/>
    <path d="M75.23,242.22c3.28,0,5.95-2.66,5.95-5.95v-60.44c0-3.28-2.66-5.95-5.95-5.95h-29.99v72.33h29.99Z" style="fill: #0f9fd1;"/>
    <path d="M155.16,7.78h-30.17v72.33h30.17c3.28,0,5.95-2.66,5.95-5.95V13.72c0-3.28-2.66-5.95-5.95-5.95Z" style="fill: #0f9fd1;"/>
    <path d="M94.72,7.78c-3.28,0-5.95,2.66-5.95,5.95v60.44c0,3.28,2.66,5.95,5.95,5.95h30.27V7.78h-30.27Z" style="fill: #54c3ea;"/>
    <path d="M88.77,94.78v60.44c0,3.28,2.66,5.95,5.95,5.95h30.27v-72.33h-30.27c-3.28,0-5.95,2.66-5.95,5.95Z" style="fill: #54c3ea;"/>
    <path d="M155.16,161.17c3.28,0,5.95-2.66,5.95-5.95v-60.44c0-3.28-2.66-5.95-5.95-5.95h-30.17v72.33h30.17Z" style="fill: #0f9fd1;"/>
    <path d="M155.16,242.22c3.28,0,5.95-2.66,5.95-5.95v-60.44c0-3.28-2.66-5.95-5.95-5.95h-30.17v72.33h30.17Z" style="fill: #0f9fd1;"/>
    <path d="M88.77,175.84v60.44c0,3.28,2.66,5.95,5.95,5.95h30.27v-72.33h-30.27c-3.28,0-5.95,2.66-5.95,5.95Z" style="fill: #54c3ea;"/>
  </g>
  <path d="M244.92,105.94c-.64,1.02-12.88,4.34-15.14,5.41-2.32,1.1-3.54,1.99-2.06,4.72l14.07,19.62c1.02,2.37-1.45,4.02-3.02,5.46-.75.69-4.35,3.74-5.19,3.27-2.54-2.23-15.06-22.82-16.57-22.97-1.19-.12-1.56.56-2.14,1.35-2.73,3.73-5.29,9.04-8.18,13.19-.77,1.1-.8,2.01-3.28,1.03l-11.44-63.23,1.76.47c15.74,10.07,33.23,18.37,48.92,28.36,1.01.64,3.25,1.72,2.26,3.31Z" style="fill: #a324aa;"/>
  <path d="M233.59,16.33v55.49c-7.59-.09-15.2.13-22.79,0,3.15-20.03-13.16-42.04-34.18-41.61.01-4.62,0-9.26,0-13.87h56.97Z" style="fill: #f9a450;"/>
  <path d="M194.7,63.6c5.45,2,10.54,5.07,15.62,8.2.16,0,.33,0,.48,0,3.15-20.03-13.16-42.04-34.18-41.61-.04,13.86.03,27.75,0,41.61,0,0,1.97,0,4.97-.02,1.16-5.65,7.25-9.96,13.11-8.19Z" style="fill: #ef7f18;"/>
</svg>