<?xml version="1.0" encoding="UTF-8"?>
<svg id="uuid-d1c66e75-4367-45c3-8590-2de2075ce1dd" data-name="Capa 1" xmlns="http://www.w3.org/2000/svg" width="250" height="250" xmlns:xlink="http://www.w3.org/1999/xlink" viewBox="0 0 250 250">
  <defs>
    <clipPath id="uuid-8da6b6bd-1070-4936-b54f-5c3b1d33e170">
      <path d="M116.18,211.91l10.13-11.97-4.09-49.78c-.79-9.56,6.34-17.99,15.9-18.79,5.48-.46,10.91,1.75,14.54,5.9,2.46,2.82,3.93,6.28,4.24,10.01l2.32,28.4c3.79-.01,7.49,1.22,10.54,3.53.32.24.64.5.95.77.59.52,1.15,1.07,1.66,1.66.26.3.51.6.75.91.44-.07.88-.12,1.32-.16,5.48-.46,10.91,1.75,14.54,5.89.26.3.51.6.75.91.44-.07.88-.12,1.32-.16,5.19-.43,10.26,1.46,13.9,5.2.22.23.43.46.64.69,2.46,2.82,3.93,6.28,4.24,10.01l1.65,21.39,41.11-26.93,2.43-126.71-183.44-.81-.2,109.94,44.8,30.1Z" style="fill: none;"/>
    </clipPath>
    <clipPath id="uuid-4986ee43-ef42-4b8d-9ffe-19fcad3e52cf">
      <rect x="91.53" y="125.36" width="133.28" height="117.93" style="fill: none;"/>
    </clipPath>
    <clipPath id="uuid-0af9982e-cec7-40a4-8b98-4d491e4012fb">
      <polygon points="63.8 67.13 191.72 67.13 190.8 6.87 5.73 6.87 6.8 139.47 63.8 140.08 63.8 67.13" style="fill: none;"/>
    </clipPath>
  </defs>
  <g>
    <g style="clip-path: url(#uuid-8da6b6bd-1070-4936-b54f-5c3b1d33e170);">
      <g>
        <path d="M94.18,126.33c4.84.35,26.78,20.11,32.79,27.88,15.25-.67,25.44-39.19,53.3-63.05,3.17-2.72,8.83-7.18,14.95-6.06,2.82.51,5.21,2.13,8.65,6.7.75-.02,26.09,32.29,28.27,36.4,3.19-1.22,6.38-4.08,9.16-7.2v-45.6H72.75v64.63c6.54-8.41,13.84-14.25,21.42-13.7ZM95.99,79.04c9.26,0,16.77,7.51,16.77,16.77s-7.51,16.77-16.77,16.77-16.77-7.51-16.77-16.77,7.51-16.77,16.77-16.77Z" style="fill: #0f9fd1;"/>
        <path d="M232.13,128.21c2.65,4.99,4.01,6.98,6.74,7.42.8.13,1.61.1,2.43-.05v-14.57c-2.78,3.12-5.97,5.98-9.16,7.2Z" style="fill: #63ce6d;"/>
        <circle cx="95.99" cy="95.81" r="16.77" style="fill: #fff;"/>
        <g>
          <path d="M157.69,161.09c.16,0,.49-.06.49-.06,45.29-62.68,35.97-76.07,35.97-76.07-5.71-.46-10.9,3.64-13.89,6.2-19.38,16.6-30.21,40.27-40.14,53.38,2.31,3.28,4.45,6.75,6.71,9.66,3.14,4.06,6.5,7.04,10.86,6.88Z" style="fill: #63ce6d;"/>
          <path d="M209.98,98.99c-3.4-4.23-5.88-7.19-6.11-7.19-3.44-4.57-5.83-6.19-8.65-6.7-.36-.07-1.06-.14-1.06-.14-.11,28.5-43.49,72.77-43.49,72.77,14.81-1.35,32.53-35.06,59.31-58.75Z" style="fill: #39b54a;"/>
          <path d="M111.38,138.58c-7.19-6.36-14.48-11.94-17.12-12.23l-21.51,45.47v7.86h11.65s25.73-24.43,26.98-41.1Z" style="fill: #39b54a;"/>
          <path d="M94.18,126.33c-7.58-.55-14.88,5.3-21.42,13.7v31.79c11.8-12.15,20.28-26.46,21.51-45.47-.03,0-.06-.01-.09-.02Z" style="fill: #63ce6d;"/>
          <polygon points="241.28 179.68 241.3 179.68 241.3 167.4 241.28 179.68" style="fill: #63ce6d;"/>
          <path d="M226,91.97c-.1-.02-.2-.02-.31-.04-10.91,29.02-22.67,59.91-41.5,87.75h57.09v-12.28s.07-58.45.07-58.45c-7.71-12.82-11.02-16.18-15.36-16.98Z" style="fill: #39b54a;"/>
          <g>
            <path d="M223.73,91.8c-5.23.14-9.91,3.86-12.69,6.23-.36.31-.71.64-1.07.95-26.78,23.69-36.38,39.19-71.4,53.59l10.04,27.1h35.58c20.12-24.3,35.13-52.63,41.5-87.75-.66-.1-1.31-.15-1.96-.13Z" style="fill: #63ce6d;"/>
            <g>
              <path d="M151.29,158.85c1.92,1.47,4.01,2.33,6.41,2.24.1,0-3.49-1.23-6.41-2.24Z" style="fill: #39b54a;"/>
              <path d="M151.29,158.85c-1.58-1.2-3.04-2.81-4.45-4.64-2.25-2.92-4.4-6.39-6.71-9.66-3.76-5.33-7.97-10.13-13.84-11.16l-6.27,13.26-15.62,33.03h44.22l-.97-22.12c-.07,0,1.63.6,3.64,1.29Z" style="fill: #39b54a;"/>
            </g>
          </g>
          <path d="M125.87,133.31c-.3-.04-.6-.09-.91-.12-4.67-.34-10.73.49-13.58,5.38-5.49,9.42-29.51,36.93-36.27,41.1h29.29c12.58-8.73,19.44-24.72,21.89-46.29-.14-.02-.28-.05-.42-.07Z" style="fill: #63ce6d;"/>
        </g>
      </g>
    </g>
    <g style="clip-path: url(#uuid-4986ee43-ef42-4b8d-9ffe-19fcad3e52cf);">
      <g>
        <g>
          <path d="M154.4,182.1s-.04.01-.06.02h0s.04-.01.06-.02Z" style="fill: none;"/>
          <path d="M142.63,188.62l-4.85-51.99c-6.27.86-10.85,6.49-10.32,12.87l4.42,52.21-4.88,15.25c-4.55,11.22.27,22.28,7.28,29.71,0,0,7.58,11.92,8.79,11.82l58.81-.61c3.33-13.03,5.06-22.72,3.91-36.56l-1.33-15.95c-.55-6.6-6.36-11.52-12.96-10.97-1.55.13-3.02.55-4.34,1.21-1.8-4.96-6.77-8.31-12.28-7.86-1.55.13-3.02.55-4.34,1.21-.8-2.21-2.23-4.09-4.05-5.46-2.28-1.72-5.17-2.65-8.23-2.39-1.38.11-2.68.46-3.87.99.6-.2,1.21-.4,1.85-.6-.64.2-1.25.4-1.85.6-.02,0-.04.02-.06.02h0c-5.56,1.87-9.36,3.86-11.71,6.5h0" style="fill: #f9a450;"/>
          <path d="M154.34,182.12l-2.96-34.61c-.55-6.6-6.36-11.52-12.96-10.97-.22.02-.43.06-.64.09l4.85,51.99c2.35-2.63,6.15-4.62,11.71-6.5Z" style="fill: #ef7f18;"/>
        </g>
        <path d="M170.54,188.96c1.32-.66,2.79-1.08,4.34-1.21,5.51-.46,10.47,2.89,12.28,7.86,1.32-.66,2.79-1.08,4.34-1.21,6.6-.55,12.41,4.37,12.96,10.97l1.33,15.95c1.15,13.85-.32,27.53-4.38,40.65l-2.05,6.76c-.49,1.55-1.87,2.64-3.48,2.78l-20.19,3.97-9.18-91.97c1.82,1.37,3.24,3.26,4.05,5.46Z" style="fill: #ef7f18;"/>
      </g>
    </g>
  </g>
  <g style="clip-path: url(#uuid-0af9982e-cec7-40a4-8b98-4d491e4012fb);">
    <g>
      <path d="M17.8,106.65l56.87-36.42c-5.56-4.28-11.93-6.73-18.71-6.73-18.67,0-34.27,18.46-38.16,43.15Z" style="fill: none;"/>
      <polygon points="7.96 8.53 7.96 73.16 7.96 97.2 7.96 112.81 8.17 112.81 171.01 8.53 7.96 8.53" style="fill: #c552ce;"/>
      <polygon points="171.01 8.53 8 112.81 8.17 112.81 17.08 112.81 176.5 112.81 176.5 8.53 171.01 8.53" style="fill: #a324aa;"/>
      <g>
        <path d="M16.51,112.81h32.04v-38.72c-15.88,1.07-28.95,17.33-32.04,38.72Z" style="fill: #f9a450;"/>
        <path d="M50.22,74.03c-.56,0-1.11.02-1.67.06v38.72h35.38c-3.2-22.13-17.08-38.78-33.71-38.78Z" style="fill: #ef7f18;"/>
        <path d="M68.36,52.16c0-10.46-8.42-18.94-18.8-18.94-.34,0-.67.03-1,.05v37.77c.33.02.66.05,1,.05,10.38,0,18.8-8.48,18.8-18.94Z" style="fill: #ef7f18;"/>
        <path d="M30.75,52.16c0,10.12,7.89,18.36,17.8,18.89v-37.77c-9.92.53-17.8,8.77-17.8,18.89Z" style="fill: #f9a450;"/>
      </g>
      <g>
        <path d="M131.69,60.5c-.51,0-1.01.02-1.52.05v49.26h40.4c-2.07-27.71-18.69-49.31-38.88-49.31Z" style="fill: #ef7f18;"/>
        <path d="M92.81,109.81h37.37v-49.26c-19.5,1.05-35.34,22.24-37.37,49.26Z" style="fill: #f9a450;"/>
        <path d="M109.56,35.64c0,11.63,9.16,21.08,20.61,21.48V14.16c-11.45.41-20.61,9.86-20.61,21.48Z" style="fill: #f9a450;"/>
        <path d="M152.3,35.64c0-11.89-9.57-21.52-21.37-21.52-.26,0-.5.03-.76.04v42.97c.25,0,.5.04.76.04,11.8,0,21.37-9.64,21.37-21.52Z" style="fill: #ef7f18;"/>
      </g>
    </g>
  </g>
</svg>