<?xml version="1.0" encoding="UTF-8"?>
<svg id="uuid-e741a265-b052-4196-902d-9a334d254e66" data-name="Capa 1" xmlns="http://www.w3.org/2000/svg" width="250" height="250" xmlns:xlink="http://www.w3.org/1999/xlink" viewBox="0 0 250 250">
  <defs>
    <clipPath id="uuid-62702ff8-9faf-4186-8565-9a7667a6afb6">
      <path d="M212.4,172.12l-67.56.71c4.94.19-9.27-70.11-3.8-70.11,5.06,0,9.46-.19,13.48-.57,4.83-.46,11.62-3.4,15.14-6.54,1.79-1.6,7.17-8.75,7.76-16.45l.04-.52-.03-.52c-.47-8.48,27.86-1.63,27.86-1.63l7.11,95.64Z" style="fill: none;"/>
    </clipPath>
    <clipPath id="uuid-24607c44-a9f8-4361-a034-46135607c79f">
      <path d="M76.8,239.2l99.91,3.2c-4.94.19,10.18-65.08,4.7-65.08-5.06,0-9.46-.19-13.48-.57-4.83-.46-11.62-3.4-15.14-6.54-1.79-1.6-7.17-8.75-7.76-16.45l-.04-.52.03-5.52c.47-8.48-63.96-2.38-63.96-2.38l-4.27,93.87Z" style="fill: none;"/>
    </clipPath>
    <clipPath id="uuid-c0b7675a-dc6e-497f-9dda-2d5844f68877">
      <path d="M139.02,3.11l-67.56-.71c4.94-.19-9.27,70.11-3.8,70.11,5.06,0,9.46.19,13.48.57,4.83.46,11.62,3.4,15.14,6.54,1.79,1.6,7.17,8.75,7.76,16.45l.04.52-.03.52c-.47,8.48,27.86,1.63,27.86,1.63l7.11-95.64Z" style="fill: none;"/>
    </clipPath>
    <clipPath id="uuid-b6226c33-ea9e-4aaf-8272-4bbb38d34b65">
      <path d="M17.07,66.4L3.59,174c-.19-4.94,70.11,9.27,70.11,3.8,0-5.06.19-9.46.57-13.48.46-4.83,3.4-11.62,6.54-15.14,1.6-1.79,8.75-7.17,16.45-7.76l.52-.04,5.52.03c8.48.47,1.63-68.75,1.63-68.75l-87.88-6.27Z" style="fill: none;"/>
    </clipPath>
  </defs>
  <g>
    <path d="M241.8,97.2c0-2.64-2.85-8.52-4.61-10.5-4.32-4.87-11.52-4.88-17.65-5.16-6.67-.3-14.62-.53-22.61-.58v88.67c9.13.02,18.31-.01,27.52-.18,7.9-.33,16.64-7.56,17.33-15.63.77-17.13-.02-39.65,0-56.64Z" style="fill: #39b54a;"/>
    <g style="clip-path: url(#uuid-62702ff8-9faf-4186-8565-9a7667a6afb6);">
      <path d="M196.94,80.97c-8.86-.05-17.78.15-25.05.77-12.69,1.09-17.24,6.08-18.04,18.76-.92,14.52-.94,36.06.03,50.56.3,4.48.76,9.25,3.83,12.65,3.28,3.65,7.5,5.75,12.35,5.78,8.89.05,17.86.13,26.88.15v-88.67Z" style="fill: #63ce6d;"/>
    </g>
  </g>
  <g>
    <path d="M106.44,148.26c-12.94.3-23.61,2.92-25.08,17.65-1.5,15.01-1.76,41.27.06,55.96,1.34,10.82,8.14,14.53,18.34,15.17,7.33.46,16.02.64,24.66.6v-89.28c-6.01-.14-12.01-.24-17.98-.11Z" style="fill: #f9a450;"/>
    <g style="clip-path: url(#uuid-24607c44-a9f8-4361-a034-46135607c79f);">
      <path d="M165.17,230.23c2.31-2.65,3.73-5.28,4.07-8.84,1.25-13.03.42-30.74,0-43.97-.19-6.05,1.18-12.93-1.73-18.55-2.78-5.38-8.2-8.67-13.89-10.29-9.69.37-19.46.02-29.2-.21v89.28c7.94-.03,15.83-.24,22.61-.57,7.5-.37,12.96-.9,18.15-6.85Z" style="fill: #ef7f18;"/>
      <path d="M133.64,191.73l19.54-19.54c2.45-2.45,2.45-6.43,0-8.89-2.45-2.45-6.43-2.45-8.89,0l-19.54,19.54-19.54-19.54c-2.45-2.45-6.43-2.45-8.89,0-2.45,2.45-2.45,6.43,0,8.89l19.54,19.54-19.54,19.54c-2.45,2.45-2.45,6.43,0,8.89,1.23,1.23,2.84,1.84,4.44,1.84s3.22-.61,4.44-1.84l19.54-19.54,19.54,19.54c1.23,1.23,2.84,1.84,4.44,1.84s3.22-.61,4.44-1.84c2.45-2.45,2.45-6.43,0-8.89l-19.54-19.54Z" style="fill: #fff;"/>
    </g>
  </g>
  <g>
    <g style="clip-path: url(#uuid-c0b7675a-dc6e-497f-9dda-2d5844f68877);">
      <path d="M94.19,8.3c-16,4.1-13.05,20.65-13.18,33.57-.13,12.84-.99,27.23.56,40.1,1.44,11.92,14.89,14.02,24.46,14.04,5.78.01,12.26.09,18.83.11V7.3c-10.35.23-20.77.73-30.68,1Z" style="fill: #d35464;"/>
    </g>
    <path d="M168.86,22.14c-.2-1.73-.99-5.52-1.87-6.92-.5-.79-1.95-2.49-2.46-3-4.35-4.32-9.75-4.45-15.61-4.74-7.8-.38-15.9-.36-24.04-.18v88.8c9.11.02,18.39-.09,26.21-.7,9.55-.75,17.16-6.27,17.88-16.18,1.34-18.41-1-38.53-.1-57.08Z" style="fill: #c1272d;"/>
  </g>
  <g>
    <path d="M24.88,81.03c-8.87,1.86-15.96,8.02-16.73,17.33-1.11,13.38-.54,32.49-.03,46.16.13,3.47.27,10.74,1.15,13.68,1.82,6.14,8.94,10.69,15.09,11.28,8.66.83,18.11.67,27.62.31v-88.88c-9.2.36-18.42.74-27.09.11Z" style="fill: #54c3ea;"/>
    <g style="clip-path: url(#uuid-b6226c33-ea9e-4aaf-8272-4bbb38d34b65);">
      <path d="M82.23,169.45c8.66-.88,13.2-7.46,13.84-16.68,1.26-18.16-1.01-37.76,0-56.08-.41-5.32-4.65-10.67-5.11-11.09-2.27-2.03-7.51-4.24-10.57-4.54-9.01-.87-18.7-.51-28.41-.13v88.88c10.25-.39,20.79-.48,30.25-.35Z" style="fill: #0f9fd1;"/>
      <path d="M61.82,125.6l19.54-19.54c2.45-2.45,2.45-6.43,0-8.89-2.45-2.45-6.43-2.45-8.89,0l-19.54,19.54-19.54-19.54c-2.45-2.45-6.43-2.45-8.89,0-2.45,2.45-2.45,6.43,0,8.89l19.54,19.54-19.54,19.54c-2.45,2.45-2.45,6.43,0,8.89,1.23,1.23,2.84,1.84,4.44,1.84s3.22-.61,4.44-1.84l19.54-19.54,19.54,19.54c1.23,1.23,2.84,1.84,4.44,1.84s3.22-.61,4.44-1.84c2.45-2.45,2.45-6.43,0-8.89l-19.54-19.54Z" style="fill: #fff;"/>
    </g>
  </g>
</svg>