<?xml version="1.0" encoding="UTF-8"?>
<svg id="uuid-aa2c252b-8119-4ce8-a273-86b68a5b70af" data-name="Capa 1" xmlns="http://www.w3.org/2000/svg" width="250" height="250" viewBox="0 0 250 250">
  <g>
    <path d="M242.16,237.68l-33.85-81.95c-.53-1.29-1.78-2.13-3.17-2.13H44.86c-1.39,0-2.63.84-3.17,2.13L7.84,237.68c-.44,1.07-.32,2.28.31,3.25.64.96,1.71,1.54,2.85,1.54h227.99c1.15,0,2.22-.58,2.85-1.54.64-.96.75-2.18.31-3.25Z" style="fill: #54c3ea;"/>
    <path d="M228.07,242.46h10.92c1.15,0,2.22-.58,2.85-1.54.64-.96.75-2.18.31-3.25l-33.85-81.95c-.53-1.29-1.78-2.13-3.17-2.13h-13.78l36.71,88.86Z" style="fill: #0f9fd1;"/>
    <g>
      <path d="M64.05,184.51l11.68-30.98h-31.09c-1.39,0-2.63.84-3.17,2.13l-11.92,28.86h34.5Z" style="fill: #54c3ea;"/>
      <path d="M204.92,153.52h-107.95l31.49,27.46h90.1l-10.46-25.33c-.53-1.29-1.78-2.13-3.17-2.13Z" style="fill: #54c3ea;"/>
      <polygon points="219.36 182.94 220.01 184.51 220.01 184.51 219.36 182.94" style="fill: #00e2ff;"/>
    </g>
    <polygon points="64.41 242.39 157.7 242.39 88.43 183.57 64.41 242.39" style="fill: #54c3ea;"/>
    <path d="M202.49,180.98h16.06l-10.46-25.33c-.53-1.29-1.78-2.13-3.17-2.13h-13.78l11.34,27.46Z" style="fill: #0f9fd1;"/>
    <g>
      <path d="M152.96,82.18c0-15.68-12.61-28.38-28.16-28.39v56.79c15.56,0,28.16-12.72,28.16-28.39Z" style="fill: none;"/>
      <path d="M96.6,82.18c0,15.68,12.62,28.39,28.18,28.39,0,0,.01,0,.02,0v-56.79s-.01,0-.02,0c-15.56,0-28.18,12.71-28.18,28.39Z" style="fill: none;"/>
    </g>
  </g>
  <polygon points="218.55 180.98 128.46 180.98 96.97 153.52 75.85 153.52 73.16 153.52 61.76 180.97 31.02 180.97 24.11 197.69 20.6 206.18 51.38 206.18 36.43 242.39 64.41 242.39 88.43 183.57 157.7 242.39 198.59 242.39 157.19 206.18 228.96 206.18 218.55 180.98" style="fill: #f9a450;"/>
  <path d="M121.1,7.63c-.69.03-1.37.1-2.06.15-.49.04-.99.06-1.48.11,0,0,.02,0,.02,0-37.48,3.66-66.88,35.58-66.88,74.28,0,14.19,3.83,29.24,11.39,44.74,5.98,12.27,14.3,24.85,24.74,37.4,12.83,15.44,25.51,26.86,31.8,32.2.01.01.03.02.04.03.31.27.61.52.89.75.03.03.06.05.09.08,1.19.99,2.06,1.7,2.56,2.1,0,0,0,0,0,0,.25.2.42.33.47.37.62.48,1.36.72,2.1.72,0,0,.01,0,.02,0v-90.02s-.01,0-.02,0c-15.56,0-28.18-12.71-28.18-28.39s12.62-28.39,28.18-28.39c0,0,.01,0,.02,0V7.54s-.01,0-.02,0c-1.24,0-2.46.03-3.68.09Z" style="fill: #d35464;"/>
  <polygon points="202.49 180.98 212.9 206.18 228.96 206.18 218.55 180.98 202.49 180.98" style="fill: #ef7f18;"/>
  <path d="M171.88,24.6c-.92-.76-1.85-1.5-2.8-2.22-3.8-2.87-7.89-5.38-12.21-7.48-9.71-4.72-20.59-7.37-32.07-7.37v46.25c15.56,0,28.16,12.72,28.16,28.39s-12.61,28.38-28.16,28.39v90.02c.73,0,1.47-.24,2.08-.72.73-.57,18.16-14.25,35.86-35.54,10.43-12.55,18.76-25.14,24.74-37.4,7.56-15.5,11.39-30.55,11.39-44.74,0-20.58-8.31-39.24-21.72-52.76-1.68-1.69-3.43-3.3-5.26-4.82Z" style="fill: #c1272d;"/>
</svg>