<?xml version="1.0" encoding="UTF-8"?>
<svg id="uuid-73905c51-ddfc-4632-b3d8-bf6c646221d9" data-name="Capa 1" xmlns="http://www.w3.org/2000/svg" width="250" height="250" viewBox="0 0 250 250">
  <path d="M129.53,12.8c-.93,0-1.87.05-2.8.15,2.01.03,4.01.13,5.98.32-1-.31-2.07-.47-3.17-.47Z" style="fill: none;"/>
  <path d="M132.39,34.14c-.33.07-.66.15-.99.22.34-.06.67-.13.99-.22Z" style="fill: #c1272d;"/>
  <g>
    <path d="M195.73,97.77c-4.82,25.24-22.91,45.74-46.75,53.99.69,3.99,1.07,8.09,1.07,12.28,0,21.97-9.93,41.62-25.55,54.71,12.53,10.88,28.88,17.49,46.78,17.49,39.42,0,71.38-31.96,71.38-71.38,0-30.84-19.55-57.1-46.94-67.09Z" style="fill: #1097c6;"/>
    <path d="M125.45,110.14c12.13,10.54,20.67,25.1,23.53,41.62,23.83-8.25,41.93-28.76,46.75-53.99-7.63-2.78-15.86-4.3-24.44-4.3-17.45,0-33.43,6.27-45.84,16.67Z" style="fill: #c552ce;"/>
    <path d="M150.05,164.04c0-4.19-.38-8.29-1.07-12.28-7.32,2.53-15.17,3.93-23.35,3.93-8.59,0-16.82-1.52-24.44-4.3-.83,4.36-1.28,8.86-1.28,13.46,0,21.52,9.54,40.81,24.61,53.9,15.61-13.09,25.55-32.74,25.55-54.71Z" style="fill: #54c3ea;"/>
    <path d="M125.45,110.14c-12.34,10.35-21.12,24.8-24.26,41.25,7.63,2.78,15.86,4.3,24.44,4.3s16.03-1.39,23.35-3.93c-2.86-16.52-11.4-31.08-23.53-41.62Z" style="fill: #fff;"/>
    <path d="M16.6,199.27c-.7-1.23-1.37-2.49-2-3.76.42,1.39,1.1,2.67,2,3.76Z" style="fill: none;"/>
    <path d="M77.33,92.4c0-13.28,4.39-46.74,54.06-58.04q-.61.1,0,0c.33-.07.66-.15.99-.22,4.61-1.25,8.01-5.46,8.01-10.48s-3.24-9.04-7.69-10.39c-1.97-.19-3.96-.29-5.98-.32-5.07.53-.73-.03-1.1-.03-39.42,0-71.38,31.96-71.38,71.38,0,4.19.38,8.29,1.07,12.28,6.92-2.39,14.31-3.76,22.01-3.9,0-.09,0-.19,0-.28Z" style="fill: #d35464;"/>
    <path d="M132.71,13.27c4.45,1.36,7.69,5.5,7.69,10.39s-3.4,9.22-8.01,10.48c1.07-.23,2.15-.46,3.26-.68-1.11.21-2.19.44-3.26.68-.32.09-.65.16-.99.22-49.68,11.3-54.06,44.76-54.06,58.04,0,.1,0,.19,0,.28.45,0,.89-.03,1.34-.03,17.9,0,34.25,6.6,46.78,17.49,12.4-10.4,28.38-16.67,45.84-16.67,8.59,0,16.82,1.52,24.44,4.3.83-4.36,1.29-8.86,1.29-13.46,0-37.04-28.21-67.48-64.31-71.03Z" style="fill: #c1272d;"/>
    <path d="M61.79,116.22c-.15.06-.3.12-.46.18-15.9,6.09-31.37,26.35-25.81,72.98.13,1.23.34,2.91.34,2.99,0,6-4.87,10.87-10.87,10.87-3.39,0-6.41-1.55-8.4-3.98,12.28,21.58,35.47,36.15,62.07,36.15,17.45,0,33.43-6.27,45.84-16.67-15.07-13.09-24.61-32.37-24.61-53.9,0-4.6.45-9.1,1.28-13.46-17.19-6.27-31.28-18.96-39.4-35.17Z" style="fill: #39b54a;"/>
    <path d="M25,203.24c6,0,10.87-4.87,10.87-10.87,0-.08-.18-1.58-.34-2.99-5.56-46.63,9.91-66.9,25.81-72.98.16-.06.3-.12.46-.18-3.05-6.1-5.27-12.7-6.47-19.64-27.95,9.68-48.03,36.21-48.03,67.45,0,11.3,2.63,21.97,7.31,31.47q-.3-.99,0,0c.63,1.28,1.3,2.53,2,3.76,1.99,2.43,5.02,3.98,8.4,3.98Z" style="fill: #63ce6d;"/>
    <path d="M77.33,92.68c-.04,13.28-2.94,18.62-15.54,23.54,8.11,16.21,22.2,28.9,39.4,35.17,3.14-16.45,11.92-30.9,24.26-41.25-12.53-10.88-28.88-17.49-46.78-17.49-.45,0-.89.02-1.34.03Z" style="fill: #ef7f18;"/>
    <path d="M77.33,92.68c-7.7.14-15.09,1.51-22.01,3.9,1.2,6.94,3.42,13.54,6.47,19.64,12.6-4.92,15.5-10.26,15.54-23.54Z" style="fill: #f9a450;"/>
  </g>
</svg>