<?xml version="1.0" encoding="UTF-8"?>
<svg id="uuid-531cd9ca-2dd9-4310-8a78-872682fc96b8" data-name="Capa 1" xmlns="http://www.w3.org/2000/svg" width="250" height="250" viewBox="0 0 250 250">
  <path d="M176.4,15.6c-2.87,0-5.2,2.33-5.2,5.2v53.07c0,2.87,2.33,5.2,5.2,5.2h26.8V15.6h-26.8Z" style="fill: #c552ce;"/>
  <path d="M229.2,15.6h-26v63.47h26c2.87,0,5.2-2.33,5.2-5.2V20.8c0-2.87-2.33-5.2-5.2-5.2Z" style="fill: #a324aa;"/>
  <path d="M229.2,95.07h-64.93v63.47h64.93c2.87,0,5.2-2.33,5.2-5.2v-53.07c0-2.87-2.33-5.2-5.2-5.2Z" style="fill: #c1272d;"/>
  <path d="M99.07,95.07c-2.87,0-5.2,2.33-5.2,5.2v53.07c0,2.87,2.33,5.2,5.2,5.2h65.2v-63.47h-65.2Z" style="fill: #d35464;"/>
  <path d="M176.4,171.6c-2.87,0-5.2,2.33-5.2,5.2v53.07c0,2.87,2.33,5.2,5.2,5.2h26.8v-63.47h-26.8Z" style="fill: #c552ce;"/>
  <path d="M229.2,171.6h-26v63.47h26c2.87,0,5.2-2.33,5.2-5.2v-53.07c0-2.87-2.33-5.2-5.2-5.2Z" style="fill: #a324aa;"/>
  <path d="M99.07,171.6c-2.87,0-5.2,2.33-5.2,5.2v53.07c0,2.87,2.33,5.2,5.2,5.2h26.53v-63.47h-26.53Z" style="fill: #d35464;"/>
  <path d="M151.87,171.6h-26.27v63.47h26.27c2.87,0,5.2-2.33,5.2-5.2v-53.07c0-2.87-2.33-5.2-5.2-5.2Z" style="fill: #c1272d;"/>
  <path d="M74.53,235.07c2.87,0,5.2-2.33,5.2-5.2v-53.07c0-2.87-2.33-5.2-5.2-5.2h-26.27v63.47h26.27Z" style="fill: #a324aa;"/>
  <path d="M16.53,176.8v53.07c0,2.87,2.33,5.2,5.2,5.2h26.53v-63.47h-26.53c-2.87,0-5.2,2.33-5.2,5.2Z" style="fill: #c552ce;"/>
  <path d="M74.53,15.33h-26.27v142.76h26.27c2.87,0,5.2-2.33,5.2-5.2V20.53c0-2.87-2.33-5.2-5.2-5.2Z" style="fill: #a324aa;"/>
  <path d="M21.73,15.33c-2.87,0-5.2,2.33-5.2,5.2v132.36c0,2.87,2.33,5.2,5.2,5.2h26.53V15.33h-26.53Z" style="fill: #c552ce;"/>
  <path d="M151.87,79.07c2.87,0,5.2-2.33,5.2-5.2V20.8c0-2.87-2.33-5.2-5.2-5.2h-26.27v63.47h26.27Z" style="fill: #c1272d;"/>
  <path d="M99.07,79.07h26.53V15.6h-26.53c-2.87,0-5.2,2.33-5.2,5.2v53.07c0,2.87,2.33,5.2,5.2,5.2Z" style="fill: #d35464;"/>
</svg>