<?xml version="1.0" encoding="UTF-8"?>
<svg id="uuid-f68611cb-6107-4793-aabf-b889ad5b4d3b" data-name="Capa 1" xmlns="http://www.w3.org/2000/svg" width="250" height="250" viewBox="0 0 250 250">
  <g>
    <path d="M169.09,78.09c-15.22,0-24.64,8.09-25.45,24.53-.04.75.45,7.73,2.64,11.36,4.24,10.09,13.06,11.8,13.21,11.99.05.06.04,1.1-.02,2.81l26.87-43.21c-3.83-3.96-10.29-7.48-17.25-7.48Z" style="fill: none;"/>
    <path d="M157.56,166.65c4.45,2.65,19.48,2.97,22.41-1.12,0,0-2.56-28.17-4.16-39.7,0,0,7.15-3.77,8.76-5.4,9.26-9.37,10.95-20.19,4.21-31.74-.6-1.04-1.44-2.1-2.44-3.13l-26.87,43.21c-.31,9.21-1.91,37.87-1.91,37.87Z" style="fill: none;"/>
    <path d="M159.49,125.97c-.15-.19-8.97-1.9-13.21-11.99-2.19-3.63-2.68-10.61-2.64-11.36.81-16.44,10.23-24.53,25.45-24.53,6.96,0,13.42,3.52,17.25,7.48l18.44-29.65c-7.85-4.25-16.93-7.36-27.29-8.94-2.98-.46-6.73-1.22-9.6-1.2-6.73.06-22.82,1.2-38.42,9.57-1.9,1.02-7.87,6.37-10.18,8.4-20.99,18.44-31.71,46.92-24.64,74.16,1.65,6.36,6.31,18.98,11.28,26.28,4.24,5.3,9.66,12.01,15.23,16.1,1.45,1.06,2.92,2.05,4.4,3l33.9-54.52c.06-1.71.07-2.75.02-2.81Z" style="fill: #c552ce;"/>
    <path d="M204.78,55.92l-18.44,29.65c1,1.03,1.83,2.09,2.44,3.13,6.74,11.55,5.05,22.37-4.21,31.74-1.61,1.63-8.76,5.4-8.76,5.4,1.6,11.53,4.16,39.7,4.16,39.7-2.93,4.09-17.96,3.77-22.41,1.12,0,0,1.59-28.66,1.91-37.87l-33.9,54.52c14.86,9.54,31.45,13.6,49.52,12.05,77.1-6.62,89.87-106.87,29.69-139.43Z" style="fill: #a324aa;"/>
  </g>
  <g>
    <path d="M94.65,137.92c-8.23,14.61-23.31,24.25-32.94,37.17-6.6,8.85-10.27,20.26-10.27,20.26,0,0,10.16-5.72,16.64-8.52,6.77-2.92,24.15-7.13,30.41-12.01,4.32-3.36,7.44-9.21,7.44-10.61.24.15.41.69.65.86v-87.18c-12.25,17.3-17.38,39.04-11.92,60.03Z" style="fill: none;"/>
    <path d="M169.09,23.05c-.11,7.6.63,15.3-1.2,22.73,2.87-.03,6.63.74,9.6,1.2l2.39-23.94c2.28-.3,15.96.92,16.57.35.41-.39,2.66-12.01-.54-12.13l-89.34-.13v11.92h62.51Z" style="fill: #0f9fd1;"/>
    <path d="M119.29,63.76c2.31-2.03,8.44-7.12,10.18-8.4l-22.89-.4v22.93c3.64-5.15,7.9-9.9,12.71-14.13Z" style="fill: #0f9fd1;"/>
    <path d="M200.78,231.16c-2.4-3.52-10.41-.81-14.54-3.25-7.69-4.54-7.79-24.13-11.15-32.56-19.88,1.71-37.97-3.35-53.93-15.05-5.33-3.91-10.8-10.4-14.58-15.24l.02,75.27,94.18-.17c1.44,0,3.52-3.88,0-9Z" style="fill: #0f9fd1;"/>
    <path d="M105.93,164.2c0,1.4-3.12,7.25-7.44,10.61-6.26,4.87-23.65,9.08-30.41,12.01-6.48,2.8-16.64,8.52-16.64,8.52,0,0,3.68-11.41,10.27-20.26,9.63-12.92,24.71-22.56,32.94-37.17-5.45-20.99-.32-42.73,11.92-60.03v-22.93l-54.38-.96c-3.5-1.18-6.43-26.15-6.77-30.95h61.15v-11.92l-89.45-.13c-1.83,5.68-.82,11.16,1.81,12.71l12.76.46s.22,7.12.8,9.97c4.56,22.21,10.52,38.59,25.52,55.93,7.08,8.18,34.61,28.05,30,39.42-3.01,7.43-27.26,27.1-34.15,35.39-9.93,11.94-14.18,22.45-17.72,37.38-3.48,14.67,2.14,18.05-13.53,26.35-2.12,1.12-7.13.85-9.6,2.56-2.22,1.53-3.63,5.73-.64,9.12l94.22.05-.02-75.27c-.24-.17-.4-.71-.65-.86Z" style="fill: #54c3ea;"/>
  </g>
</svg>