<?xml version="1.0" encoding="UTF-8"?>
<svg id="uuid-bfa2f7c9-7972-4b52-930e-c316398979bf" data-name="Capa 1" xmlns="http://www.w3.org/2000/svg" width="250" height="250" viewBox="0 0 250 250">
  <path d="M67.71,16.7c-.09-.13-.46.2-1.04.89v219.31l9.26-.09c11.06-.11,19.96-9.79,19.95-21.68l-.15-111.58,26.72.16S69.24,18.91,67.71,16.7Z" style="fill: #39b54a;"/>
  <path d="M10.95,104.94l27.71-.05.07,110.45c0,12.03,9.12,21.74,20.3,21.63l7.64-.07V17.59c-7.78,9.28-55.92,86.41-55.72,87.35Z" style="fill: #63ce6d;"/>
  <path d="M176.03,36.63c4.02,0,7.28-3.26,7.28-7.28v-3.17c0-4.02-3.26-7.28-7.28-7.28h-17.63v17.73h17.63Z" style="fill: #a324aa;"/>
  <path d="M140.56,36.63h17.84v-17.73h-17.84c-4.02,0-7.28,3.26-7.28,7.28v3.17c0,4.02,3.26,7.28,7.28,7.28Z" style="fill: #c552ce;"/>
  <path d="M194.85,96.09c4.43,0,8.02-3.59,8.02-8.02v-3.49c0-4.43-3.59-8.02-8.02-8.02h-26.31v19.53h26.31Z" style="fill: #a324aa;"/>
  <path d="M141.3,96.09h27.23v-19.53h-27.23c-4.43,0-8.02,3.59-8.02,8.02v3.49c0,4.43,3.59,8.02,8.02,8.02Z" style="fill: #c552ce;"/>
  <path d="M144.14,138.98c-5.86,0-10.61,4.75-10.61,10.61v4.62c0,5.86,4.75,10.61,10.61,10.61h35.59v-25.84h-35.59Z" style="fill: #c552ce;"/>
  <path d="M179.73,164.82h31.06c5.86,0,10.61-4.75,10.61-10.61v-4.62c0-5.86-4.75-10.61-10.61-10.61h-31.06v25.84Z" style="fill: #a324aa;"/>
  <path d="M146.47,199.86c-7.56,0-13.69,6.13-13.69,13.69v5.97c0,7.56,6.13,13.69,13.69,13.69h42.87v-33.36h-42.87Z" style="fill: #c552ce;"/>
  <path d="M226.51,199.86h-37.17v33.36h37.17c7.56,0,13.69-6.13,13.69-13.69v-5.97c0-7.56-6.13-13.69-13.69-13.69Z" style="fill: #a324aa;"/>
</svg>