<?xml version="1.0" encoding="UTF-8"?>
<svg id="uuid-c83780de-bc76-449b-aaa4-1b38ec736300" data-name="Capa 1" xmlns="http://www.w3.org/2000/svg" width="250" height="250" xmlns:xlink="http://www.w3.org/1999/xlink" viewBox="0 0 250 250">
  <defs>
    <clipPath id="uuid-d78a9a3a-550b-4ea5-8864-3c7d59a8dd26">
      <path d="M11.77,7c-6.32,0-17.82,233.64,26.68,222.44v-109.95c0-6.32,5.13-11.45,11.45-11.45h160.06c6.32,0,11.45,5.13,11.45,11.45l.07,106.38c23.49-1.44,13.45-215.82,7.13-215.82L11.77,7Z" style="fill: none;"/>
    </clipPath>
    <clipPath id="uuid-17766c9b-7d39-4a34-a215-8817f7a252fd">
      <path d="M14.83,53.32c-6.32,0-18.83,183.24,23.63,186.21v-120.04c0-6.32,5.13-11.45,11.45-11.45h160.06c6.32,0,11.45,5.13,11.45,11.45v120.04c37.23-1.95,25.67-178.58,25.67-178.58L14.83,53.32Z" style="fill: none;"/>
    </clipPath>
  </defs>
  <g style="clip-path: url(#uuid-d78a9a3a-550b-4ea5-8864-3c7d59a8dd26);">
    <path d="M223.35,31.18v152.02H14.32V12.18h76.01l9.5,19h123.52Z" style="fill: #a324aa;"/>
  </g>
  <g style="clip-path: url(#uuid-17766c9b-7d39-4a34-a215-8817f7a252fd);">
    <path d="M14.32,183.2l19-114.02h209.03l-19,114.02H14.32Z" style="fill: #c552ce;"/>
  </g>
  <g>
    <path d="M170.09,179.65l-.14-.14-29.76,29.76v-29.78c10.93-.13,19.76-9.03,19.76-19.99,0-10.97-8.83-19.86-19.76-19.99v-20.02h69.78v100.03s-39.87-39.87-39.87-39.87h0Z" style="fill: #0f9fd1;"/>
    <path d="M140.18,119.49v20.02c-.08,0-.16-.01-.25-.01-11.05,0-20.01,8.96-20.01,20.01,0,11.05,8.96,20.01,20.01,20.01.08,0,.16-.01.25-.01v29.78s-.25.25-.25.25l-49.64-49.64h0l-.38-.38-40.01,50.02v-90.03h90.28Z" style="fill: #54c3ea;"/>
    <polygon points="90.3 159.89 90.3 239.53 49.91 239.53 49.91 209.52 89.92 159.51 90.3 159.89" style="fill: #63ce6d;"/>
    <polygon points="209.96 219.53 209.96 239.53 170.09 239.53 170.09 179.65 209.96 219.53" style="fill: #39b54a;"/>
    <polygon points="169.95 179.51 170.09 179.65 170.09 239.53 140.18 239.53 140.18 209.28 169.95 179.51" style="fill: #63ce6d;"/>
    <polygon points="139.94 209.52 140.18 209.28 140.18 239.53 90.3 239.53 90.3 159.89 139.94 209.52" style="fill: #39b54a;"/>
    <path d="M139.94,179.51c-11.05,0-20.01-8.96-20.01-20.01,0-11.05,8.96-20.01,20.01-20.01.08,0,.16.01.25.01v39.99c-.08,0-.16.01-.25.01Z" style="fill: #f9a450;"/>
    <path d="M159.94,159.51c0,10.97-8.83,19.86-19.76,19.99v-39.99c10.93.13,19.76,9.03,19.76,19.99Z" style="fill: #ef7f18;"/>
  </g>
</svg>