<?xml version="1.0" encoding="utf-8"?>
<!-- Generator: Adobe Illustrator 16.0.0, SVG Export Plug-In . SVG Version: 6.00 Build 0)  -->
<!DOCTYPE svg PUBLIC "-//W3C//DTD SVG 1.1//EN" "http://www.w3.org/Graphics/SVG/1.1/DTD/svg11.dtd">
<svg version="1.1" id="Layer_1" xmlns="http://www.w3.org/2000/svg" xmlns:xlink="http://www.w3.org/1999/xlink" x="0px" y="0px"
	 width="24px" height="24px" viewBox="0 0 24 24" enable-background="new 0 0 24 24" xml:space="preserve">
<title>icon-bold</title>
<desc>Created with Sketch.</desc>
<g>
	<path fill-rule="evenodd" clip-rule="evenodd" d="M12.012,14.901c0-0.185,0-0.329,0-0.473c0-2.51,0-5.021,0.001-7.531
		c0-0.714,0.137-0.903,0.806-1.105c0.745-0.226,1.491-0.45,2.235-0.669c0.813-0.239,1.312,0.134,1.317,0.981
		c0.004,0.476,0.01,0.951-0.002,1.425c-0.014,0.569-0.227,0.842-0.774,1.003c-0.511,0.152-1.024,0.309-1.544,0.439
		c-0.245,0.062-0.318,0.178-0.316,0.431c0.011,2.291-0.053,4.583,0.026,6.871c0.057,1.674-0.968,2.389-2.163,2.659
		c-1.213,0.274-2.354,0.098-3.326-0.739c-0.864-0.743-0.867-1.897-0.008-2.642c0.959-0.83,2.08-0.997,3.289-0.753
		C11.693,14.826,11.832,14.86,12.012,14.901z"/>
</g>
</svg>
