<?xml version="1.0" encoding="UTF-8"?>
<svg id="uuid-6076eb74-b42b-4bb9-99a2-6cc50168664d" data-name="Capa 1" xmlns="http://www.w3.org/2000/svg" width="250" height="250" viewBox="0 0 250 250">
  <g>
    <g>
      <path d="M31.86,12.4c-10.1,0-18.29,8.19-18.29,18.29v188.63c0,10.1,8.19,18.29,18.29,18.29h93.49V12.4H31.86Z" style="fill: #7ea2aa;"/>
      <path d="M235.74,68.59h-52.25c-1.53,0-3-.61-4.08-1.69-1.08-1.08-1.69-2.55-1.69-4.08V12.96c-1.45-.37-2.95-.56-4.47-.56h-47.89v225.2h92.78c10.1,0,18.29-8.19,18.29-18.29V73.53c0-1.69-.24-3.35-.69-4.94Z" style="fill: #5d7f87;"/>
    </g>
    <polygon points="187.41 12.71 189.41 14.59 235.58 58.66 187.41 58.66 187.41 12.71" style="fill: #83a8b2; fill-rule: evenodd;"/>
    <path id="uuid-53a0b105-f987-462e-8883-6eace556e166" data-name="path849" d="M115.46,42.51H49.44c-3.77,0-6.83-3.08-6.83-6.88s3.06-6.88,6.83-6.88h66.03c3.77,0,6.83,3.08,6.83,6.88s-3.06,6.88-6.83,6.88" style="fill: #fff;"/>
    <path id="uuid-50d17fe3-383e-468c-a2f2-6491a5e2d319" data-name="path853" d="M52.48,69.02c-6.8,0-9.88-3.08-9.88-6.88s3.08-6.88,9.88-6.88h93.16c.8,0,3.8,13.76,0,13.76" style="fill: #fff;"/>
    <path id="uuid-ee24b957-8d6f-41ea-b984-8bf9f35d300a" data-name="path857" d="M161.65,55.26h-36.35v13.76h36.35c3.8,0,6.88-3.08,6.88-6.88s-3.08-6.88-6.88-6.88" style="fill: #54c3ea;"/>
  </g>
  <path id="uuid-2620f8d7-3ed3-40f3-9ff9-f24fac6a3ca7" data-name="path845" d="M196.4,200.73h-43.47v-13.76h43.47v13.76ZM95.7,186.98h43.47v13.76h-43.47v-13.76ZM58.19,186.98h23.76v13.76h-23.76v-13.76ZM58.19,104.45h23.76v13.76h-23.76v-13.76ZM139.18,118.2h-43.47v-13.76h43.47v13.76ZM196.4,118.2h-43.47v-13.76h43.47v13.76ZM152.93,159.47h43.47v13.76h-43.47v-13.76ZM81.95,145.71h-23.76v-13.76h23.76v13.76ZM95.7,131.96h43.47v13.76h-43.47v-13.76ZM139.18,173.22h-43.47v-13.76h43.47v13.76ZM58.19,159.47h23.76v13.76h-23.76v-13.76ZM196.4,145.71h-43.47v-13.76h43.47v13.76ZM210.16,97.57c0-3.8-11.08-6.88-11.88-6.88H54.32c-6.8,0-9.88,3.08-9.88,6.88v110.04c0,3.8,3.08,6.88,9.88,6.88h145.97c.8,0,9.88-3.08,9.88-6.88v-110.04Z" style="fill: #fff;"/>
  <path id="uuid-64799aaf-a859-4d20-bcda-cd82873a02f1" data-name="path859" d="M196.4,118.2h-43.47v-13.76h43.47v13.76ZM196.4,145.71h-43.47v-13.76h43.47v13.76ZM196.4,173.22h-43.47v-13.76h43.47v13.76ZM196.4,200.73h-43.47v-13.76h43.47v13.76ZM203.28,90.69h-77.98v13.76h13.88v13.76h-13.88v13.76h13.88v13.76h-13.88v13.76h13.88v13.76h-13.88v13.76h13.88v13.76h-13.88v13.76h77.98c3.8,0,6.88-3.08,6.88-6.88v-110.04c0-3.8-3.08-6.88-6.88-6.88" style="fill: #54c3ea;"/>
</svg>