<?xml version="1.0" encoding="UTF-8"?>
<svg id="uuid-e7a45f09-ec86-4cbf-9b77-87ff9ce9f5b6" data-name="Capa 1" xmlns="http://www.w3.org/2000/svg" width="250" height="250" viewBox="0 0 250 250">
  <path d="M115.02,166.67v59.87h-19.96V96.82c-19.96-1.7-41.31-4.99-59.87-9.98l4.99-19.96c26.04,6.98,56.58,9.98,84.82,9.98.04,0,.07,0,.11,0v-8.03s-.07,0-.11,0c-10.98,0-19.96-8.98-19.96-19.96s8.98-19.96,19.96-19.96c.04,0,.07,0,.11,0V11.33h-57.76c-29.78,0-54.15,24.36-54.15,54.15v119.04c0,29.78,24.37,54.15,54.15,54.15h57.76v-72h-10.09Z" style="fill: #54c3ea;"/>
  <path d="M182.65,11.33h-57.55v17.6c10.93.06,19.85,9.01,19.85,19.95s-8.92,19.89-19.85,19.95v8.03c28.21,0,58.7-3,84.71-9.98l4.99,19.96c-18.56,4.99-39.91,8.28-59.87,9.98v129.72h-19.96v-59.87h-9.87v72h57.55c29.78,0,54.15-24.37,54.15-54.15v-119.04c0-29.79-24.37-54.15-54.15-54.15Z" style="fill: #0f9fd1;"/>
  <path d="M40.18,66.89l-4.99,19.96c18.56,4.99,39.91,8.28,59.87,9.98v129.72h19.96v-59.87h10.09v-89.81s-.07,0-.11,0c-28.24,0-58.77-2.99-84.82-9.98Z" style="fill: #54c3ea;"/>
  <path d="M40.18,66.89l-4.99,19.96c18.56,4.99,39.91,8.28,59.87,9.98v129.72h19.96v-59.87h10.09v-89.81s-.07,0-.11,0c-28.24,0-58.77-2.99-84.82-9.98Z" style="fill: #fff;"/>
  <path d="M105.04,48.89c0,10.98,8.98,19.96,19.96,19.96.04,0,.07,0,.11,0V28.93s-.07,0-.11,0c-10.98,0-19.96,8.98-19.96,19.96Z" style="fill: #54c3ea;"/>
  <path d="M105.04,48.89c0,10.98,8.98,19.96,19.96,19.96.04,0,.07,0,.11,0V28.93s-.07,0-.11,0c-10.98,0-19.96,8.98-19.96,19.96Z" style="fill: #fff;"/>
  <path d="M144.96,48.89c0-10.94-8.92-19.89-19.85-19.95v39.9c10.93-.06,19.85-9.01,19.85-19.95Z" style="fill: #0f9fd1;"/>
  <path d="M144.96,48.89c0-10.94-8.92-19.89-19.85-19.95v39.9c10.93-.06,19.85-9.01,19.85-19.95Z" style="fill: #a0e1f2;"/>
  <path d="M134.98,166.67v59.87h19.96V96.82c19.96-1.7,41.31-4.99,59.87-9.98l-4.99-19.96c-26.01,6.98-56.5,9.97-84.71,9.98v89.81h9.87Z" style="fill: #0f9fd1;"/>
  <path d="M134.98,166.67v59.87h19.96V96.82c19.96-1.7,41.31-4.99,59.87-9.98l-4.99-19.96c-26.01,6.98-56.5,9.97-84.71,9.98v89.81h9.87Z" style="fill: #a0e1f2;"/>
</svg>