<?xml version="1.0" encoding="UTF-8"?>
<svg id="uuid-5796ad84-2011-4cf2-a27c-4191faf88e06" data-name="Capa 1" xmlns="http://www.w3.org/2000/svg" width="250" height="250" viewBox="0 0 250 250">
  <path d="M80.39,197.23c-1.13,0-2.05-.92-2.05-2.05v-11.39c0-1.13.91-2.05,2.05-2.05h44.72v-12.45c-.56.03-1.13-.16-1.56-.59h0l-43.88-43.89c-.79-.77-1.29-1.74-1.49-2.77-.19-1.01-.1-2.07.32-3.11.43-1.02,1.12-1.86,1.98-2.44.88-.58,1.91-.9,3-.9h20.7v-60.79c0-1.13.92-2.05,2.05-2.05h18.88V8.62h-59.14c-30.49,0-55.44,24.94-55.44,55.44v121.88c0,30.49,24.95,55.44,55.44,55.44h59.14v-44.15h-44.72Z" style="fill: #7ea2aa;"/>
  <path d="M184.03,8.62h-58.92v44.14h18.66c1.12,0,2.05.92,2.05,2.05v60.79h20.7c1.1,0,2.13.32,3,.9.86.58,1.56,1.42,1.98,2.44.43,1.03.52,2.1.32,3.11-.21,1.03-.71,2-1.49,2.77l-43.88,43.89c-.37.37-.85.56-1.34.59v12.45h44.5c1.13,0,2.05.92,2.05,2.05v11.39c0,1.13-.92,2.05-2.05,2.05h-44.5v44.15h58.92c30.49,0,55.44-24.95,55.44-55.44v-121.88c0-30.5-24.95-55.44-55.44-55.44Z" style="fill: #5d7f87;"/>
  <path d="M126.45,168.7l43.88-43.89c.79-.77,1.29-1.74,1.49-2.77.19-1.01.1-2.07-.32-3.11-.43-1.02-1.12-1.86-1.98-2.44-.88-.58-1.91-.9-3-.9h-20.7v-60.79c0-1.13-.93-2.05-2.05-2.05h-18.66v116.53c.49-.03.97-.22,1.34-.59Z" style="fill: #54c3ea;"/>
  <path d="M169.61,197.23c1.13,0,2.05-.92,2.05-2.05v-11.39c0-1.13-.92-2.05-2.05-2.05h-44.5v15.49h44.5Z" style="fill: #54c3ea;"/>
  <path d="M78.34,183.79v11.39c0,1.13.91,2.05,2.05,2.05h44.72v-15.49h-44.72c-1.13,0-2.05.92-2.05,2.05Z" style="fill: #fff;"/>
  <path d="M104.18,54.81v60.79h-20.7c-1.1,0-2.13.32-3,.9-.86.58-1.56,1.42-1.98,2.44-.43,1.03-.52,2.1-.32,3.11.21,1.03.71,2,1.49,2.77l43.88,43.89h0c.43.43,1,.62,1.56.59V52.76h-18.88c-1.13,0-2.05.92-2.05,2.05Z" style="fill: #fff;"/>
</svg>