<?xml version="1.0" encoding="UTF-8"?>
<svg id="uuid-5c97be2e-44bc-4c56-b740-b100fc6230dd" data-name="Capa 1" xmlns="http://www.w3.org/2000/svg" width="250" height="250" viewBox="0 0 250 250">
  <g>
    <g>
      <path d="M31.86,12.4c-10.1,0-18.29,8.19-18.29,18.29v188.63c0,10.1,8.19,18.29,18.29,18.29h93.49V12.4H31.86Z" style="fill: #7ea2aa;"/>
      <path d="M235.74,68.59h-52.25c-1.53,0-3-.61-4.08-1.69-1.08-1.08-1.69-2.55-1.69-4.08V12.96c-1.45-.37-2.95-.56-4.47-.56h-47.89v225.2h92.78c10.1,0,18.29-8.19,18.29-18.29V73.53c0-1.69-.24-3.35-.69-4.94Z" style="fill: #5d7f87;"/>
    </g>
    <polygon points="187.41 12.71 189.41 14.59 235.58 58.66 187.41 58.66 187.41 12.71" style="fill: #83a8b2; fill-rule: evenodd;"/>
    <path id="uuid-8cf54cd8-3a10-4647-9ffd-b9688d9601c5" data-name="path849" d="M115.46,42.51H49.44c-3.77,0-6.83-3.08-6.83-6.88s3.06-6.88,6.83-6.88h66.03c3.77,0,6.83,3.08,6.83,6.88s-3.06,6.88-6.83,6.88" style="fill: #fff;"/>
    <path id="uuid-ae522ef4-9ee4-4b29-b28d-aa61c5b1b6e3" data-name="path853" d="M52.48,69.02c-6.8,0-9.88-3.08-9.88-6.88s3.08-6.88,9.88-6.88h93.16c.8,0,3.8,13.76,0,13.76" style="fill: #fff;"/>
    <path id="uuid-9221cb5d-d417-44bd-9242-371d34f8a0e7" data-name="path857" d="M161.65,55.26h-36.35v13.76h36.35c3.8,0,6.88-3.08,6.88-6.88s-3.08-6.88-6.88-6.88" style="fill: #54c3ea;"/>
  </g>
  <g>
    <g>
      <path d="M206.48,108.75c0,8.74-7.06,15.8-15.8,15.8h-79.33l-10.53-10.53v-10.53l10.53-10.53h79.33c8.74,0,15.8,7.06,15.8,15.8Z" style="fill: #fff;"/>
      <path d="M206.48,108.75c0,8.74-7.06,15.8-15.8,15.8h-79.33l-10.53-10.53v-5.27h105.66Z" style="fill: #e6e6e6;"/>
      <path d="M58.28,92.96h53.07v31.59h-53.07c-8.72,0-15.8-7.07-15.8-15.8h0c0-8.72,7.07-15.8,15.8-15.8Z" style="fill: #54c3ea;"/>
      <path d="M42.49,108.75h68.87v15.8h-53.07c-8.72,0-15.8-7.07-15.8-15.8h0Z" style="fill: #0f9fd1;"/>
    </g>
    <g>
      <path d="M206.48,157.49c0,8.74-7.06,15.8-15.8,15.8h-26.68l-10.53-10.53v-10.53l10.53-10.53h26.68c8.74,0,15.8,7.06,15.8,15.8Z" style="fill: #fff;"/>
      <path d="M206.48,157.49c0,8.74-7.06,15.8-15.8,15.8h-26.68l-10.53-10.53v-5.27h53Z" style="fill: #e6e6e6;"/>
      <path d="M58.28,141.7h105.72v31.59H58.28c-8.72,0-15.8-7.07-15.8-15.8h0c0-8.72,7.07-15.8,15.8-15.8Z" style="fill: #54c3ea;"/>
      <path d="M42.49,157.49h121.52v15.8H58.28c-8.72,0-15.8-7.07-15.8-15.8h0Z" style="fill: #0f9fd1;"/>
    </g>
    <g>
      <path d="M206.48,206.23c0,8.74-7.06,15.8-15.8,15.8h-47.74l-10.53-10.53v-10.53l10.53-10.53h47.74c8.74,0,15.8,7.06,15.8,15.8Z" style="fill: #fff;"/>
      <path d="M206.48,206.23c0,8.74-7.06,15.8-15.8,15.8h-47.74l-10.53-10.53v-5.27h74.07Z" style="fill: #e6e6e6;"/>
      <path d="M58.28,190.43h84.66v31.59H58.28c-8.72,0-15.8-7.07-15.8-15.8h0c0-8.72,7.07-15.8,15.8-15.8Z" style="fill: #54c3ea;"/>
      <path d="M42.49,206.23h100.46v15.8H58.28c-8.72,0-15.8-7.07-15.8-15.8h0Z" style="fill: #0f9fd1;"/>
    </g>
  </g>
</svg>